<svg width="355" height="412" viewBox="0 0 355 412" fill="none" xmlns="http://www.w3.org/2000/svg">
<path d="M190.404 0.407244C189.888 0.633133 189.017 0.988102 188.468 1.18172C185.693 2.11755 185.144 2.34344 183.853 2.89203C183.111 3.247 182.143 3.50516 181.756 3.50516C181.369 3.50516 180.562 3.79558 179.981 4.15055C179.4 4.50552 178.69 4.79595 178.367 4.79595C178.077 4.79595 177.27 5.08638 176.593 5.44135C175.947 5.79632 175.14 6.08675 174.818 6.08675C174.527 6.08675 173.721 6.37718 173.043 6.73215C172.398 7.08712 171.526 7.37755 171.107 7.37755C170.719 7.37755 170.042 7.60344 169.622 7.89386C169.203 8.18429 168.428 8.53926 167.847 8.66834C166.46 9.02331 163.878 9.92687 162.297 10.6368C161.555 10.9918 160.716 11.2499 160.425 11.2499C160.135 11.2499 159.328 11.5404 158.618 11.8953C157.908 12.2503 157.134 12.5407 156.876 12.5407C156.585 12.5407 155.746 12.7989 155.004 13.1539C154.23 13.4766 153.132 13.9283 152.584 14.122C152.003 14.3156 151.035 14.6383 150.486 14.8319C149.905 15.0255 148.808 15.4773 148.034 15.8C147.292 16.155 146.42 16.4131 146.098 16.4131C145.807 16.4131 145 16.7036 144.323 17.0585C143.677 17.4135 142.903 17.7039 142.645 17.7039C142.386 17.7039 141.547 17.9621 140.805 18.317C140.031 18.6397 138.901 19.0915 138.288 19.3174C135.481 20.2855 134.513 20.6728 133.545 21.0923C132.996 21.3504 132.351 21.5763 132.092 21.5763C131.867 21.5763 131.124 21.8667 130.447 22.2217C129.801 22.5767 128.93 22.8671 128.543 22.8671C128.123 22.8671 127.381 23.1575 126.832 23.5125C126.316 23.8675 125.542 24.1579 125.154 24.1579C124.735 24.1579 123.96 24.4483 123.38 24.8033C122.799 25.1583 122.056 25.4487 121.734 25.4487C121.443 25.4487 120.637 25.7391 119.991 26.0941C119.314 26.4491 118.474 26.7395 118.12 26.7395C117.765 26.7395 116.99 27.0299 116.409 27.3849C115.828 27.7399 115.086 28.0303 114.731 28.0303C114.376 28.0303 113.634 28.3207 113.053 28.6757C112.472 29.0307 111.73 29.3211 111.407 29.3211C111.117 29.3211 110.31 29.6115 109.665 29.9665C108.987 30.3215 108.213 30.6119 107.954 30.6119C107.696 30.6119 106.89 30.87 106.18 31.225C105.47 31.5477 104.405 31.9995 103.856 32.1931C101.339 33.0644 100.629 33.3226 99.3707 33.8711C98.6285 34.2261 97.7572 34.4843 97.4345 34.4843C97.1118 34.4843 96.3373 34.7747 95.7565 35.1297C95.1756 35.4846 94.4334 35.7751 94.0784 35.7751C93.7235 35.7751 92.9813 36.0655 92.4004 36.4205C91.8195 36.7754 91.0773 37.0659 90.7869 37.0659C90.4642 37.0659 89.5606 37.3563 88.7539 37.7113C87.9472 38.0662 86.6564 38.6471 85.8496 39.0021C85.0429 39.357 84.107 39.6475 83.7521 39.6475C83.3971 39.6475 82.6549 39.9379 82.074 40.2929C81.4932 40.6478 80.7187 40.9383 80.396 40.9383C80.0733 40.9383 79.202 41.1964 78.4598 41.5514C77.7176 41.8741 76.6204 42.3259 76.0073 42.5518C75.3942 42.7454 74.4583 43.1003 73.9097 43.2617C73.3934 43.4553 72.4253 43.8748 71.7799 44.1975C71.1345 44.5525 70.3278 44.8106 69.9728 44.8106C69.6501 44.8106 68.8434 45.1011 68.1657 45.456C67.5203 45.811 66.7135 46.1014 66.4231 46.1014C66.1004 46.1014 65.3582 46.3919 64.7774 46.7468C64.1965 47.1018 63.4543 47.3922 63.0993 47.3922C62.7443 47.3922 61.9699 47.6827 61.3245 48.0376C60.6791 48.3926 59.9369 48.683 59.6142 48.683C59.3237 48.683 58.517 48.9735 57.8393 49.3284C57.1939 49.6834 56.3872 49.9738 56.0967 49.9738C55.774 49.9738 55.0318 50.2643 54.451 50.6192C53.8701 50.9742 53.0956 51.2646 52.7407 51.2646C52.3534 51.2646 51.5144 51.5228 50.869 51.8778C50.2236 52.2005 49.2878 52.62 48.7392 52.8136C48.2229 52.9749 47.2548 53.3299 46.6417 53.5235C46.0285 53.7494 44.8991 54.2012 44.1246 54.5239C43.3824 54.8789 42.5111 55.137 42.1884 55.137C41.898 55.137 41.1558 55.4275 40.5749 55.7824C39.9941 56.1374 39.2841 56.4278 38.9614 56.4278C38.671 56.4278 37.8642 56.7182 37.1866 57.0732C36.5412 57.4282 35.6699 57.7186 35.2504 57.7186C34.3145 57.7186 33.7337 58.2995 33.7337 59.2353C33.7337 59.8162 33.9596 60.0421 34.7018 60.2034C35.2504 60.3002 35.7667 60.5261 35.8958 60.7197C36.0249 60.9133 36.1539 74.0472 36.1862 89.8917L36.283 118.709L35.3472 119.193C34.8309 119.451 33.9918 119.677 33.4755 119.677C32.6042 119.677 29.2482 122.065 27.8283 123.678C25.9566 125.873 25.279 127.196 25.1176 129.035C24.9563 130.713 25.0208 131.1 25.8921 132.488C26.4407 133.359 27.5379 134.715 28.3446 135.554C29.1836 136.36 29.8613 137.199 29.8613 137.361C29.8613 137.522 29.6354 138.2 29.3773 138.813C29.1191 139.458 28.8932 140.685 28.8932 141.524C28.8932 142.363 28.6673 143.879 28.3769 144.847C28.0865 145.815 27.7638 147.913 27.6024 149.527C27.4733 151.108 27.1184 153.657 26.8279 155.174C26.5375 156.69 26.3116 158.917 26.3116 160.176C26.3116 161.402 26.0857 163.887 25.7953 165.661C25.5371 167.436 25.1822 171.728 24.9885 175.181C24.8272 178.634 24.5368 182.861 24.3754 184.539C24.1818 186.217 23.9236 192.316 23.73 198.093C23.5687 203.869 23.3428 209.097 23.2137 209.71C23.0846 210.517 23.1492 210.968 23.4719 211.259C23.9882 211.678 57.6457 211.872 58.3234 211.452C58.7429 211.194 58.4524 191.155 57.9361 186.153C57.7425 184.475 57.4843 180.247 57.323 176.795C57.1294 173.342 56.7744 169.276 56.5163 167.759C56.2258 166.242 55.9999 164.08 55.9999 162.919C55.9999 161.757 55.7095 159.078 55.3545 156.949C54.9996 154.819 54.7091 152.334 54.7091 151.463C54.7091 150.559 54.4832 149.107 54.1928 148.236C53.9347 147.332 53.5797 145.235 53.4506 143.524C53.2893 141.814 52.9343 139.975 52.6439 139.426C51.7726 137.78 51.9662 136.328 53.1602 135.328C56.129 132.811 56.7744 129.616 55.0318 126.131C53.5797 123.259 49.6105 120.161 46.5448 119.516C46.0608 119.419 45.3831 119.064 45.0282 118.709C44.3828 118.063 44.3828 117.515 44.3828 91.2793C44.3828 61.3006 44.1891 63.5272 46.7385 64.7535C48.5133 65.5925 50.9981 66.4315 52.6116 66.7219C53.3215 66.851 54.451 67.206 55.1609 67.4964C55.8386 67.8191 56.6131 68.045 56.8712 68.045C57.1294 68.045 57.9361 68.3354 58.6461 68.6904C59.3883 69.0454 60.3241 69.3358 60.7113 69.3358C61.0986 69.3358 62.0344 69.6262 62.8089 69.9812C63.5834 70.3362 64.5837 70.6266 65.0355 70.6266C65.4873 70.6266 66.3908 70.917 67.0685 71.272C67.7139 71.627 68.6175 71.9174 69.0692 71.9174C69.521 71.9174 70.4569 72.2078 71.1668 72.5628C71.8767 72.9177 72.8126 73.2082 73.2643 73.2082C73.7161 73.2082 74.6519 73.4986 75.3619 73.8536C76.0718 74.2085 76.8463 74.499 77.1367 74.499C77.7176 74.499 80.9768 75.4993 83.5907 76.4674C84.4943 76.8224 85.4946 77.0806 85.8496 77.0806C86.2046 77.0806 87.1404 77.371 87.9149 77.726C88.6894 78.0809 89.6252 78.3714 90.0124 78.3714C90.3997 78.3714 91.3355 78.6618 92.0777 79.0168C92.7876 79.3717 93.6267 79.6622 93.8848 79.6622C94.1752 79.6622 95.1433 79.9526 96.0792 80.3076C97.015 80.6625 98.0799 80.9529 98.4349 80.9529C98.7898 80.9852 99.6611 81.2434 100.371 81.5983C101.081 81.9533 102.017 82.2437 102.469 82.2437C102.92 82.2437 103.856 82.5342 104.566 82.8891C105.276 83.2441 106.115 83.5023 106.438 83.5345C106.793 83.5345 107.503 83.7604 108.051 84.0186C109.052 84.4704 110.73 85.019 113.763 85.7934C114.57 86.0193 115.828 86.4711 116.603 86.7938C117.345 87.1165 118.345 87.4069 118.797 87.4069C119.217 87.4069 120.153 87.6974 120.862 88.0523C121.572 88.4073 122.476 88.6977 122.863 88.6977C123.283 88.6977 124.057 88.9236 124.574 89.214C125.122 89.4722 126.122 89.8272 126.832 89.9885C128.155 90.279 130.092 90.8921 132.964 91.957C133.867 92.312 134.932 92.5701 135.319 92.5701C135.739 92.5701 136.675 92.8605 137.385 93.2155C138.127 93.5705 139.063 93.8609 139.482 93.8609C139.902 93.8609 140.805 94.1513 141.515 94.5063C142.225 94.8613 143.129 95.1517 143.516 95.1517C143.935 95.1517 144.678 95.3776 145.226 95.668C145.743 95.9262 146.872 96.3134 147.743 96.507C148.615 96.6684 149.712 97.0234 150.164 97.2815C150.648 97.5397 151.358 97.7333 151.777 97.7333C152.164 97.7333 153.068 98.0237 153.778 98.3787C154.488 98.7337 155.424 99.0241 155.875 99.0241C156.327 99.0241 157.263 99.3145 157.973 99.6695C158.683 100.024 159.554 100.315 159.974 100.315C160.361 100.315 161.426 100.573 162.329 100.928C163.201 101.251 165.04 101.864 166.363 102.251C167.686 102.638 169.526 103.251 170.397 103.574C171.3 103.929 172.365 104.187 172.752 104.187C173.172 104.187 174.043 104.478 174.753 104.833C175.463 105.188 176.367 105.478 176.754 105.478C177.173 105.478 178.142 105.769 178.916 106.123C179.691 106.478 180.659 106.769 181.078 106.769C181.53 106.769 182.433 107.059 183.143 107.414C183.853 107.769 184.66 108.06 184.983 108.06C185.693 108.06 189.242 109.189 191.146 110.028C192.921 110.803 194.47 110.803 196.051 109.996C196.761 109.641 197.6 109.35 197.955 109.35C198.278 109.35 199.182 109.06 199.956 108.705C200.731 108.35 201.666 108.06 202.021 108.06C202.376 108.06 203.248 107.769 203.958 107.414C204.667 107.059 205.539 106.769 205.894 106.769C206.249 106.769 207.185 106.478 207.959 106.123C208.733 105.769 209.637 105.478 209.992 105.478C210.315 105.478 211.057 105.22 211.638 104.929C212.219 104.639 213.187 104.284 213.8 104.155C215.058 103.897 217.575 103.058 219.286 102.316C219.899 102.057 220.931 101.735 221.545 101.606C222.9 101.315 225.417 100.444 227.289 99.6372C228.031 99.2823 228.967 99.0241 229.322 99.0241C229.677 99.0241 230.516 98.7337 231.226 98.3787C231.936 98.0237 232.807 97.7333 233.162 97.7333C233.517 97.7333 234.388 97.4429 235.098 97.0879C235.808 96.7329 236.679 96.4425 237.034 96.4425C237.389 96.4425 238.26 96.1521 238.97 95.7971C239.68 95.4421 240.552 95.1517 240.907 95.1517C241.262 95.1517 242.133 94.8613 242.843 94.5063C243.553 94.1513 244.424 93.8609 244.779 93.8609C245.166 93.8609 245.908 93.6028 246.489 93.3123C247.07 93.0219 248.038 92.6669 248.651 92.5378C250.039 92.2474 252.556 91.3761 254.395 90.6017C255.138 90.2467 256.073 89.9885 256.428 89.9885C256.783 89.9885 257.622 89.6981 258.332 89.3431C259.042 88.9882 259.914 88.6977 260.269 88.6977C260.623 88.6977 261.495 88.4073 262.205 88.0523C262.915 87.6974 263.786 87.4069 264.141 87.4069C264.496 87.4069 265.367 87.1165 266.077 86.7615C266.787 86.4066 267.658 86.1161 268.013 86.1161C268.368 86.1161 269.24 85.8257 269.949 85.4707C270.659 85.1158 271.531 84.8253 271.886 84.8253C272.241 84.8253 273.112 84.5349 273.822 84.1799C274.532 83.825 275.403 83.5345 275.758 83.5345C276.145 83.5345 276.888 83.2764 277.468 82.986C278.049 82.6955 279.017 82.3406 279.63 82.2115C281.018 81.921 283.535 81.0498 285.375 80.2753C286.117 79.9203 287.053 79.6622 287.408 79.6622C287.762 79.6622 288.602 79.3717 289.311 79.0168C290.021 78.6618 290.925 78.3714 291.344 78.3714C291.764 78.3714 292.7 78.0809 293.442 77.726C294.152 77.371 295.055 77.0806 295.443 77.0806C295.83 77.0806 296.572 76.8547 297.153 76.532C297.734 76.2415 298.637 75.9189 299.154 75.7575C300.186 75.4993 302.413 74.7571 304.93 73.8213C305.801 73.4663 306.769 73.2082 307.124 73.2082C307.447 73.2082 308.286 72.9177 308.996 72.5628C309.706 72.2078 310.545 71.9174 310.868 71.9174C311.19 71.9174 312.062 71.627 312.804 71.272C313.514 70.917 314.385 70.6266 314.74 70.6266C315.063 70.6266 315.934 70.3362 316.676 69.9812C317.386 69.6262 318.29 69.3358 318.677 69.3358C319.032 69.3358 319.903 69.0454 320.613 68.6904C321.323 68.3354 322.162 68.045 322.517 68.045C322.872 68.045 323.808 67.7546 324.647 67.3996C325.486 67.0446 326.422 66.7542 326.777 66.7542C327.132 66.7542 327.971 66.4638 328.681 66.1088C329.391 65.7538 330.262 65.4634 330.617 65.4634C330.972 65.4634 331.843 65.173 332.553 64.818C333.263 64.463 334.167 64.1726 334.554 64.1726C334.973 64.1403 335.877 63.8822 336.587 63.5272C337.297 63.1722 338.136 62.9141 338.459 62.8818C338.781 62.8818 339.588 62.5914 340.298 62.2364C341.008 61.8814 341.944 61.591 342.395 61.591C342.847 61.591 343.751 61.3006 344.396 60.9456C345.074 60.5906 345.945 60.3002 346.332 60.3002C346.752 60.3002 347.623 60.0098 348.269 59.6548C348.946 59.2998 349.785 59.0094 350.14 59.0094C350.495 59.0094 351.044 58.7835 351.366 58.5254C351.721 58.2995 352.528 57.9768 353.238 57.88C353.916 57.7509 354.593 57.525 354.69 57.3314C355.013 56.8151 353.819 55.7824 352.431 55.4275C351.689 55.2338 350.431 54.7821 349.592 54.4594C348.753 54.1044 347.785 53.8462 347.397 53.8462C347.042 53.8462 346.171 53.5558 345.461 53.2008C344.751 52.8459 343.88 52.5554 343.525 52.5554C343.17 52.5554 342.299 52.265 341.589 51.91C340.879 51.5551 339.943 51.2646 339.491 51.2646C339.039 51.2646 338.104 50.9742 337.394 50.6192C336.684 50.2643 335.812 49.9738 335.457 49.9738C335.102 49.9738 334.231 49.6834 333.521 49.3284C332.811 48.9735 331.972 48.683 331.617 48.683C331.262 48.683 330.327 48.3926 329.487 48.0376C328.648 47.6827 327.713 47.3922 327.358 47.3922C327.003 47.3922 326.164 47.1018 325.454 46.7468C324.744 46.3919 323.84 46.1014 323.453 46.1014C323.034 46.0692 322.13 45.811 321.42 45.456C320.71 45.1011 319.807 44.8429 319.452 44.8106C319.064 44.8106 318.128 44.5202 317.354 44.1653C316.58 43.8103 315.644 43.5199 315.289 43.5199C314.934 43.5199 314.062 43.2294 313.353 42.8745C312.643 42.5195 311.739 42.2613 311.32 42.2291C310.932 42.2291 310.029 41.9386 309.319 41.5837C308.609 41.2287 307.802 40.9383 307.479 40.9383C307.157 40.9383 306.35 40.6478 305.672 40.2929C305.027 39.9379 304.188 39.6475 303.833 39.6475C303.478 39.6475 302.639 39.357 301.994 39.0021C301.316 38.6471 300.477 38.3567 300.122 38.3567C299.767 38.3567 298.928 38.0662 298.25 37.7113C297.605 37.3563 296.766 37.0659 296.411 37.0659C296.024 37.0659 295.185 36.7754 294.475 36.4205C293.765 36.0655 292.893 35.7751 292.538 35.7751C292.183 35.7751 291.312 35.4846 290.602 35.1297C289.892 34.7747 289.053 34.4843 288.698 34.4843C288.343 34.4843 287.537 34.1938 286.891 33.8389C286.246 33.4839 285.439 33.1935 285.084 33.1935C284.729 33.1935 283.89 32.9031 283.18 32.5481C282.47 32.1931 281.696 31.9027 281.405 31.9027C281.115 31.9027 280.34 31.6123 279.63 31.2573C278.921 30.9023 278.114 30.6119 277.791 30.6119C277.468 30.6119 276.662 30.3215 275.984 29.9665C275.339 29.6115 274.467 29.3211 274.08 29.3211C273.661 29.3211 272.918 29.0307 272.37 28.6757C271.853 28.3207 271.079 28.0303 270.692 28.0303C270.272 28.0303 269.498 27.7399 268.917 27.3849C268.336 27.0299 267.529 26.7395 267.142 26.7395C266.722 26.7395 265.948 26.4491 265.367 26.0941C264.786 25.7391 263.947 25.4487 263.496 25.4487C263.044 25.4487 262.269 25.1583 261.721 24.8033C261.204 24.4483 260.462 24.1579 260.107 24.1579C259.752 24.1579 258.913 23.8675 258.236 23.5125C257.59 23.1575 256.816 22.8671 256.557 22.8671C256.267 22.8671 255.428 22.5767 254.718 22.2217C253.976 21.8667 253.105 21.5763 252.782 21.5763C252.491 21.5763 251.749 21.2859 251.168 20.9309C250.588 20.5759 249.813 20.2855 249.458 20.2855C249.103 20.2532 248.232 19.9951 247.522 19.6401C246.812 19.2851 246.037 19.027 245.779 18.9947C245.521 18.9947 244.747 18.7366 244.004 18.3816C242.778 17.833 242.23 17.6394 239.551 16.7036C238.97 16.5099 237.873 16.0582 237.099 15.7355C236.357 15.3805 235.485 15.1223 235.195 15.1223C234.904 15.1223 234.098 14.8642 233.355 14.5092C232.613 14.1865 231.613 13.767 231.064 13.5734C230.548 13.412 229.58 13.0571 228.967 12.8634C228.354 12.6375 227.224 12.1858 226.45 11.8631C225.707 11.5081 224.868 11.2499 224.578 11.2499C224.32 11.2499 223.545 10.9595 222.835 10.6045C222.125 10.2496 221.319 9.95914 220.996 9.95914C220.673 9.92687 219.834 9.66871 219.124 9.31374C218.414 8.95877 217.575 8.70061 217.253 8.66834C216.962 8.66834 216.156 8.37791 215.51 8.02294C214.832 7.66797 213.993 7.37755 213.638 7.37755C213.284 7.37755 212.509 7.08712 211.928 6.73215C211.347 6.37718 210.573 6.08675 210.218 6.08675C209.863 6.08675 209.024 5.79632 208.314 5.44135C207.604 5.08638 206.83 4.79595 206.539 4.79595C206.249 4.79595 205.474 4.50552 204.764 4.15055C204.054 3.79558 203.183 3.50516 202.828 3.50516C202.473 3.50516 201.602 3.21473 200.892 2.85976C200.182 2.50479 199.375 2.21436 199.052 2.21436C198.73 2.18209 197.891 1.92393 197.181 1.56896C196.471 1.21399 195.6 0.955832 195.212 0.923562C194.857 0.923562 194.277 0.697673 193.922 0.439513C193.179 -0.141345 191.695 -0.141345 190.404 0.407244Z" fill="url(#paint0_linear_160_328)"/>
<path d="M291.086 91.9572C290.376 92.2799 289.376 92.5703 288.892 92.5703C288.408 92.5703 287.44 92.8608 286.73 93.2157C286.02 93.5707 285.116 93.8611 284.664 93.8611C284.245 93.8611 283.277 94.1516 282.502 94.5065C281.728 94.8615 280.663 95.1519 280.179 95.1519C279.695 95.1519 278.727 95.4423 278.017 95.7973C277.307 96.1523 276.403 96.4427 275.952 96.4427C275.532 96.4427 274.564 96.7331 273.79 97.0881C273.015 97.4431 272.015 97.7335 271.563 97.7335C271.111 97.7335 270.175 98.0239 269.465 98.3789C268.755 98.7339 267.755 98.992 267.271 99.0243C266.787 99.0243 265.916 99.2825 265.335 99.5729C264.754 99.8633 263.786 100.218 263.173 100.347C262.56 100.444 261.398 100.767 260.591 101.057C256.428 102.445 254.879 102.897 254.202 102.897C253.782 102.897 252.846 103.187 252.136 103.542C251.394 103.897 250.329 104.187 249.813 104.187C249.264 104.22 248.232 104.478 247.522 104.833C246.812 105.188 245.812 105.446 245.327 105.478C244.843 105.478 243.875 105.769 243.165 106.124C242.455 106.479 241.487 106.769 241.003 106.769C240.519 106.801 239.519 107.06 238.809 107.414C238.099 107.769 237.163 108.06 236.711 108.06C236.26 108.06 235.324 108.35 234.614 108.705C233.904 109.06 233 109.318 232.581 109.351C232.194 109.351 231.29 109.641 230.58 109.996C229.87 110.351 228.999 110.641 228.644 110.641C228.289 110.641 227.418 110.932 226.708 111.287C225.998 111.642 225.159 111.932 224.836 111.932C224.481 111.932 223.642 112.158 222.964 112.481C222.254 112.771 221.19 113.094 220.576 113.223C219.963 113.352 218.737 113.707 217.833 114.03C216.962 114.32 215.8 114.707 215.252 114.901C214.736 115.095 213.574 115.45 212.67 115.676C211.799 115.934 210.605 116.353 210.024 116.611C209.476 116.87 208.701 117.095 208.346 117.095C207.959 117.095 207.088 117.386 206.378 117.741C205.668 118.096 204.829 118.386 204.474 118.386C204.151 118.386 203.247 118.677 202.473 119.032C201.699 119.387 200.763 119.677 200.408 119.677C200.053 119.677 199.343 119.903 198.827 120.161C198.31 120.452 197.342 120.807 196.729 120.936C196.084 121.097 195.115 121.42 194.535 121.646C193.631 122 193.341 122 192.34 121.516C191.695 121.226 190.92 120.968 190.598 120.968C190.275 120.968 189.371 120.677 188.597 120.322C187.822 119.967 186.822 119.677 186.37 119.677C185.919 119.677 184.983 119.387 184.273 119.032C183.563 118.677 182.659 118.419 182.272 118.386C181.885 118.386 180.917 118.096 180.078 117.741C179.239 117.386 178.206 117.095 177.787 117.095C177.335 117.095 176.431 116.805 175.721 116.45C175.011 116.095 174.075 115.805 173.624 115.805C173.172 115.805 172.236 115.514 171.526 115.159C170.816 114.804 169.913 114.514 169.525 114.514C169.106 114.482 168.202 114.223 167.492 113.868C166.782 113.514 165.879 113.255 165.492 113.223C165.104 113.223 164.136 112.933 163.297 112.578C162.458 112.223 161.426 111.932 161.006 111.932C160.554 111.932 159.651 111.642 158.941 111.287C158.231 110.932 157.327 110.641 156.94 110.641C156.521 110.641 155.649 110.351 154.972 109.996C154.326 109.641 153.423 109.351 152.971 109.351C152.487 109.351 151.68 109.093 151.099 108.802C150.518 108.512 149.486 108.157 148.776 108.028C148.066 107.931 146.807 107.576 145.968 107.285C145.097 106.995 143.742 106.543 142.903 106.253C142.031 105.962 140.708 105.607 139.902 105.478C139.095 105.317 138.03 104.994 137.481 104.704C136.965 104.413 136.191 104.187 135.771 104.187C135.384 104.187 134.48 103.897 133.77 103.542C133.06 103.187 132.189 102.897 131.802 102.897C131.415 102.897 130.285 102.639 129.285 102.284C128.284 101.961 126.381 101.348 125.057 100.961C123.734 100.573 121.895 99.9601 121.024 99.6374C120.12 99.2825 119.055 99.0243 118.668 99.0243C118.281 99.0243 117.41 98.7984 116.732 98.508C116.086 98.2498 114.957 97.8949 114.247 97.7335C113.537 97.5722 112.311 97.2495 111.504 96.9913C107.696 95.7328 105.663 95.1519 105.05 95.1519C104.695 95.1519 103.824 94.8615 103.114 94.5065C102.404 94.1516 101.5 93.8611 101.049 93.8611C100.629 93.8611 99.5965 93.5707 98.7575 93.2157C97.9185 92.8608 96.8536 92.5703 96.3373 92.5703C95.8532 92.5703 95.2724 92.3444 95.0465 92.054C94.7883 91.7958 94.2397 91.6022 93.7879 91.6668C93.0457 91.7636 92.9489 91.8927 92.9812 93.0544C93.0135 93.7643 93.0457 102.122 93.078 111.61C93.1425 127.551 93.1103 128.874 92.5939 129.261C92.1744 129.584 89.3992 129.616 80.3959 129.519C72.7157 129.423 68.3915 129.487 67.7138 129.713C67.133 129.874 66.2617 130.52 65.7454 131.133L64.7773 132.198L64.5837 166.662C64.4546 185.637 64.2932 202.256 64.2287 203.579C64.1319 204.902 63.9705 234.203 63.8737 268.635L63.6478 331.303L64.39 332.368C65.6163 334.143 66.9071 335.143 68.8433 335.821C70.4568 336.402 71.8121 336.499 80.041 336.692C85.2041 336.789 90.5609 337.015 91.9808 337.176C93.4007 337.37 96.1759 337.628 98.1121 337.789C100.081 337.983 102.404 338.338 103.275 338.596C104.179 338.887 105.47 339.113 106.18 339.113C106.89 339.113 108.245 339.403 109.181 339.758C110.117 340.113 111.246 340.403 111.698 340.403C112.117 340.403 113.053 340.694 113.763 341.049C114.473 341.404 115.344 341.694 115.699 341.694C116.086 341.694 116.99 341.985 117.7 342.34C118.442 342.694 119.281 342.985 119.572 342.985C119.83 342.985 120.604 343.275 121.282 343.63C121.927 343.985 122.766 344.276 123.121 344.276C123.509 344.276 124.348 344.534 124.993 344.889C125.638 345.212 126.865 345.792 127.736 346.18C132.415 348.277 133.738 348.89 135.384 349.794C135.642 349.955 136.384 350.342 136.997 350.665C137.61 351.02 139.224 351.891 140.547 352.666C141.87 353.408 143.258 354.215 143.613 354.408C143.968 354.602 144.71 355.086 145.291 355.473C145.839 355.893 146.388 356.216 146.517 356.216C146.646 356.216 147.808 356.99 149.099 357.926C150.389 358.829 152.293 360.185 153.294 360.895C158.134 364.283 163.071 368.414 164.975 370.608C165.814 371.641 167.525 373.512 168.751 374.803C169.945 376.094 170.848 377.288 170.719 377.481C170.429 377.998 169.074 377.901 168.622 377.352C168.396 377.094 166.815 376.191 165.104 375.384C163.394 374.577 161.748 373.77 161.458 373.609C161.135 373.448 160.619 373.19 160.329 373.028C160.006 372.867 159.135 372.447 158.425 372.06C157.682 371.705 156.876 371.382 156.65 371.382C156.392 371.382 155.843 371.092 155.391 370.737C154.939 370.382 154.326 370.092 154.004 370.092C153.681 370.092 152.874 369.801 152.229 369.446C151.132 368.865 150.325 368.51 146.452 366.832C145.678 366.477 144.452 365.929 143.709 365.606C142.935 365.251 141.967 364.864 141.515 364.735C141.063 364.638 140.418 364.315 140.063 364.089C139.708 363.831 139.192 363.638 138.869 363.638C138.546 363.638 137.675 363.347 136.933 363.025C133.803 361.637 130.769 360.54 128.284 359.862C127.316 359.572 126.219 359.152 125.864 358.926C125.509 358.668 124.864 358.474 124.38 358.474C123.896 358.474 122.895 358.184 122.121 357.829C121.346 357.474 120.282 357.184 119.797 357.184C119.313 357.184 118.345 356.893 117.635 356.538C116.925 356.183 116.022 355.893 115.57 355.893C115.151 355.893 114.183 355.602 113.408 355.247C112.634 354.893 111.536 354.602 110.956 354.602C110.375 354.602 109.181 354.312 108.277 353.957C107.374 353.602 106.18 353.311 105.599 353.311C105.018 353.279 103.759 353.021 102.791 352.666C101.823 352.311 100.468 352.053 99.7901 352.02C99.1125 352.02 97.7571 351.73 96.7568 351.375C95.7241 351.02 94.4979 350.73 94.0138 350.73C93.4975 350.73 92.0454 350.439 90.7868 350.084C89.496 349.729 87.9148 349.439 87.2694 349.439C86.624 349.439 84.7524 349.148 83.0743 348.794C81.3963 348.439 79.4278 348.148 78.6533 348.148C77.9111 348.148 74.8778 347.858 71.8767 347.503C68.1979 347.083 62.9702 346.793 55.3545 346.631L44.2213 346.373L44.1568 283.77C44.0923 249.338 43.9955 220.972 43.8986 220.746C43.7373 220.295 31.6361 220.166 31.3456 220.65C31.2488 220.811 31.152 251.338 31.152 288.513C31.1198 341.759 31.2166 356.312 31.5393 356.99C31.7652 357.506 32.6042 358.249 33.54 358.733L35.1858 359.604L49.5459 359.765C63.4219 359.959 69.2305 360.314 76.3299 361.411C77.4916 361.605 79.5246 361.895 80.8477 362.056C82.1708 362.25 84.4619 362.67 85.8818 363.025C87.334 363.347 89.0765 363.638 89.7542 363.638C90.4641 363.638 91.9486 363.928 93.0457 364.283C94.1752 364.638 95.4982 364.928 95.9823 364.928C96.4663 364.928 97.7249 365.219 98.7575 365.574C99.7901 365.929 101.113 366.219 101.694 366.219C102.275 366.219 103.501 366.51 104.405 366.865C105.308 367.22 106.47 367.51 106.986 367.51C107.503 367.51 108.664 367.8 109.568 368.155C110.471 368.51 111.633 368.801 112.182 368.801C112.698 368.801 113.602 369.059 114.183 369.349C114.763 369.64 115.796 369.995 116.506 370.124C117.764 370.35 121.024 371.447 122.315 372.028C122.992 372.351 126.219 373.512 127.704 373.964C128.188 374.125 128.93 374.48 129.317 374.739C129.704 375.029 130.35 375.255 130.705 375.255C131.06 375.255 131.834 375.545 132.415 375.9C132.996 376.255 133.641 376.546 133.867 376.546C134.093 376.546 134.803 376.836 135.481 377.191C136.126 377.546 136.933 377.836 137.223 377.836C137.546 377.836 138.159 378.127 138.611 378.482C139.063 378.837 139.676 379.127 139.998 379.127C140.353 379.127 140.999 379.321 141.451 379.579C143 380.418 145.968 381.709 146.356 381.709C146.936 381.709 149.26 383.451 149.131 383.806C148.969 384.323 147.743 384.355 146.936 383.839C146.517 383.58 145.613 383.29 144.903 383.161C144.194 383.032 142.741 382.677 141.676 382.354C139.547 381.709 135.319 380.805 132.318 380.418C131.253 380.257 129.866 379.999 129.253 379.773C128.639 379.579 126.8 379.289 125.219 379.127C123.605 378.966 121.443 378.611 120.378 378.32C119.346 378.062 117.603 377.836 116.506 377.836C115.441 377.836 112.989 377.546 111.02 377.191C109.084 376.836 106.664 376.546 105.696 376.546C104.727 376.546 102.63 376.32 101.016 376.029C99.4352 375.771 95.8532 375.416 93.1103 375.255C90.3673 375.126 85.4946 374.739 82.2676 374.448C74.2646 373.738 33.8627 373.9 24.8594 374.706C18.3731 375.287 14.8234 375.384 14.5653 374.997C14.4685 374.835 14.3717 326.85 14.3394 268.345C14.3071 183.797 14.3717 161.854 14.6944 161.467C14.9848 161.112 15.4366 161.047 16.2756 161.176C18.0182 161.467 18.2441 160.983 18.4377 156.594C18.5345 154.464 18.8572 151.915 19.1153 150.882C19.793 148.042 19.8898 148.075 12.8873 148.075C7.17548 148.075 6.88505 148.107 5.40063 148.881C3.52898 149.849 2.49634 150.914 1.36689 153.044L0.495605 154.625V268.474V382.354L1.39916 384C2.59315 386.227 4.52935 387.872 6.98186 388.744C9.4021 389.583 10.6606 389.615 15.6625 388.97C17.6955 388.679 21.6324 388.324 24.3753 388.163C27.1183 388.001 32.2169 387.646 35.6698 387.356C40.8653 386.904 44.8345 386.84 58.5815 387.001C67.7138 387.098 76.2331 387.324 77.4594 387.485C78.7179 387.646 82.0417 387.905 84.8814 388.001C87.7212 388.131 91.7227 388.421 93.7557 388.679C95.7887 388.97 99.1125 389.292 101.113 389.454C103.146 389.615 105.857 389.97 107.148 390.26C108.471 390.519 110.439 390.744 111.569 390.744C112.698 390.777 114.537 391.003 115.699 391.261C116.861 391.519 119.023 391.874 120.54 392.035C122.056 392.197 123.993 392.552 124.864 392.81C125.735 393.1 126.897 393.326 127.445 393.326C128.349 393.326 130.705 393.81 136.352 395.165C137.514 395.456 139.095 395.779 139.902 395.908C141.87 396.23 145.549 397.134 147.324 397.747C148.13 398.005 149.454 398.328 150.293 398.489C151.099 398.651 152.229 399.005 152.777 399.264C153.294 399.554 154.165 399.78 154.649 399.78C155.133 399.812 156.133 400.038 156.843 400.296C157.553 400.587 158.65 400.909 159.296 401.071C159.909 401.232 160.877 401.587 161.393 401.878C161.91 402.136 162.62 402.362 162.942 402.362C163.265 402.362 164.136 402.62 164.879 402.975C166.137 403.523 166.847 403.814 169.364 404.653C169.913 404.846 170.945 405.298 171.591 405.621C172.236 405.944 173.043 406.234 173.366 406.234C173.688 406.234 174.301 406.524 174.753 406.879C175.205 407.234 175.754 407.525 176.012 407.525C176.238 407.525 176.98 407.783 177.625 408.106C183.434 411.074 184.241 411.333 187.822 411.752C193.567 412.365 196.794 411.881 199.924 409.848C201.731 408.654 206.668 406.137 210.895 404.233C211.702 403.878 212.896 403.297 213.542 402.975C214.187 402.62 214.961 402.362 215.252 402.362C215.51 402.362 216.285 402.071 216.93 401.716C217.608 401.361 218.414 401.071 218.705 401.071C219.027 401.071 219.899 400.813 220.641 400.458C222.577 399.619 226.127 398.489 226.805 398.489C227.127 398.489 227.934 398.199 228.644 397.844C229.354 397.489 230.257 397.198 230.709 397.198C231.129 397.198 232.161 396.908 233 396.553C233.839 396.198 234.904 395.908 235.356 395.908C235.84 395.908 237.163 395.617 238.26 395.262C239.39 394.907 240.713 394.617 241.197 394.617C241.681 394.617 242.939 394.326 243.972 393.971C245.005 393.616 246.457 393.326 247.167 393.326C247.909 393.326 249.426 393.036 250.523 392.681C251.652 392.326 253.201 392.035 253.976 392.035C254.718 392.035 256.493 391.745 257.88 391.39C259.3 391.035 261.237 390.744 262.205 390.744C263.173 390.744 264.786 390.519 265.754 390.26C266.722 390.002 269.336 389.647 271.563 389.454C273.79 389.292 276.403 388.97 277.371 388.808C278.34 388.615 281.341 388.324 283.987 388.163C286.665 388.034 291.473 387.646 294.733 387.356C302.929 386.614 331.843 386.807 336.07 387.646C337.716 387.969 340.556 388.195 343.363 388.195C347.849 388.227 347.978 388.227 349.366 387.324C351.205 386.162 352.044 385.226 353.303 382.838L354.335 380.902V265.666V150.43L353.496 149.333C353.012 148.72 351.98 147.913 351.173 147.494C349.753 146.784 349.495 146.784 341.072 146.848L332.392 146.945V153.722V160.499L336.522 160.531C339.749 160.531 340.75 160.628 340.976 161.015C341.427 161.725 341.363 348.051 340.911 348.342C340.685 348.471 336.651 348.535 331.94 348.503C327.229 348.471 321.259 348.6 318.677 348.794C316.095 348.987 311.384 349.278 308.189 349.439C304.995 349.6 301.154 349.955 299.638 350.213C298.121 350.504 296.088 350.73 295.088 350.73C294.087 350.73 291.828 351.02 290.118 351.375C288.408 351.73 286.439 352.02 285.794 352.02C285.149 352.02 283.503 352.311 282.083 352.666C280.695 353.021 279.082 353.311 278.501 353.311C277.92 353.311 276.5 353.602 275.371 353.957C274.274 354.312 272.918 354.602 272.402 354.602C271.886 354.602 270.498 354.893 269.336 355.215C267.336 355.796 266.4 356.054 263.108 356.893C262.334 357.087 260.849 357.506 259.784 357.861C258.719 358.184 257.558 358.474 257.203 358.474C256.848 358.507 255.977 358.765 255.267 359.12C254.557 359.475 253.685 359.765 253.33 359.765C252.975 359.765 252.104 360.056 251.394 360.411C250.684 360.766 249.748 361.056 249.297 361.056C248.845 361.056 248.07 361.347 247.522 361.701C247.006 362.056 246.231 362.347 245.812 362.347C245.424 362.347 244.521 362.637 243.811 362.992C243.101 363.347 242.326 363.638 242.036 363.638C241.746 363.638 240.971 363.928 240.261 364.283C239.551 364.638 238.744 364.928 238.422 364.928C238.099 364.928 237.486 365.219 237.034 365.574C236.582 365.929 235.937 366.219 235.582 366.219C235.227 366.219 234.582 366.51 234.13 366.865C233.678 367.22 233.162 367.51 232.968 367.51C232.097 367.51 216.672 375.029 213.832 376.804C212.251 377.772 211.218 377.966 211.218 377.256C211.218 377.094 211.702 376.417 212.283 375.707C212.864 375.029 213.703 373.867 214.187 373.157C215.51 371.124 220.899 365.864 224.191 363.38C225.836 362.121 227.514 360.798 227.902 360.443C228.289 360.056 228.708 359.765 228.805 359.765C228.902 359.765 229.773 359.184 230.741 358.474C231.71 357.765 232.549 357.184 232.645 357.184C232.71 357.184 233.646 356.635 234.678 355.957C235.711 355.28 236.776 354.602 237.034 354.473C237.292 354.344 238.099 353.892 238.809 353.473C239.519 353.053 242.197 351.666 244.779 350.375C247.36 349.116 250.007 347.793 250.652 347.47C251.297 347.148 252.04 346.857 252.266 346.857C252.491 346.857 253.234 346.567 253.911 346.212C254.557 345.857 255.363 345.567 255.654 345.567C255.977 345.567 256.719 345.276 257.3 344.921C257.88 344.566 258.655 344.276 259.01 344.276C259.365 344.276 260.204 343.985 260.914 343.63C261.624 343.275 262.431 342.985 262.753 342.985C263.076 342.985 264.205 342.694 265.27 342.372C268.562 341.307 272.144 340.403 273.112 340.403C273.628 340.403 274.758 340.177 275.629 339.887C276.5 339.597 278.533 339.242 280.114 339.113C281.728 338.983 284.406 338.596 286.084 338.306C288.763 337.822 291.022 337.789 304.317 337.919C316.031 338.048 319.742 337.983 320.484 337.66C321 337.467 321.839 336.692 322.323 335.982L323.195 334.724V247.724C323.195 194.511 323.324 155.335 323.55 146.848C323.937 131.423 323.969 131.811 321.839 130.262L320.775 129.519L307.608 129.455C300.348 129.423 294.345 129.358 294.281 129.261C294.055 129.035 294.12 93.1835 294.345 92.8608C294.442 92.6994 294.41 92.2799 294.313 91.9249C294.055 91.1182 292.829 91.1182 291.086 91.9572ZM101.178 143.557C102.694 143.912 104.502 144.202 105.211 144.202C105.921 144.202 107.567 144.493 108.858 144.848C110.117 145.203 111.536 145.493 111.988 145.493C112.44 145.493 113.634 145.783 114.634 146.138C115.667 146.493 116.893 146.784 117.377 146.784C117.861 146.784 118.991 147.074 119.894 147.429C120.798 147.784 121.96 148.075 122.476 148.075C122.992 148.075 124.154 148.365 125.057 148.72C125.961 149.075 127.058 149.365 127.51 149.365C127.962 149.365 128.865 149.656 129.575 150.011C130.285 150.366 131.189 150.656 131.641 150.656C132.06 150.656 133.028 150.947 133.803 151.302C134.577 151.657 135.513 151.947 135.868 151.947C136.223 151.947 137.094 152.237 137.804 152.592C138.514 152.947 139.385 153.238 139.74 153.238C140.095 153.238 140.837 153.528 141.354 153.883C141.902 154.238 142.58 154.529 142.903 154.529C143.225 154.529 144.032 154.787 144.678 155.142C145.323 155.464 146.517 156.013 147.324 156.368C148.13 156.723 149.421 157.272 150.228 157.659C151.035 158.014 152.035 158.466 152.487 158.691C152.939 158.885 153.52 159.175 153.778 159.305C154.036 159.466 154.617 159.789 155.069 160.014C156.747 160.918 157.231 161.176 159.489 162.532C160.78 163.306 161.974 164.145 162.2 164.403C162.394 164.661 162.716 164.855 162.878 164.855C163.136 164.855 165.589 166.565 169.429 169.47C171.333 170.889 181.207 180.925 181.207 181.442C181.207 181.538 181.788 182.474 182.498 183.539C183.208 184.604 183.789 185.637 183.789 185.83C183.789 186.024 184.305 186.476 184.918 186.831C185.757 187.347 186.08 187.799 186.241 188.67C186.532 190.155 186.144 270.733 185.725 296.194C185.564 306.584 185.402 328.044 185.402 343.856C185.37 371.092 185.338 372.673 184.789 372.673C184.273 372.673 182.498 370.414 182.498 369.769C182.498 369.124 169.525 356.603 165.33 353.214C162.749 351.149 160.522 349.439 160.393 349.439C160.264 349.439 159.489 348.89 158.65 348.213C156.908 346.793 153.745 344.663 151.003 343.049C149.55 342.21 148.776 341.759 147.582 340.952C147.13 340.661 146.582 340.403 146.388 340.403C146.227 340.403 145.581 340.081 145 339.661C143.968 338.983 137.74 335.853 134.9 334.595C134.19 334.304 132.964 333.723 132.157 333.336C131.35 332.981 130.576 332.659 130.447 332.659C130.285 332.659 129.704 332.433 129.156 332.207C127.833 331.594 124.606 330.464 123.089 330.077C122.476 329.916 121.508 329.561 120.991 329.27C120.475 329.012 119.733 328.786 119.346 328.786C118.958 328.786 117.894 328.496 116.99 328.141C116.086 327.786 114.989 327.495 114.57 327.495C114.15 327.495 113.053 327.205 112.15 326.85C111.246 326.495 110.052 326.205 109.471 326.205C108.89 326.205 107.341 325.914 106.018 325.559C104.695 325.204 103.017 324.914 102.307 324.914C101.597 324.914 99.532 324.623 97.7571 324.301C95.1755 323.817 92.8198 323.655 86.4627 323.591C82.0417 323.558 78.0725 323.397 77.653 323.236L76.8785 322.945L77.1044 269.797C77.4916 168.663 77.6852 143.912 78.1048 143.234C78.2338 143.04 81.9449 142.911 88.3666 142.911C97.1763 142.911 98.7898 143.008 101.178 143.557ZM310.222 233.558C310.255 283.35 310.158 324.204 310.029 324.333C309.867 324.494 304.672 324.688 298.476 324.785C290.764 324.881 286.084 325.107 283.664 325.462C281.728 325.721 278.888 326.075 277.371 326.237C275.855 326.366 273.919 326.721 273.047 326.979C272.176 327.269 270.982 327.495 270.433 327.495C269.853 327.495 268.562 327.786 267.529 328.141C266.497 328.496 265.27 328.786 264.818 328.786C264.367 328.786 263.205 329.077 262.269 329.432C261.333 329.787 260.236 330.077 259.817 330.077C259.397 330.077 258.429 330.367 257.655 330.722C256.88 331.077 255.944 331.368 255.557 331.368C255.202 331.368 254.299 331.658 253.556 332.013C252.846 332.368 252.007 332.659 251.749 332.659C251.459 332.659 250.62 332.949 249.878 333.272C249.103 333.594 247.683 334.208 246.715 334.595C245.069 335.24 242.81 336.241 241.487 336.886C236.647 339.242 231.742 341.823 230.903 342.469C230.645 342.662 230.096 343.017 229.709 343.243C229.289 343.437 228.644 343.824 228.257 344.05C227.869 344.243 226.772 344.986 225.836 345.631C224.901 346.309 224.062 346.857 223.965 346.857C223.836 346.857 219.931 349.633 218.156 350.988C215.768 352.795 208.895 358.797 207.023 360.701C204.216 363.541 201.311 367.123 199.988 369.349C198.665 371.608 198.149 371.415 198.149 368.64C198.181 360.12 198.988 300.808 199.117 297.807C199.214 295.774 199.278 270.41 199.278 241.431L199.311 188.799L200.343 187.379C200.924 186.637 201.569 185.637 201.795 185.185C202.796 183.12 204.926 179.99 205.474 179.764C205.603 179.699 205.732 179.441 205.732 179.183C205.732 178.537 212.412 171.858 215.252 169.663C220.286 165.759 222.577 164.177 227.192 161.467C229.838 159.885 229.999 159.821 230.903 159.401C231.355 159.208 231.935 158.917 232.194 158.788C232.452 158.627 233 158.336 233.42 158.143C233.807 157.917 234.388 157.626 234.711 157.465C235.356 157.142 238.034 155.916 239.454 155.303C240.003 155.077 241.261 154.529 242.262 154.077C243.262 153.625 244.263 153.238 244.456 153.238C244.65 153.238 245.36 152.947 246.07 152.592C246.78 152.237 247.619 151.947 247.974 151.947C248.329 151.947 249.264 151.689 250.007 151.334C250.781 151.011 252.491 150.43 253.814 150.011C255.138 149.624 256.88 149.107 257.687 148.817C258.494 148.559 259.881 148.236 260.752 148.075C261.656 147.913 262.915 147.591 263.56 147.3C264.238 147.01 265.206 146.784 265.754 146.784C266.303 146.784 267.787 146.493 269.046 146.138C270.337 145.783 271.886 145.493 272.531 145.493C273.144 145.493 274.693 145.203 275.919 144.848C277.146 144.493 278.824 144.202 279.63 144.17C280.437 144.17 282.309 143.879 283.825 143.557C286.246 143.04 288.021 142.976 298.347 143.008L310.125 143.073L310.222 233.558ZM340.911 362.508C341.137 362.637 341.266 364.703 341.266 368.285C341.266 372.706 341.169 373.964 340.814 374.254C340.459 374.545 339.652 374.545 337.555 374.287C333.715 373.803 294.571 373.803 289.473 374.287C287.343 374.48 285.342 374.706 285.052 374.803C284.761 374.9 282.373 375.093 279.727 375.255C277.113 375.448 273.564 375.803 271.886 376.062C270.208 376.32 268.013 376.513 267.045 376.546C266.077 376.546 263.754 376.836 261.882 377.191C260.01 377.546 257.913 377.836 257.203 377.836C256.493 377.836 254.879 378.127 253.653 378.482C252.427 378.837 250.813 379.127 250.103 379.127C249.393 379.127 248.006 379.353 247.038 379.611C246.07 379.869 244.392 380.257 243.327 380.45C242.294 380.612 241.261 380.902 241.068 381.063C240.648 381.418 235.743 382.451 235.517 382.257C235.13 381.838 236.389 380.676 237.744 380.224C238.583 379.966 239.358 379.579 239.454 379.418C239.583 379.256 239.971 379.127 240.358 379.127C240.745 379.127 241.423 378.837 241.875 378.482C242.326 378.127 242.939 377.836 243.262 377.836C243.617 377.836 244.263 377.643 244.714 377.385C245.198 377.126 246.457 376.546 247.522 376.126C249.361 375.384 250.136 375.093 252.62 374.254C253.169 374.029 254.169 373.674 254.783 373.383C255.396 373.125 256.428 372.802 257.041 372.641C257.655 372.512 258.913 372.157 259.784 371.866C260.688 371.544 261.85 371.157 262.366 370.995C262.915 370.802 263.915 370.511 264.625 370.35C265.335 370.188 266.787 369.769 267.852 369.414C268.917 369.059 270.24 368.801 270.756 368.769C271.305 368.769 272.305 368.543 273.015 368.285C273.725 368.026 275.177 367.671 276.242 367.51C277.307 367.381 278.985 367.026 279.953 366.736C280.921 366.445 282.373 366.219 283.18 366.219C283.987 366.219 285.729 365.929 287.052 365.574C288.376 365.219 290.118 364.928 290.925 364.928C291.732 364.928 293.991 364.638 295.927 364.283C297.895 363.928 300.412 363.638 301.574 363.638C302.736 363.638 305.124 363.38 306.898 363.089C311.545 362.347 339.878 361.863 340.911 362.508Z" fill="url(#paint1_linear_160_328)"/>
<defs>
<linearGradient id="paint0_linear_160_328" x1="188.947" y1="211.687" x2="188.947" y2="-0.000259399" gradientUnits="userSpaceOnUse">
<stop stop-color="#549FFF"/>
<stop offset="1" stop-color="#9626FB"/>
</linearGradient>
<linearGradient id="paint1_linear_160_328" x1="177.415" y1="412" x2="177.415" y2="91.3239" gradientUnits="userSpaceOnUse">
<stop stop-color="#549FFF"/>
<stop offset="1" stop-color="#9626FB"/>
</linearGradient>
</defs>
</svg>
