<svg width="2536" height="959" viewBox="0 0 2536 959" fill="none" xmlns="http://www.w3.org/2000/svg">
<path d="M441.906 0.948795C440.704 1.47443 438.677 2.30042 437.4 2.75096C430.942 4.92857 429.666 5.4542 426.662 6.73074C424.935 7.55673 422.683 8.15745 421.781 8.15745C420.88 8.15745 419.003 8.83326 417.651 9.65925C416.3 10.4852 414.648 11.1611 413.897 11.1611C413.221 11.1611 411.344 11.8369 409.767 12.6629C408.265 13.4889 406.388 14.1647 405.637 14.1647C404.961 14.1647 403.084 14.8405 401.507 15.6665C400.005 16.4925 397.978 17.1683 397.002 17.1683C396.101 17.1683 394.524 17.6939 393.548 18.3697C392.571 19.0455 390.769 19.8715 389.418 20.1719C386.189 20.9979 380.181 23.1004 376.502 24.7524C374.775 25.5784 372.823 26.1791 372.147 26.1791C371.471 26.1791 369.594 26.8549 367.942 27.6809C366.29 28.5069 364.488 29.1827 363.887 29.1827C363.211 29.1827 361.259 29.7834 359.532 30.6094C357.73 31.3603 355.176 32.4116 353.9 32.8621C352.548 33.3127 350.296 34.0636 349.019 34.5141C347.667 34.9646 345.114 36.0159 343.312 36.7668C341.585 37.5928 339.558 38.1935 338.807 38.1935C338.131 38.1935 336.254 38.8693 334.677 39.6953C333.175 40.5213 331.373 41.1971 330.772 41.1971C330.171 41.1971 328.219 41.7978 326.492 42.6238C324.69 43.3747 322.062 44.426 320.635 44.9516C314.102 47.2043 311.849 48.1054 309.597 49.0816C308.32 49.6823 306.818 50.2079 306.218 50.2079C305.692 50.2079 303.965 50.8838 302.388 51.7097C300.886 52.5357 298.859 53.2115 297.958 53.2115C296.982 53.2115 295.255 53.8874 293.978 54.7134C292.777 55.5393 290.974 56.2152 290.073 56.2152C289.097 56.2152 287.295 56.891 285.943 57.717C284.592 58.5429 282.865 59.2188 282.114 59.2188C281.438 59.2188 279.561 59.8946 278.059 60.7206C276.482 61.5466 274.53 62.2224 273.704 62.2224C272.878 62.2224 271.075 62.8982 269.724 63.7242C268.372 64.5502 266.645 65.226 265.819 65.226C264.993 65.226 263.266 65.9018 261.914 66.7278C260.563 67.5538 258.836 68.2296 258.085 68.2296C257.409 68.2296 255.532 68.9054 254.03 69.7314C252.453 70.5574 250.651 71.2332 250.05 71.2332C249.45 71.2332 247.572 71.8339 245.92 72.6599C244.268 73.4108 241.79 74.4621 240.514 74.9126C234.657 76.94 233.005 77.5408 230.076 78.8173C228.349 79.6433 226.322 80.244 225.571 80.244C224.82 80.244 223.018 80.9198 221.666 81.7458C220.315 82.5718 218.587 83.2476 217.761 83.2476C216.935 83.2476 215.208 83.9234 213.857 84.7494C212.505 85.5754 210.778 86.2512 210.102 86.2512C209.351 86.2512 207.249 86.927 205.372 87.753C203.494 88.579 200.491 89.9306 198.613 90.7566C196.736 91.5826 194.559 92.2584 193.733 92.2584C192.907 92.2584 191.18 92.9342 189.828 93.7602C188.476 94.5862 186.674 95.262 185.923 95.262C185.172 95.262 183.145 95.8628 181.418 96.6888C179.691 97.4397 177.138 98.4909 175.711 99.0165C174.284 99.4671 172.107 100.293 170.83 100.669C169.629 101.119 167.376 102.095 165.874 102.846C164.372 103.672 162.495 104.273 161.669 104.273C160.918 104.273 159.041 104.949 157.464 105.775C155.962 106.601 154.085 107.276 153.409 107.276C152.658 107.276 150.931 107.952 149.58 108.778C148.228 109.604 146.501 110.28 145.675 110.28C144.849 110.28 143.047 110.956 141.545 111.782C140.043 112.608 138.316 113.284 137.565 113.284C136.889 113.284 135.012 113.959 133.435 114.785C131.933 115.611 130.056 116.287 129.38 116.287C128.629 116.287 126.902 116.963 125.551 117.789C124.199 118.615 122.397 119.291 121.571 119.291C120.67 119.291 118.718 119.892 117.216 120.718C115.714 121.469 113.536 122.445 112.26 122.895C111.058 123.271 108.806 124.097 107.379 124.547C105.952 125.073 103.324 126.124 101.522 126.875C99.7948 127.701 97.7674 128.302 97.0165 128.302C96.3407 128.302 94.6136 128.978 93.262 129.804C91.9104 130.63 90.2584 131.305 89.5075 131.305C88.8317 131.305 86.9544 131.981 85.3775 132.807C83.8757 133.633 81.8483 134.309 80.8721 134.309C78.6945 134.309 77.3429 135.661 77.3429 137.838C77.3429 139.19 77.8685 139.715 79.5956 140.091C80.8721 140.316 82.0735 140.842 82.3739 141.292C82.6743 141.743 82.9746 172.305 83.0497 209.174L83.275 276.229L81.0974 277.356C79.8959 277.956 77.9436 278.482 76.7421 278.482C74.7147 278.482 66.9053 284.039 63.6014 287.793C59.2461 292.899 57.6692 295.978 57.2938 300.258C56.9183 304.163 57.0685 305.064 59.0959 308.293C60.3725 310.32 62.9255 313.474 64.8028 315.426C66.7551 317.304 68.332 319.256 68.332 319.631C68.332 320.007 67.8064 321.584 67.2057 323.01C66.605 324.512 66.0793 327.366 66.0793 329.318C66.0793 331.27 65.5537 334.8 64.8779 337.052C64.2021 339.305 63.4512 344.186 63.0757 347.94C62.7754 351.62 61.9494 357.552 61.2736 361.081C60.5978 364.61 60.0721 369.792 60.0721 372.72C60.0721 375.574 59.5465 381.356 58.8707 385.486C58.27 389.615 57.444 399.602 56.9934 407.637C56.618 415.672 55.9422 425.509 55.5667 429.413C55.1162 433.318 54.5154 447.51 54.0649 460.951C53.6895 474.392 53.1638 486.557 52.8635 487.984C52.5631 489.861 52.7133 490.912 53.4642 491.588C54.6656 492.564 132.985 493.015 134.562 492.038C135.538 491.438 134.862 444.807 133.66 433.168C133.21 429.263 132.609 419.426 132.234 411.392C131.783 403.357 130.957 393.896 130.357 390.366C129.681 386.837 129.155 381.806 129.155 379.103C129.155 376.4 128.479 370.167 127.653 365.211C126.827 360.255 126.151 354.473 126.151 352.446C126.151 350.343 125.626 346.964 124.95 344.937C124.349 342.834 123.523 337.953 123.223 333.974C122.847 329.994 122.022 325.714 121.346 324.437C119.318 320.608 119.769 317.229 122.547 314.901C129.455 309.044 130.957 301.61 126.902 293.5C123.523 286.817 114.287 279.608 107.154 278.107C106.027 277.881 104.45 277.055 103.624 276.229C102.123 274.728 102.123 273.451 102.123 212.403C102.123 142.644 101.672 147.825 107.604 150.679C111.734 152.631 117.516 154.583 121.271 155.259C122.923 155.559 125.551 156.385 127.203 157.061C128.78 157.812 130.582 158.338 131.183 158.338C131.783 158.338 133.66 159.014 135.312 159.84C137.04 160.666 139.217 161.341 140.118 161.341C141.019 161.341 143.197 162.017 144.999 162.843C146.801 163.669 149.129 164.345 150.18 164.345C151.232 164.345 153.334 165.021 154.911 165.847C156.413 166.673 158.515 167.349 159.567 167.349C160.618 167.349 162.795 168.024 164.447 168.85C166.099 169.676 168.277 170.352 169.328 170.352C170.38 170.352 172.557 171.028 174.209 171.854C175.861 172.68 177.663 173.356 178.339 173.356C179.691 173.356 187.275 175.684 193.357 177.936C195.46 178.762 197.787 179.363 198.613 179.363C199.439 179.363 201.617 180.039 203.419 180.865C205.221 181.691 207.399 182.367 208.3 182.367C209.201 182.367 211.379 183.042 213.106 183.868C214.758 184.694 216.71 185.37 217.311 185.37C217.987 185.37 220.239 186.046 222.417 186.872C224.595 187.698 227.073 188.374 227.899 188.374C228.725 188.449 230.752 189.05 232.404 189.876C234.056 190.702 236.234 191.377 237.285 191.377C238.336 191.377 240.514 192.053 242.166 192.879C243.818 193.705 245.77 194.306 246.521 194.381C247.347 194.381 248.999 194.907 250.275 195.507C252.603 196.559 256.508 197.835 263.566 199.637C265.444 200.163 268.372 201.214 270.174 201.965C271.901 202.716 274.229 203.392 275.281 203.392C276.257 203.392 278.434 204.068 280.086 204.894C281.738 205.72 283.841 206.395 284.742 206.395C285.718 206.395 287.52 206.921 288.722 207.597C289.998 208.198 292.326 209.024 293.978 209.399C297.057 210.075 301.562 211.502 308.245 213.98C310.348 214.806 312.826 215.406 313.727 215.406C314.703 215.406 316.88 216.082 318.532 216.908C320.26 217.734 322.437 218.41 323.413 218.41C324.389 218.41 326.492 219.086 328.144 219.912C329.796 220.738 331.899 221.413 332.8 221.413C333.776 221.413 335.503 221.939 336.779 222.615C337.981 223.216 340.609 224.117 342.636 224.567C344.664 224.943 347.217 225.769 348.268 226.369C349.395 226.97 351.046 227.421 352.023 227.421C352.924 227.421 355.026 228.097 356.678 228.923C358.33 229.749 360.508 230.424 361.559 230.424C362.61 230.424 364.788 231.1 366.44 231.926C368.092 232.752 370.119 233.428 371.096 233.428C371.997 233.428 374.475 234.029 376.577 234.855C378.605 235.606 382.885 237.032 385.963 237.933C389.042 238.834 393.322 240.261 395.35 241.012C397.452 241.838 399.93 242.439 400.831 242.439C401.807 242.439 403.835 243.115 405.487 243.941C407.139 244.767 409.241 245.442 410.142 245.442C411.119 245.442 413.371 246.118 415.174 246.944C416.976 247.77 419.228 248.446 420.205 248.446C421.256 248.446 423.358 249.122 425.01 249.948C426.662 250.774 428.54 251.45 429.29 251.45C430.942 251.45 439.202 254.078 443.633 256.03C447.763 257.832 451.367 257.832 455.046 255.955C456.698 255.129 458.651 254.453 459.477 254.453C460.228 254.453 462.33 253.777 464.132 252.951C465.934 252.125 468.112 251.45 468.938 251.45C469.764 251.45 471.791 250.774 473.443 249.948C475.095 249.122 477.123 248.446 477.949 248.446C478.775 248.446 480.952 247.77 482.755 246.944C484.557 246.118 486.659 245.442 487.485 245.442C488.236 245.442 489.963 244.842 491.315 244.166C492.667 243.49 494.919 242.664 496.346 242.364C499.274 241.763 505.132 239.811 509.111 238.084C510.538 237.483 512.941 236.732 514.368 236.432C517.521 235.756 523.378 233.728 527.734 231.851C529.461 231.025 531.638 230.424 532.464 230.424C533.29 230.424 535.243 229.749 536.895 228.923C538.547 228.097 540.574 227.421 541.4 227.421C542.226 227.421 544.253 226.745 545.905 225.919C547.557 225.093 549.585 224.417 550.411 224.417C551.237 224.417 553.264 223.741 554.916 222.915C556.568 222.089 558.596 221.413 559.422 221.413C560.248 221.413 562.275 220.738 563.927 219.912C565.579 219.086 567.607 218.41 568.433 218.41C569.334 218.41 571.061 217.809 572.412 217.133C573.764 216.458 576.017 215.632 577.443 215.331C580.672 214.655 586.529 212.628 590.809 210.826C592.536 210 594.714 209.399 595.54 209.399C596.366 209.399 598.318 208.723 599.97 207.897C601.622 207.071 603.65 206.395 604.476 206.395C605.302 206.395 607.329 205.72 608.981 204.894C610.633 204.068 612.661 203.392 613.487 203.392C614.313 203.392 616.34 202.716 617.992 201.89C619.644 201.064 621.671 200.388 622.497 200.388C623.323 200.388 625.351 199.712 627.003 198.886C628.655 198.06 630.682 197.385 631.508 197.385C632.334 197.385 634.362 196.709 636.014 195.883C637.666 195.057 639.693 194.381 640.519 194.381C641.42 194.381 643.147 193.78 644.499 193.105C645.85 192.429 648.103 191.603 649.53 191.302C652.759 190.627 658.616 188.599 662.896 186.797C664.623 185.971 666.801 185.37 667.627 185.37C668.453 185.37 670.405 184.694 672.057 183.868C673.709 183.042 675.811 182.367 676.788 182.367C677.764 182.367 679.941 181.691 681.668 180.865C683.32 180.039 685.423 179.363 686.324 179.363C687.225 179.363 688.952 178.837 690.304 178.086C691.655 177.411 693.758 176.66 694.959 176.284C697.362 175.684 702.544 173.957 708.401 171.779C710.428 170.953 712.681 170.352 713.507 170.352C714.258 170.352 716.21 169.676 717.862 168.85C719.514 168.024 721.466 167.349 722.217 167.349C722.968 167.349 724.996 166.673 726.723 165.847C728.375 165.021 730.402 164.345 731.228 164.345C731.979 164.345 734.006 163.669 735.733 162.843C737.385 162.017 739.488 161.341 740.389 161.341C741.215 161.341 743.242 160.666 744.894 159.84C746.546 159.014 748.499 158.338 749.325 158.338C750.151 158.338 752.328 157.662 754.281 156.836C756.233 156.01 758.411 155.334 759.237 155.334C760.063 155.334 762.015 154.658 763.667 153.832C765.319 153.006 767.346 152.331 768.172 152.331C768.998 152.331 771.026 151.655 772.678 150.829C774.33 150.003 776.432 149.327 777.333 149.327C778.31 149.252 780.412 148.651 782.064 147.825C783.716 146.999 785.668 146.398 786.419 146.323C787.17 146.323 789.047 145.648 790.699 144.822C792.351 143.996 794.529 143.32 795.58 143.32C796.632 143.32 798.734 142.644 800.236 141.818C801.813 140.992 803.84 140.316 804.741 140.316C805.717 140.316 807.745 139.64 809.247 138.814C810.824 137.988 812.776 137.313 813.602 137.313C814.428 137.313 815.704 136.787 816.455 136.186C817.281 135.661 819.159 134.91 820.811 134.684C822.387 134.384 823.964 133.858 824.19 133.408C824.941 132.206 822.162 129.804 818.933 128.978C817.206 128.527 814.278 127.476 812.325 126.725C810.373 125.899 808.12 125.298 807.219 125.298C806.393 125.298 804.366 124.622 802.714 123.796C801.062 122.97 799.034 122.294 798.208 122.294C797.382 122.294 795.355 121.619 793.703 120.793C792.051 119.967 789.873 119.291 788.822 119.291C787.771 119.291 785.593 118.615 783.941 117.789C782.289 116.963 780.262 116.287 779.436 116.287C778.61 116.287 776.582 115.611 774.93 114.785C773.278 113.959 771.326 113.284 770.5 113.284C769.674 113.284 767.497 112.608 765.544 111.782C763.592 110.956 761.414 110.28 760.588 110.28C759.762 110.28 757.81 109.604 756.158 108.778C754.506 107.952 752.403 107.276 751.502 107.276C750.526 107.201 748.424 106.601 746.772 105.775C745.12 104.949 743.017 104.348 742.191 104.273C741.29 104.273 739.112 103.597 737.31 102.771C735.508 101.945 733.331 101.269 732.505 101.269C731.679 101.269 729.651 100.593 727.999 99.7674C726.347 98.9415 724.245 98.3407 723.268 98.2656C722.367 98.2656 720.265 97.5898 718.613 96.7638C716.961 95.9379 715.084 95.262 714.333 95.262C713.582 95.262 711.705 94.5862 710.128 93.7602C708.626 92.9342 706.674 92.2584 705.848 92.2584C705.022 92.2584 703.069 91.5826 701.567 90.7566C699.99 89.9306 698.038 89.2548 697.212 89.2548C696.386 89.2548 694.434 88.579 692.857 87.753C691.355 86.927 689.403 86.2512 688.577 86.2512C687.676 86.2512 685.723 85.5754 684.071 84.7494C682.419 83.9234 680.392 83.2476 679.566 83.2476C678.74 83.2476 676.713 82.5718 675.061 81.7458C673.409 80.9198 671.456 80.244 670.63 80.244C669.804 80.244 667.927 79.5682 666.425 78.7422C664.923 77.9162 663.046 77.2404 662.22 77.2404C661.394 77.2404 659.442 76.5646 657.79 75.7386C656.138 74.9126 654.336 74.2368 653.66 74.2368C652.984 74.2368 651.182 73.561 649.53 72.735C647.878 71.909 646.001 71.2332 645.25 71.2332C644.499 71.2332 642.622 70.5574 641.045 69.7314C639.543 68.9054 637.515 68.2296 636.614 68.2296C635.638 68.2296 633.911 67.5538 632.635 66.7278C631.433 65.9018 629.631 65.226 628.73 65.226C627.754 65.226 625.952 64.5502 624.6 63.7242C623.248 62.8982 621.371 62.2224 620.47 62.2224C619.494 62.2224 617.692 61.5466 616.34 60.7206C614.988 59.8946 613.036 59.2188 611.985 59.2188C610.934 59.2188 609.131 58.5429 607.855 57.717C606.653 56.891 604.926 56.2152 604.1 56.2152C603.274 56.2152 601.322 55.5393 599.745 54.7134C598.243 53.8874 596.441 53.2115 595.84 53.2115C595.165 53.2115 593.212 52.5357 591.56 51.7097C589.833 50.8838 587.806 50.2079 587.055 50.2079C586.379 50.2079 584.652 49.5321 583.3 48.7061C581.949 47.8801 580.147 47.2043 579.321 47.2043C578.495 47.1292 576.467 46.5285 574.815 45.7025C573.163 44.8765 571.361 44.2758 570.76 44.2007C570.16 44.2007 568.357 43.6 566.63 42.774C563.777 41.4975 562.5 41.0469 556.268 38.8693C554.916 38.4188 552.363 37.3675 550.561 36.6166C548.834 35.7906 546.807 35.1899 546.131 35.1899C545.455 35.1899 543.578 34.5892 541.851 33.7632C540.124 33.0123 537.796 32.0361 536.519 31.5856C535.318 31.2101 533.065 30.3841 531.638 29.9336C530.212 29.408 527.583 28.3567 525.781 27.6058C524.054 26.7798 522.102 26.1791 521.426 26.1791C520.825 26.1791 519.023 25.5033 517.371 24.6773C515.719 23.8513 513.842 23.1755 513.091 23.1755C512.34 23.1004 510.388 22.4997 508.736 21.6737C507.084 20.8477 505.132 20.247 504.381 20.1719C503.705 20.1719 501.828 19.4961 500.326 18.6701C498.749 17.8441 496.797 17.1683 495.971 17.1683C495.145 17.1683 493.342 16.4925 491.991 15.6665C490.639 14.8405 488.837 14.1647 488.011 14.1647C487.185 14.1647 485.233 13.4889 483.581 12.6629C481.929 11.8369 480.127 11.1611 479.451 11.1611C478.775 11.1611 476.973 10.4852 475.321 9.65925C473.669 8.83326 471.641 8.15745 470.815 8.15745C469.989 8.15745 467.962 7.48164 466.31 6.65565C464.658 5.82966 462.781 5.15384 462.03 5.15384C461.279 5.07875 459.327 4.47803 457.675 3.65204C456.023 2.82605 453.995 2.22533 453.094 2.15024C452.268 2.15024 450.916 1.62461 450.09 1.02389C448.363 -0.327738 444.909 -0.327738 441.906 0.948795Z" fill="url(#paint0_linear_161_379)"/>
<path d="M676.187 213.979C674.535 214.73 672.207 215.406 671.081 215.406C669.954 215.406 667.702 216.081 666.05 216.907C664.398 217.733 662.295 218.409 661.244 218.409C660.268 218.409 658.015 219.085 656.213 219.911C654.411 220.737 651.933 221.413 650.806 221.413C649.68 221.413 647.427 222.089 645.775 222.915C644.123 223.741 642.021 224.416 640.97 224.416C639.993 224.416 637.741 225.092 635.939 225.918C634.136 226.744 631.809 227.42 630.757 227.42C629.706 227.42 627.528 228.096 625.877 228.922C624.225 229.748 621.897 230.349 620.77 230.424C619.644 230.424 617.617 231.024 616.265 231.7C614.913 232.376 612.661 233.202 611.234 233.502C609.807 233.728 607.104 234.479 605.227 235.154C595.54 238.383 591.936 239.434 590.359 239.434C589.383 239.434 587.205 240.11 585.553 240.936C583.826 241.762 581.348 242.438 580.147 242.438C578.87 242.513 576.467 243.114 574.815 243.94C573.163 244.766 570.835 245.367 569.709 245.442C568.583 245.442 566.33 246.117 564.678 246.943C563.026 247.769 560.773 248.445 559.647 248.445C558.521 248.52 556.193 249.121 554.541 249.947C552.889 250.773 550.711 251.449 549.66 251.449C548.609 251.449 546.431 252.125 544.779 252.951C543.127 253.777 541.025 254.377 540.048 254.452C539.147 254.452 537.045 255.128 535.393 255.954C533.741 256.78 531.713 257.456 530.887 257.456C530.061 257.456 528.034 258.132 526.382 258.958C524.73 259.784 522.778 260.46 522.027 260.46C521.201 260.46 519.248 260.985 517.672 261.736C516.02 262.412 513.542 263.163 512.115 263.463C510.688 263.764 507.835 264.59 505.732 265.341C503.705 266.016 501.002 266.917 499.725 267.368C498.524 267.819 495.82 268.645 493.718 269.17C491.69 269.771 488.912 270.747 487.56 271.348C486.284 271.948 484.482 272.474 483.656 272.474C482.755 272.474 480.727 273.15 479.075 273.976C477.423 274.802 475.471 275.478 474.645 275.478C473.894 275.478 471.791 276.154 469.989 276.98C468.187 277.806 466.01 278.481 465.184 278.481C464.358 278.481 462.706 279.007 461.504 279.608C460.303 280.284 458.05 281.109 456.623 281.41C455.121 281.785 452.869 282.536 451.517 283.062C449.415 283.888 448.739 283.888 446.411 282.761C444.909 282.086 443.107 281.485 442.356 281.485C441.605 281.485 439.503 280.809 437.701 279.983C435.898 279.157 433.571 278.481 432.519 278.481C431.468 278.481 429.29 277.806 427.638 276.98C425.986 276.154 423.884 275.553 422.983 275.478C422.082 275.478 419.829 274.802 417.877 273.976C415.924 273.15 413.522 272.474 412.545 272.474C411.494 272.474 409.392 271.798 407.74 270.972C406.088 270.146 403.91 269.471 402.859 269.471C401.807 269.471 399.63 268.795 397.978 267.969C396.326 267.143 394.223 266.467 393.322 266.467C392.346 266.392 390.244 265.791 388.592 264.965C386.94 264.139 384.837 263.538 383.936 263.463C383.035 263.463 380.782 262.787 378.83 261.962C376.878 261.136 374.475 260.46 373.498 260.46C372.447 260.46 370.345 259.784 368.693 258.958C367.041 258.132 364.938 257.456 364.037 257.456C363.061 257.456 361.034 256.78 359.457 255.954C357.955 255.128 355.852 254.452 354.801 254.452C353.675 254.452 351.797 253.852 350.446 253.176C349.094 252.5 346.691 251.674 345.039 251.374C343.387 251.149 340.459 250.323 338.506 249.647C336.479 248.971 333.325 247.92 331.373 247.244C329.345 246.568 326.267 245.742 324.39 245.442C322.512 245.066 320.034 244.315 318.758 243.64C317.556 242.964 315.754 242.438 314.778 242.438C313.877 242.438 311.774 241.762 310.122 240.936C308.47 240.11 306.443 239.434 305.542 239.434C304.641 239.434 302.013 238.834 299.685 238.008C297.357 237.257 292.927 235.83 289.848 234.929C286.769 234.028 282.489 232.601 280.462 231.85C278.359 231.024 275.881 230.424 274.98 230.424C274.079 230.424 272.052 229.898 270.475 229.222C268.973 228.621 266.345 227.795 264.693 227.42C263.041 227.045 260.187 226.294 258.31 225.693C249.45 222.764 244.719 221.413 243.292 221.413C242.466 221.413 240.439 220.737 238.787 219.911C237.135 219.085 235.032 218.409 233.981 218.409C233.005 218.409 230.602 217.733 228.65 216.907C226.697 216.081 224.219 215.406 223.018 215.406C221.891 215.406 220.54 214.88 220.014 214.204C219.413 213.603 218.137 213.153 217.086 213.303C215.359 213.528 215.133 213.829 215.208 216.532C215.283 218.184 215.359 237.632 215.434 259.709C215.584 296.803 215.509 299.882 214.307 300.783C213.331 301.534 206.873 301.609 185.923 301.384C168.052 301.159 157.99 301.309 156.413 301.834C155.061 302.21 153.034 303.712 151.832 305.138L149.58 307.616L149.129 387.813C148.829 431.966 148.453 470.637 148.303 473.716C148.078 476.794 147.702 544.976 147.477 625.098L146.951 770.923L148.679 773.401C151.532 777.531 154.536 779.858 159.041 781.435C162.795 782.787 165.949 783.012 185.097 783.463C197.112 783.688 209.577 784.214 212.881 784.589C216.185 785.04 222.642 785.64 227.148 786.016C231.728 786.466 237.135 787.292 239.162 787.893C241.265 788.569 244.268 789.094 245.92 789.094C247.572 789.094 250.726 789.77 252.904 790.596C255.081 791.422 257.709 792.098 258.761 792.098C259.737 792.098 261.914 792.774 263.566 793.6C265.218 794.426 267.246 795.102 268.072 795.102C268.973 795.102 271.075 795.777 272.727 796.603C274.455 797.429 276.407 798.105 277.083 798.105C277.683 798.105 279.486 798.781 281.062 799.607C282.564 800.433 284.517 801.109 285.343 801.109C286.244 801.109 288.196 801.71 289.698 802.536C291.2 803.287 294.053 804.638 296.081 805.539C306.969 810.42 310.047 811.847 313.877 813.949C314.478 814.325 316.205 815.226 317.631 815.977C319.058 816.803 322.813 818.83 325.891 820.632C328.97 822.359 332.199 824.237 333.025 824.687C333.851 825.138 335.578 826.264 336.93 827.165C338.206 828.141 339.483 828.892 339.783 828.892C340.083 828.892 342.787 830.694 345.79 832.872C348.794 834.975 353.224 838.128 355.552 839.78C366.815 847.665 378.304 857.276 382.735 862.382C384.687 864.785 388.667 869.141 391.52 872.144C394.298 875.148 396.401 877.926 396.101 878.377C395.425 879.578 392.271 879.353 391.22 878.076C390.694 877.476 387.015 875.373 383.035 873.496C379.055 871.619 375.226 869.741 374.55 869.366C373.799 868.99 372.597 868.39 371.922 868.014C371.171 867.639 369.143 866.663 367.491 865.762C365.764 864.936 363.887 864.185 363.361 864.185C362.761 864.185 361.484 863.509 360.433 862.683C359.382 861.857 357.955 861.181 357.204 861.181C356.453 861.181 354.576 860.505 353.074 859.679C350.521 858.328 348.644 857.502 339.633 853.597C337.831 852.771 334.977 851.494 333.25 850.743C331.448 849.917 329.195 849.016 328.144 848.716C327.093 848.491 325.591 847.74 324.765 847.214C323.939 846.614 322.738 846.163 321.987 846.163C321.236 846.163 319.208 845.487 317.481 844.736C310.197 841.507 303.139 838.954 297.357 837.377C295.104 836.702 292.551 835.725 291.725 835.2C290.899 834.599 289.397 834.149 288.271 834.149C287.145 834.149 284.817 833.473 283.015 832.647C281.213 831.821 278.735 831.145 277.608 831.145C276.482 831.145 274.229 830.469 272.577 829.643C270.925 828.817 268.823 828.141 267.772 828.141C266.795 828.141 264.543 827.466 262.74 826.64C260.938 825.814 258.385 825.138 257.034 825.138C255.682 825.138 252.904 824.462 250.801 823.636C248.699 822.81 245.92 822.134 244.569 822.134C243.217 822.059 240.289 821.458 238.036 820.632C235.783 819.806 232.629 819.206 231.052 819.131C229.476 819.131 226.322 818.455 223.994 817.629C221.591 816.803 218.738 816.127 217.611 816.127C216.41 816.127 213.031 815.451 210.102 814.625C207.099 813.799 203.419 813.123 201.917 813.123C200.416 813.123 196.06 812.447 192.156 811.622C188.251 810.796 183.671 810.12 181.868 810.12C180.141 810.12 173.083 809.444 166.099 808.618C157.539 807.642 145.375 806.966 127.653 806.59L101.747 805.99L101.597 660.315C101.447 580.194 101.222 514.189 100.996 513.664C100.621 512.612 72.462 512.312 71.7862 513.438C71.5609 513.814 71.3357 584.849 71.3357 671.353C71.2606 795.252 71.4858 829.118 72.2367 830.694C72.7624 831.896 74.7147 833.623 76.8923 834.749L80.7219 836.777L114.137 837.152C146.426 837.603 159.942 838.429 176.462 840.982C179.165 841.432 183.896 842.108 186.975 842.484C190.053 842.934 195.385 843.91 198.689 844.736C202.068 845.487 206.122 846.163 207.699 846.163C209.351 846.163 212.806 846.839 215.359 847.665C217.987 848.491 221.065 849.167 222.192 849.167C223.318 849.167 226.247 849.842 228.65 850.668C231.052 851.494 234.131 852.17 235.483 852.17C236.834 852.17 239.688 852.846 241.79 853.672C243.893 854.498 246.596 855.174 247.798 855.174C248.999 855.174 251.702 855.85 253.805 856.676C255.907 857.502 258.611 858.177 259.887 858.177C261.088 858.177 263.191 858.778 264.543 859.454C265.894 860.13 268.297 860.956 269.949 861.256C272.878 861.782 280.462 864.335 283.465 865.686C285.042 866.437 292.551 869.141 296.005 870.192C297.132 870.567 298.859 871.393 299.76 871.994C300.661 872.67 302.163 873.195 302.989 873.195C303.815 873.195 305.617 873.871 306.969 874.697C308.32 875.523 309.822 876.199 310.348 876.199C310.873 876.199 312.525 876.875 314.102 877.701C315.604 878.527 317.481 879.203 318.157 879.203C318.908 879.203 320.335 879.878 321.386 880.704C322.437 881.53 323.864 882.206 324.615 882.206C325.441 882.206 326.943 882.657 327.994 883.258C331.598 885.21 338.506 888.213 339.408 888.213C340.759 888.213 346.166 892.268 345.865 893.094C345.49 894.296 342.636 894.371 340.759 893.169C339.783 892.569 337.68 891.893 336.028 891.593C334.376 891.292 330.997 890.466 328.519 889.715C323.564 888.213 313.727 886.111 306.743 885.21C304.265 884.834 301.036 884.234 299.61 883.708C298.183 883.258 293.903 882.582 290.223 882.206C286.469 881.831 281.438 881.005 278.96 880.329C276.557 879.728 272.502 879.203 269.949 879.203C267.471 879.203 261.764 878.527 257.184 877.701C252.678 876.875 247.047 876.199 244.794 876.199C242.541 876.199 237.66 875.673 233.906 874.998C230.226 874.397 221.891 873.571 215.509 873.195C209.126 872.895 197.787 871.994 190.278 871.318C171.656 869.666 77.6432 870.042 56.6931 871.919C41.6 873.271 33.34 873.496 32.7393 872.595C32.514 872.219 32.2888 760.56 32.2137 624.422C32.1386 427.685 32.2888 376.624 33.0397 375.723C33.7155 374.897 34.7667 374.747 36.7191 375.047C40.774 375.723 41.2996 374.597 41.7501 364.384C41.9754 359.429 42.7263 353.496 43.327 351.094C44.9039 344.486 45.1292 344.561 28.8346 344.561C15.5437 344.561 14.8679 344.636 11.4137 346.438C7.05848 348.691 4.65559 351.169 2.02743 356.125L0 359.804V624.722V889.715L2.10252 893.545C4.88086 898.726 9.38627 902.556 15.0931 904.583C20.7249 906.535 23.6534 906.611 35.2924 905.109C40.0231 904.433 49.1841 903.607 55.5667 903.232C61.9494 902.856 73.8136 902.03 81.8483 901.354C93.9378 900.303 103.174 900.153 135.162 900.528C156.413 900.754 176.237 901.279 179.09 901.655C182.019 902.03 189.753 902.631 196.361 902.856C202.969 903.156 212.28 903.832 217.011 904.433C221.741 905.109 229.476 905.86 234.131 906.235C238.862 906.611 245.169 907.437 248.173 908.112C251.252 908.713 255.832 909.239 258.46 909.239C261.088 909.314 265.369 909.839 268.072 910.44C270.775 911.041 275.806 911.867 279.335 912.242C282.865 912.618 287.37 913.444 289.397 914.044C291.425 914.72 294.128 915.246 295.405 915.246C297.507 915.246 302.989 916.372 316.13 919.526C318.833 920.202 322.512 920.953 324.39 921.253C328.97 922.004 337.53 924.107 341.66 925.533C343.537 926.134 346.616 926.885 348.569 927.26C350.446 927.636 353.074 928.462 354.35 929.063C355.552 929.738 357.579 930.264 358.706 930.264C359.832 930.339 362.16 930.865 363.812 931.465C365.464 932.141 368.017 932.892 369.519 933.268C370.945 933.643 373.198 934.469 374.4 935.145C375.601 935.746 377.253 936.271 378.004 936.271C378.755 936.271 380.782 936.872 382.509 937.698C385.438 938.974 387.09 939.65 392.947 941.603C394.223 942.053 396.626 943.104 398.128 943.855C399.63 944.606 401.507 945.282 402.258 945.282C403.009 945.282 404.436 945.958 405.487 946.784C406.538 947.61 407.815 948.286 408.415 948.286C408.941 948.286 410.668 948.886 412.17 949.637C425.686 956.546 427.563 957.146 435.898 958.122C449.264 959.549 456.773 958.423 464.057 953.692C468.262 950.914 479.751 945.057 489.588 940.626C491.465 939.8 494.243 938.449 495.745 937.698C497.247 936.872 499.049 936.271 499.725 936.271C500.326 936.271 502.128 935.595 503.63 934.769C505.207 933.943 507.084 933.268 507.76 933.268C508.511 933.268 510.538 932.667 512.265 931.841C516.77 929.889 525.03 927.26 526.607 927.26C527.358 927.26 529.235 926.585 530.887 925.759C532.539 924.933 534.642 924.257 535.693 924.257C536.669 924.257 539.072 923.581 541.025 922.755C542.977 921.929 545.455 921.253 546.506 921.253C547.633 921.253 550.711 920.577 553.264 919.751C555.892 918.925 558.971 918.25 560.098 918.25C561.224 918.25 564.152 917.574 566.555 916.748C568.958 915.922 572.337 915.246 573.989 915.246C575.716 915.246 579.246 914.57 581.799 913.744C584.427 912.918 588.031 912.242 589.833 912.242C591.56 912.242 595.69 911.567 598.919 910.741C602.223 909.915 606.729 909.239 608.981 909.239C611.234 909.239 614.988 908.713 617.241 908.112C619.494 907.512 625.576 906.686 630.757 906.235C635.939 905.86 642.021 905.109 644.274 904.733C646.526 904.283 653.51 903.607 659.667 903.232C665.9 902.931 677.088 902.03 684.672 901.354C703.745 899.627 771.026 900.078 780.863 902.03C784.692 902.781 791.3 903.307 797.833 903.307C808.271 903.382 808.571 903.382 811.8 901.279C816.08 898.576 818.032 896.398 820.961 890.842L823.364 886.336V618.189V350.042L821.411 347.489C820.285 346.062 817.882 344.185 816.005 343.209C812.701 341.557 812.1 341.557 792.502 341.707L772.302 341.933V357.701V373.47L781.914 373.545C789.423 373.545 791.751 373.771 792.276 374.672C793.328 376.324 793.177 809.894 792.126 810.57C791.6 810.871 782.214 811.021 771.251 810.946C760.288 810.871 746.396 811.171 740.389 811.622C734.382 812.072 723.419 812.748 715.985 813.123C708.551 813.499 699.615 814.325 696.086 814.925C692.557 815.601 687.826 816.127 685.498 816.127C683.17 816.127 677.914 816.803 673.934 817.629C669.954 818.455 665.374 819.131 663.872 819.131C662.37 819.131 658.541 819.806 655.237 820.632C652.008 821.458 648.253 822.134 646.902 822.134C645.55 822.134 642.246 822.81 639.618 823.636C637.065 824.462 633.911 825.138 632.71 825.138C631.508 825.138 628.279 825.814 625.576 826.564C620.921 827.916 618.743 828.517 611.084 830.469C609.282 830.92 605.827 831.896 603.349 832.722C600.871 833.473 598.168 834.149 597.342 834.149C596.516 834.224 594.489 834.824 592.837 835.65C591.185 836.476 589.157 837.152 588.331 837.152C587.505 837.152 585.478 837.828 583.826 838.654C582.174 839.48 579.996 840.156 578.945 840.156C577.894 840.156 576.092 840.832 574.815 841.658C573.614 842.484 571.812 843.159 570.835 843.159C569.934 843.159 567.832 843.835 566.18 844.661C564.528 845.487 562.726 846.163 562.05 846.163C561.374 846.163 559.572 846.839 557.92 847.665C556.268 848.491 554.391 849.167 553.64 849.167C552.889 849.167 551.462 849.842 550.411 850.668C549.36 851.494 547.858 852.17 547.032 852.17C546.206 852.17 544.704 852.846 543.653 853.672C542.602 854.498 541.4 855.174 540.95 855.174C538.922 855.174 503.029 872.67 496.421 876.8C492.742 879.052 490.339 879.503 490.339 877.851C490.339 877.476 491.465 875.899 492.817 874.247C494.168 872.67 496.121 869.967 497.247 868.315C500.326 863.584 512.866 851.344 520.525 845.562C524.355 842.634 528.259 839.555 529.16 838.729C530.061 837.828 531.038 837.152 531.263 837.152C531.488 837.152 533.516 835.801 535.768 834.149C538.021 832.497 539.973 831.145 540.199 831.145C540.349 831.145 542.526 829.868 544.929 828.292C547.332 826.715 549.81 825.138 550.411 824.837C551.012 824.537 552.889 823.486 554.541 822.51C556.193 821.533 562.425 818.305 568.433 815.301C574.44 812.372 580.597 809.294 582.099 808.543C583.601 807.792 585.328 807.116 585.853 807.116C586.379 807.116 588.106 806.44 589.683 805.614C591.185 804.788 593.062 804.112 593.738 804.112C594.489 804.112 596.216 803.437 597.568 802.611C598.919 801.785 600.721 801.109 601.547 801.109C602.373 801.109 604.326 800.433 605.978 799.607C607.63 798.781 609.507 798.105 610.258 798.105C611.009 798.105 613.637 797.429 616.115 796.679C623.774 794.201 632.109 792.098 634.362 792.098C635.563 792.098 638.191 791.572 640.219 790.897C642.246 790.221 646.977 789.395 650.656 789.094C654.411 788.794 660.643 787.893 664.548 787.217C670.78 786.091 676.037 786.016 706.974 786.316C734.232 786.616 742.867 786.466 744.594 785.715C745.795 785.265 747.748 783.463 748.874 781.811L750.902 778.882V576.439C750.902 452.615 751.202 361.456 751.728 341.707C752.629 305.814 752.704 306.715 747.748 303.111L745.27 301.384L714.633 301.234C697.738 301.159 683.771 301.008 683.621 300.783C683.095 300.257 683.245 216.832 683.771 216.081C683.996 215.706 683.921 214.73 683.696 213.904C683.095 212.027 680.242 212.027 676.187 213.979ZM234.281 334.048C237.811 334.874 242.016 335.55 243.668 335.55C245.32 335.55 249.149 336.226 252.153 337.052C255.081 337.878 258.385 338.553 259.437 338.553C260.488 338.553 263.266 339.229 265.594 340.055C267.997 340.881 270.85 341.557 271.977 341.557C273.103 341.557 275.731 342.233 277.834 343.059C279.936 343.885 282.639 344.561 283.841 344.561C285.042 344.561 287.746 345.236 289.848 346.062C291.951 346.888 294.504 347.564 295.555 347.564C296.606 347.564 298.709 348.24 300.361 349.066C302.013 349.892 304.115 350.568 305.166 350.568C306.143 350.568 308.395 351.244 310.197 352.07C312 352.896 314.177 353.572 315.003 353.572C315.829 353.572 317.857 354.247 319.509 355.073C321.161 355.899 323.188 356.575 324.014 356.575C324.84 356.575 326.567 357.251 327.769 358.077C329.045 358.903 330.622 359.579 331.373 359.579C332.124 359.579 334.001 360.179 335.503 361.005C337.005 361.756 339.783 363.033 341.66 363.859C343.537 364.685 346.541 365.961 348.418 366.862C350.296 367.688 352.623 368.74 353.675 369.265C354.726 369.716 356.078 370.392 356.678 370.692C357.279 371.068 358.631 371.818 359.682 372.344C363.587 374.447 364.713 375.047 369.969 378.201C372.973 380.003 375.751 381.956 376.277 382.556C376.727 383.157 377.478 383.608 377.854 383.608C378.454 383.608 384.161 387.587 393.097 394.345C397.527 397.649 420.505 421.002 420.505 422.204C420.505 422.429 421.857 424.607 423.509 427.085C425.16 429.563 426.512 431.966 426.512 432.416C426.512 432.867 427.714 433.918 429.14 434.744C431.093 435.945 431.844 436.997 432.219 439.024C432.895 442.478 431.994 629.978 431.018 689.225C430.642 713.404 430.267 763.339 430.267 800.133C430.192 863.509 430.116 867.188 428.84 867.188C427.638 867.188 423.509 861.932 423.509 860.43C423.509 858.928 393.322 829.793 383.561 821.909C377.553 817.103 372.372 813.123 372.072 813.123C371.771 813.123 369.969 811.847 368.017 810.27C363.962 806.966 356.603 802.01 350.221 798.255C346.841 796.303 345.039 795.252 342.261 793.375C341.21 792.699 339.933 792.098 339.483 792.098C339.107 792.098 337.605 791.347 336.254 790.371C333.851 788.794 319.358 781.51 312.751 778.582C311.099 777.906 308.245 776.554 306.368 775.653C304.491 774.827 302.688 774.076 302.388 774.076C302.013 774.076 300.661 773.551 299.384 773.025C296.306 771.598 288.797 768.97 285.268 768.069C283.841 767.694 281.588 766.868 280.387 766.192C279.185 765.591 277.458 765.066 276.557 765.066C275.656 765.066 273.178 764.39 271.075 763.564C268.973 762.738 266.42 762.062 265.444 762.062C264.468 762.062 261.914 761.386 259.812 760.56C257.709 759.734 254.931 759.058 253.579 759.058C252.228 759.058 248.624 758.383 245.545 757.557C242.466 756.731 238.561 756.055 236.909 756.055C235.257 756.055 230.452 755.379 226.322 754.628C220.315 753.502 214.833 753.126 200.04 752.976C189.753 752.901 180.517 752.526 179.541 752.15L177.738 751.474L178.264 627.801C179.165 392.468 179.616 334.874 180.592 333.297C180.892 332.847 189.528 332.546 204.471 332.546C224.97 332.546 228.725 332.772 234.281 334.048ZM720.715 543.475C720.79 659.339 720.565 754.403 720.265 754.703C719.889 755.079 707.8 755.529 693.383 755.754C675.436 755.98 664.548 756.505 658.916 757.331C654.411 757.932 647.803 758.758 644.274 759.133C640.744 759.434 636.239 760.26 634.212 760.861C632.184 761.536 629.406 762.062 628.129 762.062C626.778 762.062 623.774 762.738 621.371 763.564C618.968 764.39 616.115 765.066 615.064 765.066C614.012 765.066 611.309 765.741 609.131 766.567C606.954 767.393 604.401 768.069 603.425 768.069C602.448 768.069 600.196 768.745 598.394 769.571C596.591 770.397 594.414 771.073 593.513 771.073C592.687 771.073 590.584 771.749 588.857 772.575C587.205 773.401 585.253 774.076 584.652 774.076C583.976 774.076 582.024 774.752 580.297 775.503C578.495 776.254 575.191 777.681 572.938 778.582C569.108 780.084 563.852 782.411 560.773 783.913C549.51 789.395 538.096 795.402 536.144 796.904C535.543 797.354 534.267 798.18 533.365 798.706C532.389 799.157 530.887 800.058 529.986 800.583C529.085 801.034 526.532 802.761 524.355 804.263C522.177 805.84 520.225 807.116 519.999 807.116C519.699 807.116 510.613 813.574 506.483 816.728C500.926 820.933 484.932 834.899 480.577 839.33C474.044 845.938 467.286 854.273 464.207 859.454C461.129 864.71 459.927 864.26 459.927 857.802C460.002 837.978 461.88 699.962 462.18 692.979C462.405 688.248 462.555 629.227 462.555 561.797L462.63 439.324L465.033 436.021C466.385 434.293 467.887 431.966 468.412 430.914C470.74 426.109 475.696 418.825 476.973 418.299C477.273 418.149 477.573 417.548 477.573 416.948C477.573 415.446 493.117 399.902 499.725 394.796C511.439 385.71 516.77 382.031 527.508 375.723C533.666 372.044 534.041 371.894 536.144 370.917C537.195 370.467 538.547 369.791 539.147 369.491C539.748 369.115 541.025 368.439 542.001 367.989C542.902 367.463 544.253 366.787 545.004 366.412C546.506 365.661 552.739 362.808 556.043 361.381C557.319 360.855 560.248 359.579 562.575 358.527C564.903 357.476 567.231 356.575 567.682 356.575C568.132 356.575 569.784 355.899 571.436 355.073C573.088 354.247 575.04 353.572 575.866 353.572C576.692 353.572 578.87 352.971 580.597 352.145C582.399 351.394 586.379 350.042 589.458 349.066C592.536 348.165 596.591 346.964 598.469 346.288C600.346 345.687 603.575 344.936 605.602 344.561C607.705 344.185 610.633 343.434 612.135 342.759C613.712 342.083 615.965 341.557 617.241 341.557C618.518 341.557 621.972 340.881 624.9 340.055C627.904 339.229 631.508 338.553 633.01 338.553C634.437 338.553 638.041 337.878 640.895 337.052C643.748 336.226 647.653 335.55 649.53 335.475C651.407 335.475 655.762 334.799 659.292 334.048C664.923 332.847 669.053 332.696 693.082 332.772L720.49 332.922L720.715 543.475ZM792.126 843.535C792.652 843.835 792.952 848.641 792.952 856.976C792.952 867.263 792.727 870.192 791.901 870.868C791.075 871.543 789.198 871.543 784.317 870.943C775.381 869.816 684.297 869.816 672.432 870.943C667.476 871.393 662.821 871.919 662.145 872.144C661.469 872.369 655.913 872.82 649.755 873.195C643.673 873.646 635.413 874.472 631.508 875.073C627.604 875.673 622.497 876.124 620.245 876.199C617.992 876.199 612.586 876.875 608.23 877.701C603.875 878.527 598.994 879.203 597.342 879.203C595.69 879.203 591.936 879.878 589.082 880.704C586.229 881.53 582.474 882.206 580.822 882.206C579.17 882.206 575.942 882.732 573.689 883.333C571.436 883.933 567.531 884.834 565.053 885.285C562.651 885.66 560.248 886.336 559.797 886.712C558.821 887.538 547.407 889.941 546.882 889.49C545.981 888.514 548.909 885.811 552.063 884.759C554.015 884.159 555.817 883.258 556.043 882.882C556.343 882.507 557.244 882.206 558.145 882.206C559.046 882.206 560.623 881.53 561.674 880.704C562.726 879.878 564.152 879.203 564.903 879.203C565.729 879.203 567.231 878.752 568.282 878.151C569.409 877.551 572.337 876.199 574.815 875.223C579.095 873.496 580.897 872.82 586.679 870.868C587.956 870.342 590.284 869.516 591.71 868.84C593.137 868.239 595.54 867.489 596.967 867.113C598.394 866.813 601.322 865.987 603.349 865.311C605.452 864.56 608.155 863.659 609.357 863.284C610.633 862.833 612.961 862.157 614.613 861.782C616.265 861.406 619.644 860.43 622.122 859.604C624.6 858.778 627.679 858.177 628.88 858.102C630.157 858.102 632.484 857.577 634.136 856.976C635.788 856.375 639.167 855.549 641.645 855.174C644.123 854.873 648.028 854.047 650.281 853.372C652.534 852.696 655.913 852.17 657.79 852.17C659.667 852.17 663.722 851.494 666.801 850.668C669.879 849.842 673.934 849.167 675.811 849.167C677.689 849.167 682.945 848.491 687.45 847.665C692.031 846.839 697.888 846.163 700.591 846.163C703.294 846.163 708.851 845.562 712.981 844.886C723.794 843.159 789.723 842.033 792.126 843.535Z" fill="url(#paint1_linear_161_379)"/>
<path d="M1176.56 407.85H1018.56C1012.23 407.85 1007.56 406.516 1004.56 403.85C1001.9 400.85 1000.56 396.183 1000.56 389.85V331.35C1000.56 325.016 1001.9 320.516 1004.56 317.85C1007.56 314.85 1012.23 313.35 1018.56 313.35H1153.06C1157.4 313.35 1160.56 312.016 1162.56 309.35C1164.9 306.35 1166.06 302.85 1166.06 298.85C1166.06 293.183 1164.9 289.016 1162.56 286.35C1160.56 283.683 1157.4 282.183 1153.06 281.85L1078.06 271.35C1054.73 268.016 1035.9 260.35 1021.56 248.35C1007.56 236.35 1000.56 216.35 1000.56 188.35V135.85C1000.56 107.516 1009.73 85.8496 1028.06 70.8496C1046.4 55.5163 1071.73 47.8496 1104.06 47.8496H1244.06C1250.4 47.8496 1254.9 49.3496 1257.56 52.3496C1260.56 55.0163 1262.06 59.5163 1262.06 65.8496V125.35C1262.06 131.683 1260.56 136.35 1257.56 139.35C1254.9 142.016 1250.4 143.35 1244.06 143.35H1127.56C1123.23 143.35 1119.9 144.85 1117.56 147.85C1115.23 150.516 1114.06 154.016 1114.06 158.35C1114.06 162.683 1115.23 166.35 1117.56 169.35C1119.9 172.35 1123.23 174.016 1127.56 174.35L1202.06 184.35C1225.4 187.683 1244.23 195.35 1258.56 207.35C1272.9 219.35 1280.06 239.35 1280.06 267.35V319.85C1280.06 348.183 1270.73 370.016 1252.06 385.35C1233.73 400.35 1208.56 407.85 1176.56 407.85Z" fill="url(#paint2_linear_161_379)"/>
<path d="M1664.56 407.85H1507.06C1465.4 407.85 1434.4 399.516 1414.06 382.85C1394.06 366.183 1384.06 340.516 1384.06 305.85V149.85C1384.06 115.183 1394.06 89.5163 1414.06 72.8496C1434.4 56.1829 1465.4 47.8496 1507.06 47.8496H1632.06C1638.4 47.8496 1642.9 49.3496 1645.56 52.3496C1648.56 55.0163 1650.06 59.5163 1650.06 65.8496V126.35C1650.06 132.683 1648.56 137.35 1645.56 140.35C1642.9 143.016 1638.4 144.35 1632.06 144.35H1528.06C1517.73 144.35 1510.06 146.516 1505.06 150.85C1500.06 154.85 1497.56 161.016 1497.56 169.35V288.85C1497.56 297.183 1499.4 303.35 1503.06 307.35C1507.06 311.35 1512.9 313.35 1520.56 313.35H1569.06V235.35C1569.06 229.016 1570.4 224.516 1573.06 221.85C1576.06 218.85 1580.73 217.35 1587.06 217.35H1664.56C1670.9 217.35 1675.4 218.85 1678.06 221.85C1681.06 224.516 1682.56 229.016 1682.56 235.35V389.85C1682.56 396.183 1681.06 400.85 1678.06 403.85C1675.4 406.516 1670.9 407.85 1664.56 407.85Z" fill="url(#paint3_linear_161_379)"/>
<path d="M1973.06 407.85H1804.56C1798.23 407.85 1793.56 406.516 1790.56 403.85C1787.9 400.85 1786.56 396.183 1786.56 389.85V65.8496C1786.56 59.5163 1787.9 55.0163 1790.56 52.3496C1793.56 49.3496 1798.23 47.8496 1804.56 47.8496H1973.06C2014.73 47.8496 2045.56 56.1829 2065.56 72.8496C2085.9 89.5163 2096.06 115.183 2096.06 149.85V305.85C2096.06 340.516 2085.9 366.183 2065.56 382.85C2045.56 399.516 2014.73 407.85 1973.06 407.85ZM1900.06 143.35V313.35H1959.56C1967.56 313.35 1973.4 311.35 1977.06 307.35C1981.06 303.35 1983.06 297.183 1983.06 288.85V167.35C1983.06 159.016 1981.06 153.016 1977.06 149.35C1973.4 145.35 1967.56 143.35 1959.56 143.35H1900.06Z" fill="url(#paint4_linear_161_379)"/>
<path d="M2450.06 407.85H2218.06C2211.73 407.85 2207.06 406.516 2204.06 403.85C2201.4 400.85 2200.06 396.183 2200.06 389.85V65.8496C2200.06 59.5163 2201.4 55.0163 2204.06 52.3496C2207.06 49.3496 2211.73 47.8496 2218.06 47.8496H2450.06C2456.4 47.8496 2460.9 49.3496 2463.56 52.3496C2466.56 55.0163 2468.06 59.5163 2468.06 65.8496V124.35C2468.06 130.683 2466.56 135.35 2463.56 138.35C2460.9 141.016 2456.4 142.35 2450.06 142.35H2312.06V180.85H2409.56C2415.9 180.85 2420.4 182.35 2423.06 185.35C2426.06 188.016 2427.56 192.516 2427.56 198.85V252.35C2427.56 258.683 2426.06 263.35 2423.06 266.35C2420.4 269.016 2415.9 270.35 2409.56 270.35H2312.06V313.35H2450.06C2456.4 313.35 2460.9 314.85 2463.56 317.85C2466.56 320.516 2468.06 325.016 2468.06 331.35V389.85C2468.06 396.183 2466.56 400.85 2463.56 403.85C2460.9 406.516 2456.4 407.85 2450.06 407.85Z" fill="url(#paint5_linear_161_379)"/>
<path d="M1046.66 617.85H1010.32C1008.86 617.85 1007.79 617.543 1007.1 616.93C1006.49 616.24 1006.18 615.166 1006.18 613.71V600.255C1006.18 598.798 1006.49 597.763 1007.1 597.15C1007.79 596.46 1008.86 596.115 1010.32 596.115H1041.25C1042.25 596.115 1042.98 595.808 1043.44 595.195C1043.98 594.505 1044.24 593.7 1044.24 592.78C1044.24 591.476 1043.98 590.518 1043.44 589.905C1042.98 589.291 1042.25 588.946 1041.25 588.87L1024 586.455C1018.64 585.688 1014.31 583.925 1011.01 581.165C1007.79 578.405 1006.18 573.805 1006.18 567.365V555.29C1006.18 548.773 1008.29 543.79 1012.5 540.34C1016.72 536.813 1022.55 535.05 1029.98 535.05H1062.18C1063.64 535.05 1064.68 535.395 1065.29 536.085C1065.98 536.698 1066.32 537.733 1066.32 539.19V552.875C1066.32 554.331 1065.98 555.405 1065.29 556.095C1064.68 556.708 1063.64 557.015 1062.18 557.015H1035.39C1034.39 557.015 1033.63 557.36 1033.09 558.05C1032.55 558.663 1032.28 559.468 1032.28 560.465C1032.28 561.461 1032.55 562.305 1033.09 562.995C1033.63 563.685 1034.39 564.068 1035.39 564.145L1052.52 566.445C1057.89 567.211 1062.22 568.975 1065.52 571.735C1068.82 574.495 1070.46 579.095 1070.46 585.535V597.61C1070.46 604.126 1068.32 609.148 1064.02 612.675C1059.81 616.125 1054.02 617.85 1046.66 617.85ZM1092.24 617.85C1090.79 617.85 1089.71 617.543 1089.02 616.93C1088.41 616.24 1088.1 615.166 1088.1 613.71V600.025C1088.1 598.568 1088.41 597.533 1089.02 596.92C1089.71 596.23 1090.79 595.885 1092.24 595.885H1103.63V557.245H1092.24C1090.79 557.245 1089.71 556.938 1089.02 556.325C1088.41 555.635 1088.1 554.561 1088.1 553.105V539.19C1088.1 537.733 1088.41 536.698 1089.02 536.085C1089.71 535.395 1090.79 535.05 1092.24 535.05H1141.23C1142.69 535.05 1143.73 535.395 1144.34 536.085C1145.03 536.698 1145.37 537.733 1145.37 539.19V553.105C1145.37 554.561 1145.03 555.635 1144.34 556.325C1143.73 556.938 1142.69 557.245 1141.23 557.245H1130.08V595.885H1141.23C1142.69 595.885 1143.73 596.23 1144.34 596.92C1145.03 597.533 1145.37 598.568 1145.37 600.025V613.71C1145.37 615.166 1145.03 616.24 1144.34 616.93C1143.73 617.543 1142.69 617.85 1141.23 617.85H1092.24ZM1204.88 617.85H1168.54C1167.09 617.85 1166.01 617.543 1165.32 616.93C1164.71 616.24 1164.4 615.166 1164.4 613.71V600.255C1164.4 598.798 1164.71 597.763 1165.32 597.15C1166.01 596.46 1167.09 596.115 1168.54 596.115H1199.48C1200.47 596.115 1201.2 595.808 1201.66 595.195C1202.2 594.505 1202.47 593.7 1202.47 592.78C1202.47 591.476 1202.2 590.518 1201.66 589.905C1201.2 589.291 1200.47 588.946 1199.48 588.87L1182.23 586.455C1176.86 585.688 1172.53 583.925 1169.23 581.165C1166.01 578.405 1164.4 573.805 1164.4 567.365V555.29C1164.4 548.773 1166.51 543.79 1170.73 540.34C1174.94 536.813 1180.77 535.05 1188.21 535.05H1220.41C1221.86 535.05 1222.9 535.395 1223.51 536.085C1224.2 536.698 1224.55 537.733 1224.55 539.19V552.875C1224.55 554.331 1224.2 555.405 1223.51 556.095C1222.9 556.708 1221.86 557.015 1220.41 557.015H1193.61C1192.62 557.015 1191.85 557.36 1191.31 558.05C1190.78 558.663 1190.51 559.468 1190.51 560.465C1190.51 561.461 1190.78 562.305 1191.31 562.995C1191.85 563.685 1192.62 564.068 1193.61 564.145L1210.75 566.445C1216.11 567.211 1220.45 568.975 1223.74 571.735C1227.04 574.495 1228.69 579.095 1228.69 585.535V597.61C1228.69 604.126 1226.54 609.148 1222.25 612.675C1218.03 616.125 1212.24 617.85 1204.88 617.85ZM1286.14 617.85H1267.51C1266.06 617.85 1264.98 617.543 1264.29 616.93C1263.68 616.24 1263.37 615.166 1263.37 613.71V557.245H1246.47C1245.01 557.245 1243.94 556.938 1243.25 556.325C1242.64 555.635 1242.33 554.561 1242.33 553.105V539.19C1242.33 537.733 1242.64 536.698 1243.25 536.085C1243.94 535.395 1245.01 535.05 1246.47 535.05H1307.19C1308.65 535.05 1309.68 535.395 1310.29 536.085C1310.98 536.698 1311.33 537.733 1311.33 539.19V553.105C1311.33 554.561 1310.98 555.635 1310.29 556.325C1309.68 556.938 1308.65 557.245 1307.19 557.245H1290.28V613.71C1290.28 615.166 1289.94 616.24 1289.25 616.93C1288.64 617.543 1287.6 617.85 1286.14 617.85ZM1386.91 617.85H1333.55C1332.1 617.85 1331.02 617.543 1330.33 616.93C1329.72 616.24 1329.41 615.166 1329.41 613.71V539.19C1329.41 537.733 1329.72 536.698 1330.33 536.085C1331.02 535.395 1332.1 535.05 1333.55 535.05H1386.91C1388.37 535.05 1389.4 535.395 1390.02 536.085C1390.71 536.698 1391.05 537.733 1391.05 539.19V552.645C1391.05 554.101 1390.71 555.175 1390.02 555.865C1389.4 556.478 1388.37 556.785 1386.91 556.785H1355.17V565.64H1377.6C1379.05 565.64 1380.09 565.985 1380.7 566.675C1381.39 567.288 1381.74 568.323 1381.74 569.78V582.085C1381.74 583.541 1381.39 584.615 1380.7 585.305C1380.09 585.918 1379.05 586.225 1377.6 586.225H1355.17V596.115H1386.91C1388.37 596.115 1389.4 596.46 1390.02 597.15C1390.71 597.763 1391.05 598.798 1391.05 600.255V613.71C1391.05 615.166 1390.71 616.24 1390.02 616.93C1389.4 617.543 1388.37 617.85 1386.91 617.85ZM1432.83 617.85H1415.7C1414.24 617.85 1413.17 617.543 1412.48 616.93C1411.86 616.24 1411.56 615.166 1411.56 613.71V539.19C1411.56 537.733 1411.86 536.698 1412.48 536.085C1413.17 535.395 1414.24 535.05 1415.7 535.05H1434.21C1435.44 535.05 1436.44 535.318 1437.2 535.855C1438.05 536.391 1438.81 537.273 1439.5 538.5L1449.85 557.245C1450.24 557.935 1450.54 558.433 1450.77 558.74C1451.08 559.046 1451.46 559.2 1451.92 559.2H1452.96C1453.42 559.2 1453.76 559.046 1453.99 558.74C1454.3 558.433 1454.64 557.935 1455.03 557.245L1465.26 538.5C1465.95 537.273 1466.68 536.391 1467.45 535.855C1468.29 535.318 1469.33 535.05 1470.55 535.05H1489.18C1490.64 535.05 1491.67 535.395 1492.29 536.085C1492.98 536.698 1493.32 537.733 1493.32 539.19V613.71C1493.32 615.166 1492.98 616.24 1492.29 616.93C1491.67 617.543 1490.64 617.85 1489.18 617.85H1471.47C1470.02 617.85 1468.94 617.543 1468.25 616.93C1467.64 616.24 1467.33 615.166 1467.33 613.71V573.23L1460.55 585.765C1459.86 587.068 1459.01 588.026 1458.02 588.64C1457.1 589.176 1455.91 589.445 1454.45 589.445H1449.85C1448.4 589.445 1447.17 589.176 1446.17 588.64C1445.25 588.026 1444.45 587.068 1443.76 585.765L1436.97 573.23V613.71C1436.97 615.166 1436.63 616.24 1435.94 616.93C1435.32 617.543 1434.29 617.85 1432.83 617.85ZM1546.06 559.2L1540.66 576.68H1558.71L1553.31 559.2C1553 558.51 1552.66 558.011 1552.27 557.705C1551.97 557.398 1551.58 557.245 1551.12 557.245H1548.25C1547.79 557.245 1547.37 557.398 1546.98 557.705C1546.68 558.011 1546.37 558.51 1546.06 559.2ZM1539.51 613.71C1539.51 615.166 1539.16 616.24 1538.47 616.93C1537.86 617.543 1536.83 617.85 1535.37 617.85H1518.46C1517.01 617.85 1515.93 617.543 1515.24 616.93C1514.63 616.24 1514.32 615.166 1514.32 613.71V583.35C1514.32 581.05 1514.67 578.405 1515.36 575.415C1516.13 572.425 1517.28 568.936 1518.81 564.95L1528.81 538.845C1529.27 537.541 1529.96 536.583 1530.88 535.97C1531.88 535.356 1533.15 535.05 1534.68 535.05H1565.61C1567.07 535.05 1568.26 535.356 1569.18 535.97C1570.18 536.583 1570.9 537.541 1571.36 538.845L1581.37 564.95C1582.9 568.936 1584.01 572.425 1584.7 575.415C1585.47 578.405 1585.85 581.05 1585.85 583.35V613.71C1585.85 615.166 1585.51 616.24 1584.82 616.93C1584.21 617.543 1583.17 617.85 1581.71 617.85H1564.35C1562.82 617.85 1561.67 617.543 1560.9 616.93C1560.21 616.24 1559.86 615.166 1559.86 613.71V597.61H1539.51V613.71ZM1682.02 617.85H1643.26C1641.81 617.85 1640.73 617.543 1640.04 616.93C1639.43 616.24 1639.12 615.166 1639.12 613.71V539.19C1639.12 537.733 1639.43 536.698 1640.04 536.085C1640.73 535.395 1641.81 535.05 1643.26 535.05H1682.02C1691.6 535.05 1698.69 536.966 1703.29 540.8C1707.97 544.633 1710.31 550.536 1710.31 558.51V594.39C1710.31 602.363 1707.97 608.266 1703.29 612.1C1698.69 615.933 1691.6 617.85 1682.02 617.85ZM1665.23 557.015V596.115H1678.91C1680.75 596.115 1682.09 595.655 1682.94 594.735C1683.86 593.815 1684.32 592.396 1684.32 590.48V562.535C1684.32 560.618 1683.86 559.238 1682.94 558.395C1682.09 557.475 1680.75 557.015 1678.91 557.015H1665.23ZM1789.32 617.85H1735.96C1734.51 617.85 1733.43 617.543 1732.74 616.93C1732.13 616.24 1731.82 615.166 1731.82 613.71V539.19C1731.82 537.733 1732.13 536.698 1732.74 536.085C1733.43 535.395 1734.51 535.05 1735.96 535.05H1789.32C1790.78 535.05 1791.81 535.395 1792.43 536.085C1793.12 536.698 1793.46 537.733 1793.46 539.19V552.645C1793.46 554.101 1793.12 555.175 1792.43 555.865C1791.81 556.478 1790.78 556.785 1789.32 556.785H1757.58V565.64H1780.01C1781.46 565.64 1782.5 565.985 1783.11 566.675C1783.8 567.288 1784.15 568.323 1784.15 569.78V582.085C1784.15 583.541 1783.8 584.615 1783.11 585.305C1782.5 585.918 1781.46 586.225 1780.01 586.225H1757.58V596.115H1789.32C1790.78 596.115 1791.81 596.46 1792.43 597.15C1793.12 597.763 1793.46 598.798 1793.46 600.255V613.71C1793.46 615.166 1793.12 616.24 1792.43 616.93C1791.81 617.543 1790.78 617.85 1789.32 617.85ZM1071.5 755.85H1035.27C1025.69 755.85 1018.56 753.933 1013.88 750.1C1009.28 746.266 1006.98 740.363 1006.98 732.39V696.51C1006.98 688.536 1009.28 682.633 1013.88 678.8C1018.56 674.966 1025.69 673.05 1035.27 673.05H1064.02C1065.48 673.05 1066.52 673.395 1067.13 674.085C1067.82 674.698 1068.16 675.733 1068.16 677.19V691.105C1068.16 692.561 1067.82 693.635 1067.13 694.325C1066.52 694.938 1065.48 695.245 1064.02 695.245H1040.1C1037.73 695.245 1035.96 695.743 1034.81 696.74C1033.66 697.66 1033.09 699.078 1033.09 700.995V728.48C1033.09 730.396 1033.51 731.815 1034.35 732.735C1035.27 733.655 1036.62 734.115 1038.38 734.115H1049.53V716.175C1049.53 714.718 1049.84 713.683 1050.45 713.07C1051.14 712.38 1052.22 712.035 1053.67 712.035H1071.5C1072.96 712.035 1073.99 712.38 1074.6 713.07C1075.29 713.683 1075.64 714.718 1075.64 716.175V751.71C1075.64 753.166 1075.29 754.24 1074.6 754.93C1073.99 755.543 1072.96 755.85 1071.5 755.85ZM1154.07 755.85H1100.71C1099.25 755.85 1098.18 755.543 1097.49 754.93C1096.88 754.24 1096.57 753.166 1096.57 751.71V677.19C1096.57 675.733 1096.88 674.698 1097.49 674.085C1098.18 673.395 1099.25 673.05 1100.71 673.05H1154.07C1155.53 673.05 1156.56 673.395 1157.17 674.085C1157.86 674.698 1158.21 675.733 1158.21 677.19V690.645C1158.21 692.101 1157.86 693.175 1157.17 693.865C1156.56 694.478 1155.53 694.785 1154.07 694.785H1122.33V703.64H1144.75C1146.21 703.64 1147.25 703.985 1147.86 704.675C1148.55 705.288 1148.89 706.323 1148.89 707.78V720.085C1148.89 721.541 1148.55 722.615 1147.86 723.305C1147.25 723.918 1146.21 724.225 1144.75 724.225H1122.33V734.115H1154.07C1155.53 734.115 1156.56 734.46 1157.17 735.15C1157.86 735.763 1158.21 736.798 1158.21 738.255V751.71C1158.21 753.166 1157.86 754.24 1157.17 754.93C1156.56 755.543 1155.53 755.85 1154.07 755.85ZM1204.7 693.75V708.47H1213.33C1215.32 708.47 1216.66 707.971 1217.35 706.975C1218.04 705.901 1218.39 704.598 1218.39 703.065V699.155C1218.39 697.621 1218.04 696.356 1217.35 695.36C1216.66 694.286 1215.32 693.75 1213.33 693.75H1204.7ZM1200.56 755.85H1182.85C1181.4 755.85 1180.32 755.543 1179.63 754.93C1179.02 754.24 1178.71 753.166 1178.71 751.71V677.19C1178.71 675.733 1179.02 674.698 1179.63 674.085C1180.32 673.395 1181.4 673.05 1182.85 673.05H1221.15C1229.74 673.05 1235.64 674.851 1238.86 678.455C1242.16 681.981 1243.8 686.581 1243.8 692.255V697.545C1243.8 700.765 1243.31 703.525 1242.31 705.825C1241.39 708.048 1239.74 709.658 1237.36 710.655C1241.5 711.115 1244.84 712.801 1247.37 715.715C1249.98 718.628 1251.28 722.5 1251.28 727.33V751.71C1251.28 753.166 1250.93 754.24 1250.24 754.93C1249.63 755.543 1248.6 755.85 1247.14 755.85H1229.31C1227.86 755.85 1226.78 755.543 1226.09 754.93C1225.48 754.24 1225.17 753.166 1225.17 751.71V734.115C1225.17 732.428 1224.83 731.201 1224.14 730.435C1223.53 729.591 1222.41 729.17 1220.8 729.17H1204.7V751.71C1204.7 753.166 1204.36 754.24 1203.67 754.93C1203.06 755.543 1202.02 755.85 1200.56 755.85ZM1328.58 755.85H1275.22C1273.76 755.85 1272.69 755.543 1272 754.93C1271.38 754.24 1271.08 753.166 1271.08 751.71V677.19C1271.08 675.733 1271.38 674.698 1272 674.085C1272.69 673.395 1273.76 673.05 1275.22 673.05H1328.58C1330.03 673.05 1331.07 673.395 1331.68 674.085C1332.37 674.698 1332.72 675.733 1332.72 677.19V690.645C1332.72 692.101 1332.37 693.175 1331.68 693.865C1331.07 694.478 1330.03 694.785 1328.58 694.785H1296.84V703.64H1319.26C1320.72 703.64 1321.75 703.985 1322.37 704.675C1323.06 705.288 1323.4 706.323 1323.4 707.78V720.085C1323.4 721.541 1323.06 722.615 1322.37 723.305C1321.75 723.918 1320.72 724.225 1319.26 724.225H1296.84V734.115H1328.58C1330.03 734.115 1331.07 734.46 1331.68 735.15C1332.37 735.763 1332.72 736.798 1332.72 738.255V751.71C1332.72 753.166 1332.37 754.24 1331.68 754.93C1331.07 755.543 1330.03 755.85 1328.58 755.85ZM1374.61 755.85H1357.36C1355.9 755.85 1354.83 755.543 1354.14 754.93C1353.53 754.24 1353.22 753.166 1353.22 751.71V677.19C1353.22 675.733 1353.53 674.698 1354.14 674.085C1354.83 673.395 1355.9 673.05 1357.36 673.05H1369.32C1370.78 673.05 1372 673.28 1373 673.74C1374.07 674.2 1375.11 675.005 1376.11 676.155L1398.42 701.685V677.19C1398.42 675.733 1398.72 674.698 1399.34 674.085C1400.03 673.395 1401.1 673.05 1402.56 673.05H1419.81C1421.26 673.05 1422.3 673.395 1422.91 674.085C1423.6 674.698 1423.95 675.733 1423.95 677.19V751.71C1423.95 753.166 1423.6 754.24 1422.91 754.93C1422.3 755.543 1421.26 755.85 1419.81 755.85H1402.56C1401.1 755.85 1400.03 755.543 1399.34 754.93C1398.72 754.24 1398.42 753.166 1398.42 751.71V737.565L1378.75 713.76V751.71C1378.75 753.166 1378.41 754.24 1377.72 754.93C1377.1 755.543 1376.07 755.85 1374.61 755.85ZM1501.79 755.85H1473.73C1464.15 755.85 1457.02 753.933 1452.34 750.1C1447.74 746.266 1445.44 740.363 1445.44 732.39V696.625C1445.44 688.651 1447.74 682.748 1452.34 678.915C1457.02 675.005 1464.15 673.05 1473.73 673.05H1501.79C1503.25 673.05 1504.29 673.395 1504.9 674.085C1505.59 674.698 1505.93 675.733 1505.93 677.19V691.105C1505.93 692.561 1505.59 693.635 1504.9 694.325C1504.29 694.938 1503.25 695.245 1501.79 695.245H1478.68C1476.3 695.245 1474.54 695.743 1473.39 696.74C1472.24 697.66 1471.66 699.078 1471.66 700.995V728.365C1471.66 730.281 1472.24 731.7 1473.39 732.62C1474.54 733.463 1476.3 733.885 1478.68 733.885H1501.79C1503.25 733.885 1504.29 734.23 1504.9 734.92C1505.59 735.533 1505.93 736.568 1505.93 738.025V751.71C1505.93 753.166 1505.59 754.24 1504.9 754.93C1504.29 755.543 1503.25 755.85 1501.79 755.85ZM1528.12 755.85C1526.66 755.85 1525.59 755.543 1524.9 754.93C1524.29 754.24 1523.98 753.166 1523.98 751.71V738.025C1523.98 736.568 1524.29 735.533 1524.9 734.92C1525.59 734.23 1526.66 733.885 1528.12 733.885H1539.51V695.245H1528.12C1526.66 695.245 1525.59 694.938 1524.9 694.325C1524.29 693.635 1523.98 692.561 1523.98 691.105V677.19C1523.98 675.733 1524.29 674.698 1524.9 674.085C1525.59 673.395 1526.66 673.05 1528.12 673.05H1577.11C1578.57 673.05 1579.6 673.395 1580.22 674.085C1580.91 674.698 1581.25 675.733 1581.25 677.19V691.105C1581.25 692.561 1580.91 693.635 1580.22 694.325C1579.6 694.938 1578.57 695.245 1577.11 695.245H1565.96V733.885H1577.11C1578.57 733.885 1579.6 734.23 1580.22 734.92C1580.91 735.533 1581.25 736.568 1581.25 738.025V751.71C1581.25 753.166 1580.91 754.24 1580.22 754.93C1579.6 755.543 1578.57 755.85 1577.11 755.85H1528.12ZM1632.36 697.2L1626.96 714.68H1645.01L1639.61 697.2C1639.3 696.51 1638.96 696.011 1638.57 695.705C1638.27 695.398 1637.88 695.245 1637.42 695.245H1634.55C1634.09 695.245 1633.67 695.398 1633.28 695.705C1632.98 696.011 1632.67 696.51 1632.36 697.2ZM1625.81 751.71C1625.81 753.166 1625.46 754.24 1624.77 754.93C1624.16 755.543 1623.13 755.85 1621.67 755.85H1604.76C1603.31 755.85 1602.23 755.543 1601.54 754.93C1600.93 754.24 1600.62 753.166 1600.62 751.71V721.35C1600.62 719.05 1600.97 716.405 1601.66 713.415C1602.43 710.425 1603.58 706.936 1605.11 702.95L1615.11 676.845C1615.57 675.541 1616.26 674.583 1617.18 673.97C1618.18 673.356 1619.45 673.05 1620.98 673.05H1651.91C1653.37 673.05 1654.56 673.356 1655.48 673.97C1656.48 674.583 1657.2 675.541 1657.66 676.845L1667.67 702.95C1669.2 706.936 1670.31 710.425 1671 713.415C1671.77 716.405 1672.15 719.05 1672.15 721.35V751.71C1672.15 753.166 1671.81 754.24 1671.12 754.93C1670.51 755.543 1669.47 755.85 1668.01 755.85H1650.65C1649.12 755.85 1647.97 755.543 1647.2 754.93C1646.51 754.24 1646.16 753.166 1646.16 751.71V735.61H1625.81V751.71ZM1714.53 755.85H1697.39C1695.94 755.85 1694.86 755.543 1694.17 754.93C1693.56 754.24 1693.25 753.166 1693.25 751.71V677.19C1693.25 675.733 1693.56 674.698 1694.17 674.085C1694.86 673.395 1695.94 673.05 1697.39 673.05H1715.91C1717.13 673.05 1718.13 673.318 1718.9 673.855C1719.74 674.391 1720.51 675.273 1721.2 676.5L1731.55 695.245C1731.93 695.935 1732.24 696.433 1732.47 696.74C1732.77 697.046 1733.16 697.2 1733.62 697.2H1734.65C1735.11 697.2 1735.46 697.046 1735.69 696.74C1735.99 696.433 1736.34 695.935 1736.72 695.245L1746.96 676.5C1747.65 675.273 1748.38 674.391 1749.14 673.855C1749.99 673.318 1751.02 673.05 1752.25 673.05H1770.88C1772.33 673.05 1773.37 673.395 1773.98 674.085C1774.67 674.698 1775.02 675.733 1775.02 677.19V751.71C1775.02 753.166 1774.67 754.24 1773.98 754.93C1773.37 755.543 1772.33 755.85 1770.88 755.85H1753.17C1751.71 755.85 1750.64 755.543 1749.95 754.93C1749.33 754.24 1749.03 753.166 1749.03 751.71V711.23L1742.24 723.765C1741.55 725.068 1740.71 726.026 1739.71 726.64C1738.79 727.176 1737.6 727.445 1736.15 727.445H1731.55C1730.09 727.445 1728.86 727.176 1727.87 726.64C1726.95 726.026 1726.14 725.068 1725.45 723.765L1718.67 711.23V751.71C1718.67 753.166 1718.32 754.24 1717.63 754.93C1717.02 755.543 1715.98 755.85 1714.53 755.85ZM1855.25 755.85H1801.89C1800.43 755.85 1799.36 755.543 1798.67 754.93C1798.05 754.24 1797.75 753.166 1797.75 751.71V677.19C1797.75 675.733 1798.05 674.698 1798.67 674.085C1799.36 673.395 1800.43 673.05 1801.89 673.05H1855.25C1856.7 673.05 1857.74 673.395 1858.35 674.085C1859.04 674.698 1859.39 675.733 1859.39 677.19V690.645C1859.39 692.101 1859.04 693.175 1858.35 693.865C1857.74 694.478 1856.7 694.785 1855.25 694.785H1823.51V703.64H1845.93C1847.39 703.64 1848.42 703.985 1849.04 704.675C1849.73 705.288 1850.07 706.323 1850.07 707.78V720.085C1850.07 721.541 1849.73 722.615 1849.04 723.305C1848.42 723.918 1847.39 724.225 1845.93 724.225H1823.51V734.115H1855.25C1856.7 734.115 1857.74 734.46 1858.35 735.15C1859.04 735.763 1859.39 736.798 1859.39 738.255V751.71C1859.39 753.166 1859.04 754.24 1858.35 754.93C1857.74 755.543 1856.7 755.85 1855.25 755.85ZM1901.28 755.85H1884.03C1882.57 755.85 1881.5 755.543 1880.81 754.93C1880.2 754.24 1879.89 753.166 1879.89 751.71V677.19C1879.89 675.733 1880.2 674.698 1880.81 674.085C1881.5 673.395 1882.57 673.05 1884.03 673.05H1895.99C1897.45 673.05 1898.67 673.28 1899.67 673.74C1900.74 674.2 1901.78 675.005 1902.78 676.155L1925.09 701.685V677.19C1925.09 675.733 1925.39 674.698 1926.01 674.085C1926.7 673.395 1927.77 673.05 1929.23 673.05H1946.48C1947.93 673.05 1948.97 673.395 1949.58 674.085C1950.27 674.698 1950.62 675.733 1950.62 677.19V751.71C1950.62 753.166 1950.27 754.24 1949.58 754.93C1948.97 755.543 1947.93 755.85 1946.48 755.85H1929.23C1927.77 755.85 1926.7 755.543 1926.01 754.93C1925.39 754.24 1925.09 753.166 1925.09 751.71V737.565L1905.42 713.76V751.71C1905.42 753.166 1905.08 754.24 1904.39 754.93C1903.77 755.543 1902.74 755.85 1901.28 755.85ZM2012.48 755.85H1993.85C1992.39 755.85 1991.32 755.543 1990.63 754.93C1990.01 754.24 1989.71 753.166 1989.71 751.71V695.245H1972.8C1971.35 695.245 1970.27 694.938 1969.58 694.325C1968.97 693.635 1968.66 692.561 1968.66 691.105V677.19C1968.66 675.733 1968.97 674.698 1969.58 674.085C1970.27 673.395 1971.35 673.05 1972.8 673.05H2033.52C2034.98 673.05 2036.01 673.395 2036.63 674.085C2037.32 674.698 2037.66 675.733 2037.66 677.19V691.105C2037.66 692.561 2037.32 693.635 2036.63 694.325C2036.01 694.938 2034.98 695.245 2033.52 695.245H2016.62V751.71C2016.62 753.166 2016.27 754.24 2015.58 754.93C2014.97 755.543 2013.93 755.85 2012.48 755.85ZM2125.33 734.115C2125.33 737.641 2124.8 740.861 2123.72 743.775C2122.73 746.611 2120.89 749.065 2118.2 751.135C2115.6 753.128 2111.96 754.7 2107.28 755.85C2102.68 757 2096.81 757.575 2089.68 757.575C2082.55 757.575 2076.65 757 2071.97 755.85C2067.3 754.7 2063.62 753.128 2060.93 751.135C2058.33 749.065 2056.49 746.611 2055.41 743.775C2054.42 740.861 2053.92 737.641 2053.92 734.115V694.9C2053.92 691.373 2054.42 688.191 2055.41 685.355C2056.49 682.441 2058.33 679.95 2060.93 677.88C2063.62 675.81 2067.3 674.2 2071.97 673.05C2076.65 671.9 2082.55 671.325 2089.68 671.325C2096.81 671.325 2102.68 671.9 2107.28 673.05C2111.96 674.2 2115.6 675.81 2118.2 677.88C2120.89 679.95 2122.73 682.441 2123.72 685.355C2124.8 688.191 2125.33 691.373 2125.33 694.9V734.115ZM2080.02 729.975C2080.02 731.508 2080.6 732.811 2081.75 733.885C2082.9 734.881 2085.54 735.38 2089.68 735.38C2093.82 735.38 2096.47 734.881 2097.62 733.885C2098.77 732.811 2099.34 731.508 2099.34 729.975V699.04C2099.34 697.583 2098.77 696.356 2097.62 695.36C2096.47 694.286 2093.82 693.75 2089.68 693.75C2085.54 693.75 2082.9 694.286 2081.75 695.36C2080.6 696.356 2080.02 697.583 2080.02 699.04V729.975ZM2222.5 755.85H2183.74C2182.29 755.85 2181.21 755.543 2180.52 754.93C2179.91 754.24 2179.6 753.166 2179.6 751.71V677.19C2179.6 675.733 2179.91 674.698 2180.52 674.085C2181.21 673.395 2182.29 673.05 2183.74 673.05H2222.5C2232.08 673.05 2239.17 674.966 2243.77 678.8C2248.45 682.633 2250.79 688.536 2250.79 696.51V732.39C2250.79 740.363 2248.45 746.266 2243.77 750.1C2239.17 753.933 2232.08 755.85 2222.5 755.85ZM2205.71 695.015V734.115H2219.39C2221.23 734.115 2222.58 733.655 2223.42 732.735C2224.34 731.815 2224.8 730.396 2224.8 728.48V700.535C2224.8 698.618 2224.34 697.238 2223.42 696.395C2222.58 695.475 2221.23 695.015 2219.39 695.015H2205.71ZM2329.81 755.85H2276.45C2274.99 755.85 2273.92 755.543 2273.23 754.93C2272.61 754.24 2272.31 753.166 2272.31 751.71V677.19C2272.31 675.733 2272.61 674.698 2273.23 674.085C2273.92 673.395 2274.99 673.05 2276.45 673.05H2329.81C2331.26 673.05 2332.3 673.395 2332.91 674.085C2333.6 674.698 2333.95 675.733 2333.95 677.19V690.645C2333.95 692.101 2333.6 693.175 2332.91 693.865C2332.3 694.478 2331.26 694.785 2329.81 694.785H2298.07V703.64H2320.49C2321.95 703.64 2322.98 703.985 2323.6 704.675C2324.29 705.288 2324.63 706.323 2324.63 707.78V720.085C2324.63 721.541 2324.29 722.615 2323.6 723.305C2322.98 723.918 2321.95 724.225 2320.49 724.225H2298.07V734.115H2329.81C2331.26 734.115 2332.3 734.46 2332.91 735.15C2333.6 735.763 2333.95 736.798 2333.95 738.255V751.71C2333.95 753.166 2333.6 754.24 2332.91 754.93C2332.3 755.543 2331.26 755.85 2329.81 755.85ZM1051.14 893.85H1012.39C1010.93 893.85 1009.86 893.543 1009.17 892.93C1008.56 892.24 1008.25 891.166 1008.25 889.71V815.19C1008.25 813.733 1008.56 812.698 1009.17 812.085C1009.86 811.395 1010.93 811.05 1012.39 811.05H1051.14C1060.73 811.05 1067.82 812.966 1072.42 816.8C1077.1 820.633 1079.43 826.536 1079.43 834.51V870.39C1079.43 878.363 1077.1 884.266 1072.42 888.1C1067.82 891.933 1060.73 893.85 1051.14 893.85ZM1034.35 833.015V872.115H1048.04C1049.88 872.115 1051.22 871.655 1052.06 870.735C1052.98 869.815 1053.44 868.396 1053.44 866.48V838.535C1053.44 836.618 1052.98 835.238 1052.06 834.395C1051.22 833.475 1049.88 833.015 1048.04 833.015H1034.35ZM1103.25 893.85C1101.79 893.85 1100.72 893.543 1100.03 892.93C1099.42 892.24 1099.11 891.166 1099.11 889.71V876.025C1099.11 874.568 1099.42 873.533 1100.03 872.92C1100.72 872.23 1101.79 871.885 1103.25 871.885H1114.63V833.245H1103.25C1101.79 833.245 1100.72 832.938 1100.03 832.325C1099.42 831.635 1099.11 830.561 1099.11 829.105V815.19C1099.11 813.733 1099.42 812.698 1100.03 812.085C1100.72 811.395 1101.79 811.05 1103.25 811.05H1152.24C1153.7 811.05 1154.73 811.395 1155.34 812.085C1156.03 812.698 1156.38 813.733 1156.38 815.19V829.105C1156.38 830.561 1156.03 831.635 1155.34 832.325C1154.73 832.938 1153.7 833.245 1152.24 833.245H1141.08V871.885H1152.24C1153.7 871.885 1154.73 872.23 1155.34 872.92C1156.03 873.533 1156.38 874.568 1156.38 876.025V889.71C1156.38 891.166 1156.03 892.24 1155.34 892.93C1154.73 893.543 1153.7 893.85 1152.24 893.85H1103.25ZM1207.49 835.2L1202.09 852.68H1220.14L1214.74 835.2C1214.43 834.51 1214.09 834.011 1213.7 833.705C1213.4 833.398 1213.01 833.245 1212.55 833.245H1209.68C1209.22 833.245 1208.8 833.398 1208.41 833.705C1208.11 834.011 1207.8 834.51 1207.49 835.2ZM1200.94 889.71C1200.94 891.166 1200.59 892.24 1199.9 892.93C1199.29 893.543 1198.25 893.85 1196.8 893.85H1179.89C1178.44 893.85 1177.36 893.543 1176.67 892.93C1176.06 892.24 1175.75 891.166 1175.75 889.71V859.35C1175.75 857.05 1176.1 854.405 1176.79 851.415C1177.55 848.425 1178.7 844.936 1180.24 840.95L1190.24 814.845C1190.7 813.541 1191.39 812.583 1192.31 811.97C1193.31 811.356 1194.57 811.05 1196.11 811.05H1227.04C1228.5 811.05 1229.69 811.356 1230.61 811.97C1231.6 812.583 1232.33 813.541 1232.79 814.845L1242.8 840.95C1244.33 844.936 1245.44 848.425 1246.13 851.415C1246.9 854.405 1247.28 857.05 1247.28 859.35V889.71C1247.28 891.166 1246.94 892.24 1246.25 892.93C1245.63 893.543 1244.6 893.85 1243.14 893.85H1225.78C1224.24 893.85 1223.09 893.543 1222.33 892.93C1221.64 892.24 1221.29 891.166 1221.29 889.71V873.61H1200.94V889.71ZM1294.37 831.75V846.47H1303C1304.99 846.47 1306.33 845.971 1307.02 844.975C1307.71 843.901 1308.06 842.598 1308.06 841.065V837.155C1308.06 835.621 1307.71 834.356 1307.02 833.36C1306.33 832.286 1304.99 831.75 1303 831.75H1294.37ZM1290.23 893.85H1272.52C1271.07 893.85 1269.99 893.543 1269.3 892.93C1268.69 892.24 1268.38 891.166 1268.38 889.71V815.19C1268.38 813.733 1268.69 812.698 1269.3 812.085C1269.99 811.395 1271.07 811.05 1272.52 811.05H1310.82C1319.4 811.05 1325.31 812.851 1328.53 816.455C1331.82 819.981 1333.47 824.581 1333.47 830.255V835.545C1333.47 838.765 1332.97 841.525 1331.98 843.825C1331.06 846.048 1329.41 847.658 1327.03 848.655C1331.17 849.115 1334.51 850.801 1337.04 853.715C1339.64 856.628 1340.95 860.5 1340.95 865.33V889.71C1340.95 891.166 1340.6 892.24 1339.91 892.93C1339.3 893.543 1338.26 893.85 1336.81 893.85H1318.98C1317.53 893.85 1316.45 893.543 1315.76 892.93C1315.15 892.24 1314.84 891.166 1314.84 889.71V872.115C1314.84 870.428 1314.5 869.201 1313.81 868.435C1313.19 867.591 1312.08 867.17 1310.47 867.17H1294.37V889.71C1294.37 891.166 1294.03 892.24 1293.34 892.93C1292.72 893.543 1291.69 893.85 1290.23 893.85ZM1363.05 893.85C1361.59 893.85 1360.52 893.543 1359.83 892.93C1359.21 892.24 1358.91 891.166 1358.91 889.71V876.025C1358.91 874.568 1359.21 873.533 1359.83 872.92C1360.52 872.23 1361.59 871.885 1363.05 871.885H1374.43V833.245H1363.05C1361.59 833.245 1360.52 832.938 1359.83 832.325C1359.21 831.635 1358.91 830.561 1358.91 829.105V815.19C1358.91 813.733 1359.21 812.698 1359.83 812.085C1360.52 811.395 1361.59 811.05 1363.05 811.05H1412.04C1413.49 811.05 1414.53 811.395 1415.14 812.085C1415.83 812.698 1416.18 813.733 1416.18 815.19V829.105C1416.18 830.561 1415.83 831.635 1415.14 832.325C1414.53 832.938 1413.49 833.245 1412.04 833.245H1400.88V871.885H1412.04C1413.49 871.885 1414.53 872.23 1415.14 872.92C1415.83 873.533 1416.18 874.568 1416.18 876.025V889.71C1416.18 891.166 1415.83 892.24 1415.14 892.93C1414.53 893.543 1413.49 893.85 1412.04 893.85H1363.05ZM1507.42 872.115C1507.42 875.641 1506.89 878.861 1505.81 881.775C1504.82 884.611 1502.98 887.065 1500.29 889.135C1497.69 891.128 1494.05 892.7 1489.37 893.85C1484.77 895 1478.9 895.575 1471.77 895.575C1464.64 895.575 1458.74 895 1454.06 893.85C1449.39 892.7 1445.71 891.128 1443.02 889.135C1440.42 887.065 1438.58 884.611 1437.5 881.775C1436.51 878.861 1436.01 875.641 1436.01 872.115V832.9C1436.01 829.373 1436.51 826.191 1437.5 823.355C1438.58 820.441 1440.42 817.95 1443.02 815.88C1445.71 813.81 1449.39 812.2 1454.06 811.05C1458.74 809.9 1464.64 809.325 1471.77 809.325C1478.9 809.325 1484.77 809.9 1489.37 811.05C1494.05 812.2 1497.69 813.81 1500.29 815.88C1502.98 817.95 1504.82 820.441 1505.81 823.355C1506.89 826.191 1507.42 829.373 1507.42 832.9V872.115ZM1462.11 867.975C1462.11 869.508 1462.69 870.811 1463.84 871.885C1464.99 872.881 1467.63 873.38 1471.77 873.38C1475.91 873.38 1478.56 872.881 1479.71 871.885C1480.86 870.811 1481.43 869.508 1481.43 867.975V837.04C1481.43 835.583 1480.86 834.356 1479.71 833.36C1478.56 832.286 1475.91 831.75 1471.77 831.75C1467.63 831.75 1464.99 832.286 1463.84 833.36C1462.69 834.356 1462.11 835.583 1462.11 837.04V867.975ZM1619.19 893.85H1565.83C1564.38 893.85 1563.3 893.543 1562.61 892.93C1562 892.24 1561.69 891.166 1561.69 889.71V815.19C1561.69 813.733 1562 812.698 1562.61 812.085C1563.3 811.395 1564.38 811.05 1565.83 811.05H1619.19C1620.65 811.05 1621.69 811.395 1622.3 812.085C1622.99 812.698 1623.33 813.733 1623.33 815.19V828.645C1623.33 830.101 1622.99 831.175 1622.3 831.865C1621.69 832.478 1620.65 832.785 1619.19 832.785H1587.45V841.64H1609.88C1611.34 841.64 1612.37 841.985 1612.98 842.675C1613.67 843.288 1614.02 844.323 1614.02 845.78V858.085C1614.02 859.541 1613.67 860.615 1612.98 861.305C1612.37 861.918 1611.34 862.225 1609.88 862.225H1587.45V872.115H1619.19C1620.65 872.115 1621.69 872.46 1622.3 873.15C1622.99 873.763 1623.33 874.798 1623.33 876.255V889.71C1623.33 891.166 1622.99 892.24 1622.3 892.93C1621.69 893.543 1620.65 893.85 1619.19 893.85ZM1682.25 893.85H1645.91C1644.45 893.85 1643.38 893.543 1642.69 892.93C1642.08 892.24 1641.77 891.166 1641.77 889.71V876.255C1641.77 874.798 1642.08 873.763 1642.69 873.15C1643.38 872.46 1644.45 872.115 1645.91 872.115H1676.84C1677.84 872.115 1678.57 871.808 1679.03 871.195C1679.57 870.505 1679.83 869.7 1679.83 868.78C1679.83 867.476 1679.57 866.518 1679.03 865.905C1678.57 865.291 1677.84 864.946 1676.84 864.87L1659.59 862.455C1654.23 861.688 1649.9 859.925 1646.6 857.165C1643.38 854.405 1641.77 849.805 1641.77 843.365V831.29C1641.77 824.773 1643.88 819.79 1648.09 816.34C1652.31 812.813 1658.14 811.05 1665.57 811.05H1697.77C1699.23 811.05 1700.27 811.395 1700.88 812.085C1701.57 812.698 1701.91 813.733 1701.91 815.19V828.875C1701.91 830.331 1701.57 831.405 1700.88 832.095C1700.27 832.708 1699.23 833.015 1697.77 833.015H1670.98C1669.98 833.015 1669.22 833.36 1668.68 834.05C1668.14 834.663 1667.87 835.468 1667.87 836.465C1667.87 837.461 1668.14 838.305 1668.68 838.995C1669.22 839.685 1669.98 840.068 1670.98 840.145L1688.11 842.445C1693.48 843.211 1697.81 844.975 1701.11 847.735C1704.41 850.495 1706.05 855.095 1706.05 861.535V873.61C1706.05 880.126 1703.91 885.148 1699.61 888.675C1695.4 892.125 1689.61 893.85 1682.25 893.85ZM1780.62 893.85H1752.56C1742.98 893.85 1735.85 891.933 1731.17 888.1C1726.57 884.266 1724.27 878.363 1724.27 870.39V834.625C1724.27 826.651 1726.57 820.748 1731.17 816.915C1735.85 813.005 1742.98 811.05 1752.56 811.05H1780.62C1782.08 811.05 1783.11 811.395 1783.72 812.085C1784.41 812.698 1784.76 813.733 1784.76 815.19V829.105C1784.76 830.561 1784.41 831.635 1783.72 832.325C1783.11 832.938 1782.08 833.245 1780.62 833.245H1757.5C1755.13 833.245 1753.36 833.743 1752.21 834.74C1751.06 835.66 1750.49 837.078 1750.49 838.995V866.365C1750.49 868.281 1751.06 869.7 1752.21 870.62C1753.36 871.463 1755.13 871.885 1757.5 871.885H1780.62C1782.08 871.885 1783.11 872.23 1783.72 872.92C1784.41 873.533 1784.76 874.568 1784.76 876.025V889.71C1784.76 891.166 1784.41 892.24 1783.72 892.93C1783.11 893.543 1782.08 893.85 1780.62 893.85ZM1874.23 872.115C1874.23 875.641 1873.7 878.861 1872.62 881.775C1871.63 884.611 1869.79 887.065 1867.1 889.135C1864.5 891.128 1860.86 892.7 1856.18 893.85C1851.58 895 1845.71 895.575 1838.58 895.575C1831.45 895.575 1825.55 895 1820.87 893.85C1816.2 892.7 1812.52 891.128 1809.83 889.135C1807.23 887.065 1805.39 884.611 1804.31 881.775C1803.32 878.861 1802.82 875.641 1802.82 872.115V832.9C1802.82 829.373 1803.32 826.191 1804.31 823.355C1805.39 820.441 1807.23 817.95 1809.83 815.88C1812.52 813.81 1816.2 812.2 1820.87 811.05C1825.55 809.9 1831.45 809.325 1838.58 809.325C1845.71 809.325 1851.58 809.9 1856.18 811.05C1860.86 812.2 1864.5 813.81 1867.1 815.88C1869.79 817.95 1871.63 820.441 1872.62 823.355C1873.7 826.191 1874.23 829.373 1874.23 832.9V872.115ZM1828.92 867.975C1828.92 869.508 1829.5 870.811 1830.65 871.885C1831.8 872.881 1834.44 873.38 1838.58 873.38C1842.72 873.38 1845.37 872.881 1846.52 871.885C1847.67 870.811 1848.24 869.508 1848.24 867.975V837.04C1848.24 835.583 1847.67 834.356 1846.52 833.36C1845.37 832.286 1842.72 831.75 1838.58 831.75C1834.44 831.75 1831.8 832.286 1830.65 833.36C1829.5 834.356 1828.92 835.583 1828.92 837.04V867.975ZM1958.45 893.85H1899.91C1898.46 893.85 1897.38 893.543 1896.69 892.93C1896.08 892.24 1895.77 891.166 1895.77 889.71V815.19C1895.77 813.733 1896.08 812.698 1896.69 812.085C1897.38 811.395 1898.46 811.05 1899.91 811.05H1917.74C1919.2 811.05 1920.23 811.395 1920.84 812.085C1921.53 812.698 1921.88 813.733 1921.88 815.19V872.115H1937.63V853.485C1937.63 852.028 1937.94 850.993 1938.55 850.38C1939.24 849.69 1940.32 849.345 1941.77 849.345H1958.45C1959.91 849.345 1960.94 849.69 1961.55 850.38C1962.24 850.993 1962.59 852.028 1962.59 853.485V889.71C1962.59 891.166 1962.24 892.24 1961.55 892.93C1960.94 893.543 1959.91 893.85 1958.45 893.85ZM2012.65 835.2L2007.25 852.68H2025.3L2019.9 835.2C2019.59 834.51 2019.24 834.011 2018.86 833.705C2018.55 833.398 2018.17 833.245 2017.71 833.245H2014.84C2014.38 833.245 2013.95 833.398 2013.57 833.705C2013.26 834.011 2012.96 834.51 2012.65 835.2ZM2006.1 889.71C2006.1 891.166 2005.75 892.24 2005.06 892.93C2004.45 893.543 2003.41 893.85 2001.96 893.85H1985.05C1983.59 893.85 1982.52 893.543 1981.83 892.93C1981.22 892.24 1980.91 891.166 1980.91 889.71V859.35C1980.91 857.05 1981.26 854.405 1981.95 851.415C1982.71 848.425 1983.86 844.936 1985.4 840.95L1995.4 814.845C1995.86 813.541 1996.55 812.583 1997.47 811.97C1998.47 811.356 1999.73 811.05 2001.27 811.05H2032.2C2033.66 811.05 2034.85 811.356 2035.77 811.97C2036.76 812.583 2037.49 813.541 2037.95 814.845L2047.96 840.95C2049.49 844.936 2050.6 848.425 2051.29 851.415C2052.06 854.405 2052.44 857.05 2052.44 859.35V889.71C2052.44 891.166 2052.1 892.24 2051.41 892.93C2050.79 893.543 2049.76 893.85 2048.3 893.85H2030.94C2029.4 893.85 2028.25 893.543 2027.49 892.93C2026.8 892.24 2026.45 891.166 2026.45 889.71V873.61H2006.1V889.71ZM2099.53 831.75V846.47H2108.15C2110.15 846.47 2111.49 845.971 2112.18 844.975C2112.87 843.901 2113.21 842.598 2113.21 841.065V837.155C2113.21 835.621 2112.87 834.356 2112.18 833.36C2111.49 832.286 2110.15 831.75 2108.15 831.75H2099.53ZM2095.39 893.85H2077.68C2076.22 893.85 2075.15 893.543 2074.46 892.93C2073.85 892.24 2073.54 891.166 2073.54 889.71V815.19C2073.54 813.733 2073.85 812.698 2074.46 812.085C2075.15 811.395 2076.22 811.05 2077.68 811.05H2115.97C2124.56 811.05 2130.46 812.851 2133.68 816.455C2136.98 819.981 2138.63 824.581 2138.63 830.255V835.545C2138.63 838.765 2138.13 841.525 2137.13 843.825C2136.21 846.048 2134.57 847.658 2132.19 848.655C2136.33 849.115 2139.66 850.801 2142.19 853.715C2144.8 856.628 2146.1 860.5 2146.1 865.33V889.71C2146.1 891.166 2145.76 892.24 2145.07 892.93C2144.46 893.543 2143.42 893.85 2141.96 893.85H2124.14C2122.68 893.85 2121.61 893.543 2120.92 892.93C2120.31 892.24 2120 891.166 2120 889.71V872.115C2120 870.428 2119.65 869.201 2118.96 868.435C2118.35 867.591 2117.24 867.17 2115.63 867.17H2099.53V889.71C2099.53 891.166 2099.18 892.24 2098.49 892.93C2097.88 893.543 2096.85 893.85 2095.39 893.85Z" fill="black"/>
<defs>
<linearGradient id="paint0_linear_161_379" x1="438.516" y1="492.583" x2="438.516" y2="0.000579834" gradientUnits="userSpaceOnUse">
<stop stop-color="#549FFF"/>
<stop offset="1" stop-color="#9626FB"/>
</linearGradient>
<linearGradient id="paint1_linear_161_379" x1="411.682" y1="958.699" x2="411.682" y2="212.505" gradientUnits="userSpaceOnUse">
<stop stop-color="#549FFF"/>
<stop offset="1" stop-color="#9626FB"/>
</linearGradient>
<linearGradient id="paint2_linear_161_379" x1="1140.31" y1="47.8496" x2="1140.31" y2="407.85" gradientUnits="userSpaceOnUse">
<stop stop-color="#549FFF"/>
<stop offset="1" stop-color="#9626FB"/>
</linearGradient>
<linearGradient id="paint3_linear_161_379" x1="1533.31" y1="47.8496" x2="1533.31" y2="407.85" gradientUnits="userSpaceOnUse">
<stop stop-color="#549FFF"/>
<stop offset="1" stop-color="#9626FB"/>
</linearGradient>
<linearGradient id="paint4_linear_161_379" x1="1941.31" y1="47.8496" x2="1941.31" y2="407.85" gradientUnits="userSpaceOnUse">
<stop stop-color="#549FFF"/>
<stop offset="1" stop-color="#9626FB"/>
</linearGradient>
<linearGradient id="paint5_linear_161_379" x1="2334.06" y1="47.8496" x2="2334.06" y2="407.85" gradientUnits="userSpaceOnUse">
<stop stop-color="#549FFF"/>
<stop offset="1" stop-color="#9626FB"/>
</linearGradient>
</defs>
</svg>
