<svg width="2536" height="1038" viewBox="0 0 2536 1038" fill="none" xmlns="http://www.w3.org/2000/svg">
<path d="M478.36 1.02625C477.059 1.59524 474.865 2.48937 473.483 2.97708C466.492 5.33433 465.11 5.90333 461.859 7.28516C459.989 8.17929 457.551 8.82957 456.576 8.82957C455.6 8.82957 453.568 9.56113 452.105 10.4553C450.642 11.3494 448.853 12.081 448.041 12.081C447.309 12.081 445.277 12.8125 443.57 13.7066C441.944 14.6008 439.912 15.3323 439.099 15.3323C438.368 15.3323 436.336 16.0639 434.629 16.958C433.003 17.8522 430.808 18.5837 429.752 18.5837C428.776 18.5837 427.069 19.1527 426.013 19.8843C424.956 20.6158 423.005 21.51 421.542 21.8351C418.047 22.7292 411.544 25.0052 407.561 26.7935C405.691 27.6876 403.578 28.3379 402.846 28.3379C402.115 28.3379 400.083 29.0694 398.294 29.9636C396.506 30.8577 394.555 31.5892 393.905 31.5892C393.174 31.5892 391.06 32.2395 389.191 33.1337C387.24 33.9465 384.476 35.0845 383.094 35.5722C381.631 36.0599 379.193 36.8727 377.811 37.3605C376.348 37.8482 373.584 38.9861 371.633 39.799C369.764 40.6931 367.569 41.3434 366.756 41.3434C366.024 41.3434 363.992 42.075 362.285 42.9691C360.66 43.8632 358.709 44.5948 358.059 44.5948C357.408 44.5948 355.295 45.2451 353.425 46.1392C351.475 46.952 348.63 48.09 347.085 48.659C340.013 51.0975 337.575 52.073 335.136 53.1297C333.755 53.7799 332.129 54.3489 331.479 54.3489C330.91 54.3489 329.04 55.0805 327.333 55.9746C325.707 56.8688 323.513 57.6003 322.537 57.6003C321.481 57.6003 319.611 58.3319 318.229 59.226C316.929 60.1201 314.978 60.8517 314.002 60.8517C312.946 60.8517 310.995 61.5833 309.532 62.4774C308.069 63.3715 306.199 64.1031 305.386 64.1031C304.655 64.1031 302.623 64.8346 300.997 65.7288C299.29 66.6229 297.176 67.3545 296.282 67.3545C295.388 67.3545 293.437 68.086 291.974 68.9802C290.511 69.8743 288.642 70.6058 287.747 70.6058C286.853 70.6058 284.984 71.3374 283.521 72.2315C282.058 73.1257 280.188 73.8572 279.375 73.8572C278.644 73.8572 276.611 74.5888 274.986 75.4829C273.279 76.377 271.328 77.1086 270.678 77.1086C270.027 77.1086 267.995 77.7589 266.207 78.653C264.419 79.4659 261.736 80.6038 260.355 81.0916C254.014 83.2862 252.226 83.9365 249.056 85.3183C247.186 86.2125 244.992 86.8628 244.179 86.8628C243.366 86.8628 241.415 87.5943 239.952 88.4884C238.489 89.3826 236.619 90.1141 235.725 90.1141C234.831 90.1141 232.962 90.8457 231.499 91.7398C230.035 92.634 228.166 93.3655 227.434 93.3655C226.621 93.3655 224.345 94.0971 222.313 94.9912C220.281 95.8853 217.03 97.3485 214.998 98.2426C212.966 99.1367 210.608 99.8683 209.714 99.8683C208.82 99.8683 206.951 100.6 205.487 101.494C204.024 102.388 202.073 103.12 201.261 103.12C200.448 103.12 198.253 103.77 196.384 104.664C194.514 105.477 191.75 106.615 190.206 107.184C188.662 107.672 186.304 108.566 184.922 108.972C183.622 109.46 181.183 110.517 179.558 111.329C177.932 112.224 175.9 112.874 175.006 112.874C174.193 112.874 172.161 113.605 170.454 114.5C168.828 115.394 166.796 116.125 166.064 116.125C165.252 116.125 163.382 116.857 161.919 117.751C160.456 118.645 158.586 119.377 157.692 119.377C156.798 119.377 154.847 120.108 153.221 121.002C151.596 121.896 149.726 122.628 148.913 122.628C148.182 122.628 146.15 123.36 144.443 124.254C142.817 125.148 140.785 125.879 140.053 125.879C139.241 125.879 137.371 126.611 135.908 127.505C134.445 128.399 132.494 129.131 131.6 129.131C130.624 129.131 128.511 129.781 126.885 130.675C125.26 131.488 122.902 132.545 121.52 133.032C120.22 133.439 117.781 134.333 116.237 134.821C114.693 135.39 111.848 136.528 109.897 137.34C108.027 138.235 105.833 138.885 105.02 138.885C104.288 138.885 102.419 139.616 100.955 140.511C99.4924 141.405 97.7041 142.136 96.8913 142.136C96.1597 142.136 94.1276 142.868 92.4206 143.762C90.7949 144.656 88.6002 145.388 87.5435 145.388C85.1863 145.388 83.7232 146.851 83.7232 149.208C83.7232 150.671 84.2921 151.24 86.1617 151.647C87.5435 151.89 88.8441 152.459 89.1692 152.947C89.4944 153.435 89.8195 186.518 89.9008 226.428L90.1446 299.015L87.7874 300.235C86.4868 300.885 84.3734 301.454 83.0729 301.454C80.8782 301.454 72.4246 307.469 68.8481 311.533C64.1336 317.061 62.4266 320.393 62.0202 325.027C61.6138 329.253 61.7763 330.229 63.971 333.724C65.3528 335.919 68.1165 339.333 70.1486 341.446C72.262 343.478 73.969 345.592 73.969 345.998C73.969 346.404 73.4 348.111 72.7497 349.656C72.0995 351.281 71.5305 354.37 71.5305 356.484C71.5305 358.597 70.9615 362.417 70.2299 364.856C69.4984 367.294 68.6855 372.578 68.2791 376.642C67.9539 380.625 67.0598 387.047 66.3283 390.867C65.5967 394.687 65.0277 400.296 65.0277 403.466C65.0277 406.555 64.4587 412.814 63.7271 417.285C63.0769 421.755 62.1827 432.566 61.695 441.263C61.2886 449.961 60.5571 460.609 60.1506 464.836C59.6629 469.063 59.0126 484.426 58.5249 498.975C58.1185 513.525 57.5495 526.694 57.2244 528.238C56.8992 530.27 57.0618 531.408 57.8747 532.14C59.1752 533.196 143.955 533.684 145.662 532.627C146.719 531.977 145.987 481.499 144.687 468.9C144.199 464.673 143.549 454.025 143.142 445.328C142.654 436.63 141.76 426.388 141.11 422.568C140.379 418.748 139.81 413.302 139.81 410.375C139.81 407.449 139.078 400.702 138.184 395.338C137.29 389.973 136.558 383.714 136.558 381.519C136.558 379.243 135.989 375.586 135.258 373.391C134.607 371.115 133.713 365.831 133.388 361.523C132.982 357.215 132.087 352.582 131.356 351.2C129.161 347.055 129.649 343.397 132.656 340.877C140.135 334.537 141.76 326.49 137.371 317.711C133.713 310.477 123.715 302.673 115.993 301.048C114.774 300.804 113.067 299.91 112.173 299.015C110.547 297.39 110.547 296.008 110.547 229.924C110.547 154.41 110.059 160.019 116.481 163.108C120.951 165.221 127.21 167.334 131.275 168.066C133.063 168.391 135.908 169.285 137.696 170.017C139.403 170.83 141.354 171.399 142.004 171.399C142.654 171.399 144.687 172.13 146.475 173.024C148.344 173.919 150.702 174.65 151.677 174.65C152.652 174.65 155.01 175.382 156.961 176.276C158.911 177.17 161.431 177.901 162.569 177.901C163.707 177.901 165.983 178.633 167.69 179.527C169.316 180.421 171.592 181.153 172.73 181.153C173.868 181.153 176.225 181.884 178.013 182.779C179.802 183.673 182.159 184.404 183.297 184.404C184.435 184.404 186.792 185.136 188.58 186.03C190.369 186.924 192.319 187.656 193.051 187.656C194.514 187.656 202.724 190.175 209.308 192.614C211.584 193.508 214.104 194.158 214.998 194.158C215.892 194.158 218.249 194.89 220.2 195.784C222.151 196.678 224.508 197.41 225.483 197.41C226.459 197.41 228.816 198.141 230.686 199.035C232.474 199.93 234.587 200.661 235.238 200.661C235.969 200.661 238.408 201.393 240.765 202.287C243.122 203.181 245.805 203.913 246.699 203.913C247.593 203.994 249.788 204.644 251.576 205.538C253.364 206.432 255.721 207.164 256.859 207.164C257.997 207.164 260.355 207.895 262.143 208.79C263.931 209.684 266.044 210.334 266.857 210.415C267.751 210.415 269.54 210.984 270.922 211.635C273.441 212.773 277.668 214.154 285.309 216.105C287.341 216.674 290.511 217.812 292.462 218.625C294.331 219.438 296.851 220.169 297.989 220.169C299.046 220.169 301.403 220.901 303.192 221.795C304.98 222.689 307.256 223.421 308.231 223.421C309.288 223.421 311.239 223.99 312.539 224.721C313.921 225.372 316.441 226.266 318.229 226.672C321.562 227.404 326.439 228.948 333.673 231.631C335.949 232.525 338.632 233.175 339.607 233.175C340.664 233.175 343.021 233.907 344.809 234.801C346.679 235.695 349.036 236.426 350.093 236.426C351.149 236.426 353.425 237.158 355.214 238.052C357.002 238.946 359.278 239.678 360.253 239.678C361.31 239.678 363.18 240.247 364.561 240.978C365.862 241.629 368.707 242.604 370.902 243.092C373.096 243.498 375.86 244.392 376.998 245.043C378.217 245.693 380.005 246.18 381.062 246.18C382.038 246.18 384.314 246.912 386.102 247.806C387.89 248.7 390.247 249.432 391.385 249.432C392.523 249.432 394.881 250.163 396.669 251.058C398.457 251.952 400.652 252.683 401.708 252.683C402.684 252.683 405.366 253.334 407.642 254.228C409.837 255.041 414.47 256.585 417.803 257.56C421.135 258.536 425.769 260.08 427.963 260.893C430.239 261.787 432.922 262.437 433.897 262.437C434.954 262.437 437.148 263.169 438.937 264.063C440.725 264.957 443.001 265.689 443.976 265.689C445.033 265.689 447.472 266.42 449.422 267.314C451.373 268.209 453.812 268.94 454.869 268.94C456.007 268.94 458.282 269.672 460.071 270.566C461.859 271.46 463.891 272.192 464.704 272.192C466.492 272.192 475.434 275.037 480.229 277.15C484.7 279.101 488.602 279.101 492.585 277.069C494.373 276.174 496.486 275.443 497.38 275.443C498.193 275.443 500.469 274.711 502.42 273.817C504.371 272.923 506.728 272.192 507.622 272.192C508.516 272.192 510.711 271.46 512.499 270.566C514.288 269.672 516.482 268.94 517.376 268.94C518.271 268.94 520.628 268.209 522.579 267.314C524.529 266.42 526.805 265.689 527.7 265.689C528.512 265.689 530.382 265.039 531.845 264.307C533.308 263.575 535.747 262.681 537.291 262.356C540.461 261.706 546.801 259.592 551.109 257.723C552.654 257.073 555.255 256.26 556.799 255.935C560.213 255.203 566.554 253.008 571.268 250.976C573.138 250.082 575.495 249.432 576.389 249.432C577.283 249.432 579.397 248.7 581.185 247.806C582.973 246.912 585.168 246.18 586.062 246.18C586.956 246.18 589.151 245.449 590.939 244.555C592.727 243.661 594.922 242.929 595.816 242.929C596.71 242.929 598.905 242.198 600.693 241.303C602.481 240.409 604.676 239.678 605.57 239.678C606.464 239.678 608.659 238.946 610.447 238.052C612.235 237.158 614.43 236.426 615.324 236.426C616.3 236.426 618.169 235.776 619.632 235.045C621.095 234.313 623.534 233.419 625.078 233.094C628.574 232.362 634.914 230.167 639.547 228.217C641.417 227.322 643.774 226.672 644.668 226.672C645.562 226.672 647.676 225.941 649.464 225.047C651.252 224.152 653.447 223.421 654.341 223.421C655.235 223.421 657.43 222.689 659.218 221.795C661.006 220.901 663.201 220.169 664.095 220.169C664.989 220.169 667.184 219.438 668.972 218.544C670.76 217.65 672.955 216.918 673.849 216.918C674.743 216.918 676.938 216.186 678.726 215.292C680.515 214.398 682.709 213.667 683.603 213.667C684.497 213.667 686.692 212.935 688.48 212.041C690.269 211.147 692.463 210.415 693.357 210.415C694.333 210.415 696.202 209.765 697.666 209.033C699.129 208.302 701.567 207.408 703.112 207.083C706.607 206.351 712.947 204.156 717.58 202.206C719.45 201.311 721.807 200.661 722.701 200.661C723.595 200.661 725.709 199.93 727.497 199.035C729.285 198.141 731.561 197.41 732.618 197.41C733.675 197.41 736.032 196.678 737.901 195.784C739.69 194.89 741.966 194.158 742.941 194.158C743.916 194.158 745.786 193.589 747.249 192.777C748.712 192.045 750.988 191.232 752.289 190.826C754.89 190.175 760.499 188.306 766.839 185.949C769.033 185.055 771.472 184.404 772.366 184.404C773.179 184.404 775.292 183.673 777.081 182.779C778.869 181.884 780.982 181.153 781.795 181.153C782.608 181.153 784.803 180.421 786.672 179.527C788.46 178.633 790.655 177.901 791.549 177.901C792.362 177.901 794.557 177.17 796.426 176.276C798.215 175.382 800.491 174.65 801.466 174.65C802.36 174.65 804.555 173.919 806.343 173.024C808.131 172.13 810.245 171.399 811.139 171.399C812.033 171.399 814.39 170.667 816.504 169.773C818.617 168.879 820.974 168.147 821.868 168.147C822.763 168.147 824.876 167.416 826.664 166.522C828.452 165.628 830.647 164.896 831.541 164.896C832.435 164.896 834.63 164.164 836.418 163.27C838.207 162.376 840.483 161.645 841.458 161.645C842.515 161.563 844.791 160.913 846.579 160.019C848.367 159.125 850.481 158.474 851.293 158.393C852.106 158.393 854.138 157.662 855.927 156.767C857.715 155.873 860.072 155.142 861.21 155.142C862.348 155.142 864.624 154.41 866.25 153.516C867.957 152.622 870.151 151.89 871.127 151.89C872.184 151.89 874.378 151.159 876.004 150.265C877.711 149.371 879.824 148.639 880.718 148.639C881.613 148.639 882.994 148.07 883.807 147.42C884.701 146.851 886.733 146.038 888.522 145.794C890.229 145.469 891.936 144.9 892.18 144.412C892.992 143.112 889.985 140.511 886.49 139.616C884.62 139.129 881.45 137.991 879.337 137.178C877.223 136.284 874.785 135.633 873.809 135.633C872.915 135.633 870.72 134.902 868.932 134.008C867.144 133.114 864.949 132.382 864.055 132.382C863.161 132.382 860.966 131.651 859.178 130.756C857.39 129.862 855.033 129.131 853.895 129.131C852.757 129.131 850.399 128.399 848.611 127.505C846.823 126.611 844.628 125.879 843.734 125.879C842.84 125.879 840.645 125.148 838.857 124.254C837.069 123.36 834.955 122.628 834.061 122.628C833.167 122.628 830.81 121.896 828.696 121.002C826.583 120.108 824.226 119.377 823.332 119.377C822.437 119.377 820.324 118.645 818.536 117.751C816.747 116.857 814.471 116.125 813.496 116.125C812.439 116.044 810.163 115.394 808.375 114.5C806.587 113.605 804.311 112.955 803.417 112.874C802.441 112.874 800.084 112.142 798.133 111.248C796.182 110.354 793.825 109.622 792.931 109.622C792.037 109.622 789.842 108.891 788.054 107.997C786.266 107.103 783.99 106.452 782.933 106.371C781.958 106.371 779.682 105.639 777.893 104.745C776.105 103.851 774.073 103.12 773.26 103.12C772.447 103.12 770.415 102.388 768.708 101.494C767.083 100.6 764.969 99.8683 764.075 99.8683C763.181 99.8683 761.068 99.1367 759.442 98.2426C757.735 97.3485 755.621 96.6169 754.727 96.6169C753.833 96.6169 751.72 95.8853 750.013 94.9912C748.387 94.0971 746.274 93.3655 745.38 93.3655C744.404 93.3655 742.291 92.634 740.503 91.7398C738.714 90.8457 736.52 90.1141 735.625 90.1141C734.731 90.1141 732.537 89.3826 730.748 88.4884C728.96 87.5943 726.847 86.8628 725.953 86.8628C725.058 86.8628 723.026 86.1312 721.401 85.2371C719.775 84.3429 717.743 83.6114 716.849 83.6114C715.955 83.6114 713.841 82.8798 712.053 81.9857C710.265 81.0916 708.314 80.36 707.582 80.36C706.851 80.36 704.9 79.6284 703.112 78.7343C701.323 77.8402 699.291 77.1086 698.478 77.1086C697.666 77.1086 695.633 76.377 693.926 75.4829C692.301 74.5888 690.106 73.8572 689.131 73.8572C688.074 73.8572 686.204 73.1257 684.823 72.2315C683.522 71.3374 681.571 70.6058 680.596 70.6058C679.539 70.6058 677.588 69.8743 676.125 68.9802C674.662 68.086 672.63 67.3545 671.654 67.3545C670.598 67.3545 668.647 66.6229 667.184 65.7288C665.721 64.8346 663.607 64.1031 662.469 64.1031C661.331 64.1031 659.381 63.3715 657.999 62.4774C656.698 61.5833 654.829 60.8517 653.934 60.8517C653.04 60.8517 650.927 60.1201 649.22 59.226C647.594 58.3319 645.643 57.6003 644.993 57.6003C644.262 57.6003 642.148 56.8688 640.36 55.9746C638.49 55.0805 636.296 54.3489 635.483 54.3489C634.751 54.3489 632.882 53.6174 631.419 52.7232C629.956 51.8291 628.005 51.0975 627.111 51.0975C626.216 51.0163 624.022 50.366 622.233 49.4719C620.445 48.5777 618.494 47.9274 617.844 47.8462C617.194 47.8462 615.243 47.1959 613.373 46.3018C610.285 44.9199 608.903 44.4322 602.156 42.075C600.693 41.5873 597.929 40.4493 595.979 39.6364C594.109 38.7423 591.914 38.092 591.183 38.092C590.451 38.092 588.419 37.4417 586.55 36.5476C584.68 35.7348 582.16 34.6781 580.778 34.1904C579.478 33.7839 577.039 32.8898 575.495 32.4021C573.95 31.8331 571.105 30.6951 569.155 29.8823C567.285 28.9881 565.172 28.3379 564.44 28.3379C563.79 28.3379 561.839 27.6063 560.051 26.7122C558.263 25.818 556.23 25.0865 555.418 25.0865C554.605 25.0052 552.491 24.3549 550.703 23.4608C548.915 22.5667 546.801 21.9164 545.989 21.8351C545.257 21.8351 543.225 21.1035 541.599 20.2094C539.892 19.3153 537.779 18.5837 536.885 18.5837C535.991 18.5837 534.04 17.8522 532.577 16.958C531.113 16.0639 529.163 15.3323 528.269 15.3323C527.374 15.3323 525.261 14.6008 523.473 13.7066C521.684 12.8125 519.734 12.081 519.002 12.081C518.271 12.081 516.32 11.3494 514.531 10.4553C512.743 9.56113 510.548 8.82957 509.654 8.82957C508.76 8.82957 506.566 8.09801 504.777 7.20388C502.989 6.30975 500.957 5.57819 500.144 5.57819C499.331 5.4969 497.218 4.84663 495.43 3.9525C493.641 3.05837 491.447 2.40809 490.471 2.32681C489.577 2.32681 488.114 1.75781 487.22 1.10754C485.35 -0.355585 481.611 -0.355585 478.36 1.02625Z" fill="url(#paint0_linear_160_262)"/>
<path d="M731.968 231.631C730.179 232.443 727.66 233.175 726.44 233.175C725.221 233.175 722.782 233.907 720.994 234.801C719.206 235.695 716.93 236.426 715.792 236.426C714.735 236.426 712.297 237.158 710.346 238.052C708.395 238.946 705.713 239.678 704.493 239.678C703.274 239.678 700.836 240.409 699.047 241.303C697.259 242.198 694.983 242.929 693.845 242.929C692.788 242.929 690.35 243.661 688.399 244.555C686.448 245.449 683.928 246.181 682.79 246.181C681.652 246.181 679.295 246.912 677.507 247.806C675.719 248.7 673.199 249.351 671.98 249.432C670.76 249.432 668.566 250.082 667.103 250.814C665.639 251.545 663.201 252.439 661.656 252.765C660.112 253.008 657.186 253.821 655.154 254.553C644.668 258.048 640.766 259.186 639.059 259.186C638.003 259.186 635.645 259.918 633.857 260.812C631.988 261.706 629.305 262.437 628.005 262.437C626.623 262.519 624.022 263.169 622.233 264.063C620.445 264.957 617.925 265.608 616.706 265.689C615.487 265.689 613.048 266.42 611.26 267.315C609.472 268.209 607.033 268.94 605.814 268.94C604.595 269.022 602.075 269.672 600.287 270.566C598.498 271.46 596.141 272.192 595.003 272.192C593.865 272.192 591.508 272.923 589.72 273.817C587.931 274.711 585.655 275.362 584.599 275.443C583.623 275.443 581.347 276.175 579.559 277.069C577.771 277.963 575.576 278.694 574.682 278.694C573.788 278.694 571.593 279.426 569.805 280.32C568.017 281.214 565.903 281.946 565.09 281.946C564.196 281.946 562.083 282.515 560.376 283.328C558.588 284.059 555.905 284.872 554.361 285.197C552.816 285.522 549.728 286.416 547.452 287.229C545.257 287.961 542.331 288.936 540.949 289.424C539.648 289.912 536.722 290.806 534.446 291.375C532.251 292.025 529.244 293.082 527.781 293.732C526.399 294.382 524.448 294.951 523.554 294.951C522.579 294.951 520.384 295.683 518.596 296.577C516.807 297.471 514.694 298.203 513.8 298.203C512.987 298.203 510.711 298.934 508.76 299.828C506.809 300.723 504.452 301.454 503.558 301.454C502.664 301.454 500.876 302.023 499.575 302.673C498.274 303.405 495.836 304.299 494.292 304.624C492.666 305.031 490.227 305.843 488.764 306.412C486.488 307.307 485.757 307.307 483.237 306.087C481.611 305.356 479.66 304.705 478.847 304.705C478.035 304.705 475.759 303.974 473.808 303.08C471.857 302.186 469.337 301.454 468.199 301.454C467.061 301.454 464.704 300.723 462.916 299.828C461.127 298.934 458.851 298.284 457.876 298.203C456.901 298.203 454.462 297.471 452.349 296.577C450.235 295.683 447.634 294.951 446.577 294.951C445.439 294.951 443.164 294.22 441.375 293.326C439.587 292.431 437.23 291.7 436.092 291.7C434.954 291.7 432.597 290.968 430.808 290.074C429.02 289.18 426.744 288.449 425.769 288.449C424.712 288.367 422.436 287.717 420.648 286.823C418.859 285.929 416.583 285.278 415.608 285.197C414.633 285.197 412.194 284.466 410.081 283.571C407.967 282.677 405.366 281.946 404.309 281.946C403.171 281.946 400.896 281.214 399.107 280.32C397.319 279.426 395.043 278.694 394.068 278.694C393.011 278.694 390.816 277.963 389.109 277.069C387.484 276.175 385.208 275.443 384.07 275.443C382.85 275.443 380.818 274.793 379.355 274.061C377.892 273.33 375.291 272.435 373.503 272.11C371.714 271.866 368.544 270.972 366.431 270.241C364.236 269.509 360.822 268.371 358.709 267.64C356.514 266.908 353.181 266.014 351.149 265.689C349.117 265.282 346.435 264.47 345.053 263.738C343.752 263.006 341.802 262.437 340.745 262.437C339.77 262.437 337.494 261.706 335.705 260.812C333.917 259.918 331.722 259.186 330.747 259.186C329.772 259.186 326.927 258.536 324.407 257.642C321.887 256.829 317.091 255.284 313.758 254.309C310.426 253.334 305.793 251.789 303.598 250.976C301.322 250.082 298.64 249.432 297.664 249.432C296.689 249.432 294.494 248.863 292.787 248.131C291.161 247.481 288.316 246.587 286.528 246.181C284.74 245.774 281.651 244.961 279.619 244.311C270.027 241.141 264.906 239.678 263.362 239.678C262.468 239.678 260.273 238.946 258.485 238.052C256.697 237.158 254.421 236.426 253.283 236.426C252.226 236.426 249.625 235.695 247.512 234.801C245.398 233.907 242.716 233.175 241.415 233.175C240.196 233.175 238.733 232.606 238.164 231.874C237.514 231.224 236.132 230.736 234.994 230.899C233.124 231.143 232.88 231.468 232.962 234.394C233.043 236.183 233.124 257.235 233.205 281.133C233.368 321.288 233.287 324.62 231.986 325.596C230.929 326.408 223.939 326.49 201.261 326.246C181.915 326.002 171.023 326.165 169.316 326.734C167.853 327.14 165.658 328.766 164.357 330.31L161.919 332.992L161.431 419.804C161.106 467.6 160.7 509.461 160.537 512.794C160.293 516.127 159.887 589.933 159.643 676.664L159.074 834.518L160.943 837.201C164.032 841.671 167.284 844.191 172.161 845.898C176.225 847.361 179.639 847.605 200.366 848.093C213.372 848.337 226.865 848.906 230.442 849.312C234.018 849.8 241.009 850.45 245.886 850.857C250.844 851.344 256.697 852.238 258.891 852.889C261.167 853.62 264.419 854.189 266.207 854.189C267.995 854.189 271.409 854.921 273.766 855.815C276.124 856.709 278.969 857.441 280.107 857.441C281.163 857.441 283.521 858.172 285.309 859.066C287.097 859.96 289.292 860.692 290.186 860.692C291.161 860.692 293.437 861.424 295.226 862.318C297.095 863.212 299.209 863.943 299.94 863.943C300.59 863.943 302.541 864.675 304.248 865.569C305.874 866.463 307.987 867.195 308.881 867.195C309.857 867.195 311.97 867.845 313.596 868.739C315.222 869.552 318.31 871.015 320.505 871.991C332.291 877.274 335.624 878.818 339.77 881.094C340.42 881.501 342.289 882.476 343.834 883.289C345.378 884.183 349.442 886.378 352.775 888.329C356.108 890.198 359.603 892.23 360.497 892.718C361.391 893.206 363.261 894.425 364.724 895.4C366.106 896.457 367.488 897.27 367.813 897.27C368.138 897.27 371.064 899.221 374.315 901.578C377.567 903.854 382.363 907.268 384.882 909.056C397.075 917.591 409.512 927.996 414.307 933.523C416.421 936.124 420.729 940.839 423.818 944.09C426.825 947.341 429.101 950.349 428.776 950.837C428.045 952.137 424.631 951.893 423.493 950.511C422.924 949.861 418.941 947.585 414.633 945.553C410.325 943.521 406.179 941.489 405.447 941.082C404.635 940.676 403.334 940.026 402.603 939.619C401.79 939.213 399.595 938.156 397.807 937.181C395.937 936.287 393.905 935.474 393.336 935.474C392.686 935.474 391.304 934.742 390.166 933.848C389.028 932.954 387.484 932.222 386.671 932.222C385.858 932.222 383.826 931.491 382.2 930.597C379.436 929.134 377.404 928.239 367.65 924.013C365.699 923.119 362.61 921.737 360.741 920.924C358.79 920.03 356.352 919.054 355.214 918.729C354.076 918.485 352.45 917.672 351.556 917.103C350.662 916.453 349.361 915.965 348.548 915.965C347.735 915.965 345.541 915.234 343.671 914.421C335.787 910.926 328.146 908.162 321.887 906.455C319.448 905.724 316.685 904.667 315.791 904.098C314.896 903.448 313.271 902.96 312.051 902.96C310.832 902.96 308.312 902.228 306.362 901.334C304.411 900.44 301.728 899.709 300.509 899.709C299.29 899.709 296.851 898.977 295.063 898.083C293.275 897.189 290.999 896.457 289.861 896.457C288.804 896.457 286.366 895.726 284.415 894.831C282.464 893.937 279.7 893.206 278.237 893.206C276.774 893.206 273.766 892.474 271.49 891.58C269.215 890.686 266.207 889.954 264.744 889.954C263.281 889.873 260.111 889.223 257.672 888.329C255.234 887.435 251.82 886.784 250.113 886.703C248.406 886.703 244.992 885.971 242.472 885.077C239.871 884.183 236.782 883.452 235.563 883.452C234.262 883.452 230.604 882.72 227.434 881.826C224.183 880.932 220.2 880.2 218.574 880.2C216.949 880.2 212.234 879.469 208.007 878.575C203.78 877.68 198.822 876.949 196.871 876.949C195.002 876.949 187.361 876.217 179.801 875.323C170.535 874.266 157.367 873.535 138.184 873.128L110.141 872.478L109.978 714.786C109.815 628.056 109.572 556.606 109.328 556.037C108.921 554.899 78.4396 554.574 77.7081 555.794C77.4642 556.2 77.2203 633.095 77.2203 726.735C77.1391 860.855 77.3829 897.514 78.1958 899.221C78.7648 900.521 80.8782 902.391 83.2354 903.61L87.3809 905.805L123.553 906.211C158.505 906.699 173.136 907.593 191.019 910.357C193.945 910.845 199.066 911.576 202.399 911.983C205.731 912.47 211.502 913.527 215.079 914.421C218.737 915.234 223.126 915.965 224.833 915.965C226.621 915.965 230.36 916.697 233.124 917.591C235.969 918.485 239.302 919.217 240.521 919.217C241.74 919.217 244.91 919.948 247.512 920.843C250.113 921.737 253.445 922.468 254.908 922.468C256.372 922.468 259.46 923.2 261.736 924.094C264.012 924.988 266.939 925.72 268.239 925.72C269.54 925.72 272.466 926.451 274.742 927.345C277.018 928.239 279.944 928.971 281.326 928.971C282.626 928.971 284.902 929.621 286.366 930.353C287.829 931.084 290.43 931.979 292.218 932.304C295.388 932.873 303.598 935.636 306.849 937.099C308.556 937.912 316.685 940.839 320.424 941.977C321.643 942.383 323.513 943.277 324.488 943.927C325.463 944.659 327.089 945.228 327.983 945.228C328.877 945.228 330.828 945.959 332.291 946.854C333.754 947.748 335.38 948.479 335.949 948.479C336.518 948.479 338.306 949.211 340.013 950.105C341.639 950.999 343.671 951.731 344.403 951.731C345.216 951.731 346.76 952.462 347.898 953.356C349.036 954.251 350.58 954.982 351.393 954.982C352.287 954.982 353.913 955.47 355.051 956.12C358.953 958.233 366.431 961.485 367.406 961.485C368.869 961.485 374.722 965.874 374.397 966.768C373.99 968.069 370.902 968.15 368.869 966.85C367.813 966.199 365.537 965.468 363.748 965.143C361.96 964.817 358.302 963.923 355.62 963.111C350.255 961.485 339.607 959.209 332.047 958.233C329.365 957.827 325.87 957.177 324.325 956.608C322.781 956.12 318.148 955.388 314.165 954.982C310.101 954.576 304.655 953.682 301.972 952.95C299.371 952.3 294.982 951.731 292.218 951.731C289.536 951.731 283.358 950.999 278.4 950.105C273.523 949.211 267.426 948.479 264.988 948.479C262.549 948.479 257.266 947.91 253.201 947.179C249.219 946.528 240.196 945.634 233.287 945.228C226.378 944.903 214.104 943.927 205.975 943.196C185.817 941.408 84.0483 941.814 61.3699 943.846C45.0317 945.309 36.0904 945.553 35.4401 944.578C35.1962 944.171 34.9524 823.301 34.8711 675.932C34.7898 462.967 34.9524 407.693 35.7652 406.718C36.4968 405.823 37.6348 405.661 39.7482 405.986C44.1375 406.718 44.7065 405.498 45.1942 394.444C45.4381 389.079 46.2509 382.657 46.9012 380.056C48.6082 372.903 48.852 372.984 31.2133 372.984C16.8259 372.984 16.0943 373.066 12.3553 375.017C7.64075 377.455 5.03964 380.138 2.19468 385.502L0 389.485V676.257V963.111L2.27597 967.256C5.2835 972.865 10.1606 977.01 16.3382 979.205C22.4345 981.318 25.6046 981.4 38.2038 979.774C43.3247 979.042 53.2414 978.148 60.1506 977.742C67.0598 977.335 79.9027 976.441 88.6002 975.71C101.687 974.572 111.685 974.409 146.312 974.815C169.316 975.059 190.775 975.628 193.864 976.035C197.034 976.441 205.406 977.091 212.559 977.335C219.712 977.66 229.791 978.392 234.912 979.042C240.033 979.774 248.406 980.587 253.445 980.993C258.566 981.4 265.394 982.294 268.646 983.025C271.978 983.676 276.937 984.245 279.782 984.245C282.626 984.326 287.26 984.895 290.186 985.545C293.112 986.195 298.558 987.089 302.379 987.496C306.199 987.902 311.076 988.796 313.271 989.447C315.465 990.178 318.392 990.747 319.774 990.747C322.049 990.747 327.983 991.967 342.208 995.38C345.134 996.112 349.117 996.925 351.149 997.25C356.108 998.063 365.374 1000.34 369.845 1001.88C371.877 1002.53 375.21 1003.35 377.323 1003.75C379.355 1004.16 382.2 1005.05 383.582 1005.7C384.882 1006.44 387.077 1007 388.296 1007C389.516 1007.09 392.036 1007.65 393.824 1008.3C395.612 1009.04 398.376 1009.85 400.001 1010.26C401.546 1010.66 403.984 1011.56 405.285 1012.29C406.585 1012.94 408.374 1013.51 409.187 1013.51C409.999 1013.51 412.194 1014.16 414.064 1015.05C417.234 1016.43 419.022 1017.16 425.362 1019.28C426.744 1019.77 429.345 1020.9 430.971 1021.72C432.597 1022.53 434.629 1023.26 435.441 1023.26C436.254 1023.26 437.799 1023.99 438.937 1024.89C440.075 1025.78 441.457 1026.51 442.107 1026.51C442.676 1026.51 444.545 1027.16 446.171 1027.98C460.802 1035.45 462.834 1036.1 471.857 1037.16C486.326 1038.71 494.454 1037.49 502.339 1032.36C506.891 1029.36 519.327 1023.02 529.975 1018.22C532.008 1017.33 535.015 1015.86 536.641 1015.05C538.266 1014.16 540.217 1013.51 540.949 1013.51C541.599 1013.51 543.55 1012.78 545.176 1011.88C546.883 1010.99 548.915 1010.26 549.646 1010.26C550.459 1010.26 552.654 1009.61 554.523 1008.71C559.4 1006.6 568.342 1003.75 570.049 1003.75C570.862 1003.75 572.894 1003.02 574.682 1002.13C576.47 1001.23 578.746 1000.5 579.884 1000.5C580.941 1000.5 583.542 999.77 585.655 998.876C587.769 997.982 590.451 997.25 591.589 997.25C592.808 997.25 596.141 996.518 598.905 995.624C601.75 994.73 605.082 993.999 606.302 993.999C607.521 993.999 610.691 993.267 613.292 992.373C615.893 991.479 619.551 990.747 621.339 990.747C623.209 990.747 627.029 990.016 629.793 989.122C632.638 988.227 636.54 987.496 638.49 987.496C640.36 987.496 644.831 986.764 648.326 985.87C651.902 984.976 656.779 984.245 659.218 984.245C661.656 984.245 665.721 983.676 668.159 983.025C670.598 982.375 677.182 981.481 682.79 980.993C688.399 980.587 694.983 979.774 697.422 979.367C699.86 978.88 707.42 978.148 714.085 977.742C720.832 977.417 732.943 976.441 741.153 975.71C761.799 973.84 834.63 974.328 845.278 976.441C849.424 977.254 856.577 977.823 863.649 977.823C874.947 977.904 875.272 977.904 878.768 975.628C883.401 972.702 885.514 970.345 888.684 964.33L891.285 959.453V669.185V378.918L889.172 376.155C887.953 374.61 885.352 372.578 883.319 371.521C879.743 369.733 879.093 369.733 857.877 369.896L836.012 370.14V387.209V404.279L846.416 404.36C854.545 404.36 857.065 404.604 857.634 405.58C858.772 407.368 858.609 876.705 857.471 877.437C856.902 877.762 846.741 877.924 834.874 877.843C823.006 877.762 807.969 878.087 801.466 878.575C794.963 879.062 783.096 879.794 775.048 880.2C767.001 880.607 757.328 881.501 753.508 882.151C749.688 882.883 744.567 883.452 742.047 883.452C739.527 883.452 733.837 884.183 729.529 885.077C725.221 885.971 720.263 886.703 718.637 886.703C717.011 886.703 712.866 887.435 709.289 888.329C705.794 889.223 701.73 889.954 700.267 889.954C698.803 889.954 695.227 890.686 692.382 891.58C689.618 892.474 686.204 893.206 684.904 893.206C683.603 893.206 680.108 893.937 677.182 894.75C672.142 896.213 669.785 896.864 661.494 898.977C659.543 899.465 655.804 900.521 653.122 901.416C650.439 902.228 647.513 902.96 646.619 902.96C645.725 903.041 643.53 903.691 641.742 904.586C639.953 905.48 637.759 906.211 636.865 906.211C635.971 906.211 633.776 906.943 631.988 907.837C630.199 908.731 627.842 909.463 626.704 909.463C625.566 909.463 623.615 910.194 622.233 911.088C620.933 911.983 618.982 912.714 617.925 912.714C616.95 912.714 614.674 913.446 612.886 914.34C611.097 915.234 609.147 915.965 608.415 915.965C607.683 915.965 605.733 916.697 603.944 917.591C602.156 918.485 600.124 919.217 599.311 919.217C598.498 919.217 596.954 919.948 595.816 920.843C594.678 921.737 593.052 922.468 592.158 922.468C591.264 922.468 589.638 923.2 588.5 924.094C587.362 924.988 586.062 925.72 585.574 925.72C583.379 925.72 544.525 944.659 537.372 949.13C533.389 951.568 530.788 952.056 530.788 950.268C530.788 949.861 532.008 948.154 533.471 946.366C534.934 944.659 537.047 941.733 538.266 939.944C541.599 934.823 555.174 921.574 563.465 915.315C567.61 912.145 571.837 908.812 572.812 907.918C573.788 906.943 574.845 906.211 575.088 906.211C575.332 906.211 577.527 904.748 579.965 902.96C582.404 901.172 584.517 899.709 584.761 899.709C584.924 899.709 587.281 898.327 589.882 896.62C592.483 894.913 595.166 893.206 595.816 892.881C596.466 892.556 598.498 891.418 600.287 890.361C602.075 889.304 608.821 885.809 615.324 882.558C621.827 879.387 628.492 876.055 630.118 875.242C631.744 874.429 633.613 873.697 634.182 873.697C634.751 873.697 636.621 872.966 638.328 872.072C639.953 871.178 641.986 870.446 642.717 870.446C643.53 870.446 645.4 869.715 646.863 868.82C648.326 867.926 650.277 867.195 651.171 867.195C652.065 867.195 654.178 866.463 655.967 865.569C657.755 864.675 659.787 863.943 660.6 863.943C661.413 863.943 664.258 863.212 666.94 862.399C675.231 859.717 684.254 857.441 686.692 857.441C687.993 857.441 690.838 856.872 693.032 856.14C695.227 855.408 700.348 854.514 704.331 854.189C708.395 853.864 715.142 852.889 719.368 852.157C726.115 850.938 731.805 850.857 765.294 851.182C794.801 851.507 804.148 851.344 806.018 850.531C807.318 850.044 809.432 848.093 810.651 846.305L812.846 843.134V623.991C812.846 489.953 813.171 391.274 813.74 369.896C814.715 331.042 814.797 332.017 809.432 328.115L806.749 326.246L773.585 326.083C755.296 326.002 740.177 325.839 740.015 325.596C739.446 325.027 739.608 234.719 740.177 233.907C740.421 233.5 740.34 232.443 740.096 231.549C739.446 229.517 736.357 229.517 731.968 231.631ZM253.608 361.605C257.428 362.499 261.98 363.23 263.768 363.23C265.557 363.23 269.702 363.962 272.954 364.856C276.124 365.75 279.7 366.482 280.838 366.482C281.976 366.482 284.984 367.213 287.504 368.107C290.105 369.002 293.193 369.733 294.413 369.733C295.632 369.733 298.477 370.465 300.753 371.359C303.029 372.253 305.955 372.984 307.256 372.984C308.556 372.984 311.482 373.716 313.758 374.61C316.034 375.504 318.798 376.236 319.936 376.236C321.074 376.236 323.35 376.967 325.138 377.862C326.927 378.756 329.203 379.487 330.341 379.487C331.397 379.487 333.836 380.219 335.787 381.113C337.737 382.007 340.095 382.739 340.989 382.739C341.883 382.739 344.078 383.47 345.866 384.364C347.654 385.258 349.849 385.99 350.743 385.99C351.637 385.99 353.507 386.722 354.807 387.616C356.189 388.51 357.896 389.241 358.709 389.241C359.522 389.241 361.554 389.892 363.179 390.786C364.805 391.599 367.813 392.98 369.845 393.875C371.877 394.769 375.128 396.151 377.16 397.126C379.193 398.02 381.712 399.158 382.85 399.727C383.988 400.215 385.451 400.946 386.102 401.272C386.752 401.678 388.215 402.491 389.353 403.06C393.58 405.336 394.799 405.986 400.489 409.4C403.74 411.351 406.748 413.464 407.317 414.114C407.805 414.765 408.618 415.252 409.024 415.252C409.674 415.252 415.852 419.561 425.525 426.876C430.321 430.453 455.194 455.732 455.194 457.033C455.194 457.277 456.657 459.634 458.445 462.316C460.233 464.999 461.696 467.6 461.696 468.087C461.696 468.575 462.997 469.713 464.541 470.607C466.655 471.908 467.468 473.046 467.874 475.24C468.606 478.98 467.63 681.947 466.573 746.081C466.167 772.254 465.761 826.309 465.761 866.138C465.679 934.742 465.598 938.725 464.216 938.725C462.916 938.725 458.445 933.035 458.445 931.41C458.445 929.784 425.769 898.245 415.202 889.711C408.699 884.508 403.09 880.2 402.765 880.2C402.44 880.2 400.489 878.818 398.376 877.111C393.986 873.535 386.02 868.17 379.111 864.106C375.453 861.993 373.503 860.855 370.495 858.822C369.357 858.091 367.975 857.441 367.488 857.441C367.081 857.441 365.455 856.628 363.992 855.571C361.391 853.864 345.703 845.979 338.55 842.809C336.762 842.078 333.673 840.615 331.641 839.639C329.609 838.745 327.658 837.932 327.333 837.932C326.927 837.932 325.463 837.363 324.082 836.794C320.749 835.25 312.62 832.405 308.8 831.43C307.256 831.023 304.817 830.129 303.517 829.397C302.216 828.747 300.347 828.178 299.371 828.178C298.396 828.178 295.713 827.447 293.437 826.552C291.161 825.658 288.398 824.927 287.341 824.927C286.284 824.927 283.521 824.195 281.245 823.301C278.969 822.407 275.961 821.675 274.498 821.675C273.035 821.675 269.133 820.944 265.801 820.05C262.468 819.156 258.241 818.424 256.453 818.424C254.665 818.424 249.462 817.692 244.992 816.88C238.489 815.66 232.555 815.254 216.542 815.091C205.406 815.01 195.408 814.604 194.351 814.197L192.401 813.466L192.97 679.59C193.945 424.844 194.433 362.499 195.489 360.792C195.815 360.304 205.162 359.979 221.338 359.979C243.529 359.979 247.593 360.223 253.608 361.605ZM780.169 588.307C780.251 713.729 780.007 816.636 779.682 816.961C779.275 817.367 766.188 817.855 750.582 818.099C731.155 818.343 719.368 818.912 713.272 819.806C708.395 820.456 701.242 821.35 697.422 821.757C693.601 822.082 688.724 822.976 686.53 823.626C684.335 824.358 681.327 824.927 679.945 824.927C678.482 824.927 675.231 825.658 672.63 826.552C670.029 827.447 666.94 828.178 665.802 828.178C664.664 828.178 661.738 828.91 659.38 829.804C657.023 830.698 654.26 831.43 653.203 831.43C652.146 831.43 649.708 832.161 647.757 833.055C645.806 833.949 643.449 834.681 642.473 834.681C641.579 834.681 639.303 835.412 637.434 836.307C635.645 837.201 633.532 837.932 632.882 837.932C632.15 837.932 630.037 838.664 628.167 839.477C626.216 840.29 622.64 841.834 620.201 842.809C616.056 844.435 610.366 846.955 607.033 848.581C594.841 854.514 582.485 861.017 580.372 862.643C579.722 863.131 578.34 864.025 577.364 864.594C576.308 865.081 574.682 866.057 573.707 866.626C572.731 867.113 569.967 868.983 567.61 870.609C565.253 872.316 563.14 873.697 562.896 873.697C562.571 873.697 552.735 880.688 548.264 884.102C542.249 888.654 524.936 903.773 520.221 908.569C513.15 915.722 505.834 924.744 502.501 930.353C499.169 936.043 497.868 935.555 497.868 928.565C497.949 907.105 499.981 757.704 500.307 750.145C500.55 745.024 500.713 681.134 500.713 608.141L500.794 475.566L503.395 471.989C504.858 470.12 506.484 467.6 507.053 466.462C509.573 461.26 514.938 453.375 516.32 452.806C516.645 452.643 516.97 451.993 516.97 451.343C516.97 449.717 533.796 432.891 540.949 427.364C553.629 417.528 559.4 413.545 571.024 406.718C577.689 402.735 578.096 402.572 580.372 401.515C581.51 401.028 582.973 400.296 583.623 399.971C584.274 399.565 585.655 398.833 586.712 398.345C587.687 397.776 589.151 397.045 589.963 396.638C591.589 395.825 598.336 392.737 601.912 391.192C603.294 390.623 606.464 389.241 608.984 388.103C611.504 386.965 614.024 385.99 614.511 385.99C614.999 385.99 616.787 385.258 618.576 384.364C620.364 383.47 622.477 382.739 623.371 382.739C624.266 382.739 626.623 382.088 628.492 381.194C630.443 380.381 634.751 378.918 638.084 377.862C641.417 376.886 645.806 375.586 647.838 374.854C649.87 374.204 653.365 373.391 655.56 372.984C657.836 372.578 661.006 371.765 662.632 371.034C664.339 370.302 666.777 369.733 668.159 369.733C669.541 369.733 673.28 369.002 676.45 368.107C679.702 367.213 683.603 366.482 685.229 366.482C686.773 366.482 690.675 365.75 693.764 364.856C696.853 363.962 701.079 363.23 703.112 363.149C705.144 363.149 709.858 362.417 713.679 361.605C719.775 360.304 724.246 360.142 750.257 360.223L779.925 360.385L780.169 588.307ZM857.471 913.121C858.04 913.446 858.365 918.648 858.365 927.67C858.365 938.806 858.121 941.977 857.227 942.708C856.333 943.44 854.301 943.44 849.017 942.789C839.345 941.57 740.746 941.57 727.903 942.789C722.539 943.277 717.499 943.846 716.767 944.09C716.036 944.334 710.021 944.821 703.355 945.228C696.771 945.716 687.83 946.61 683.603 947.26C679.376 947.91 673.849 948.398 671.411 948.479C668.972 948.479 663.12 949.211 658.405 950.105C653.691 950.999 648.407 951.731 646.619 951.731C644.831 951.731 640.766 952.462 637.677 953.356C634.589 954.251 630.524 954.982 628.736 954.982C626.948 954.982 623.453 955.551 621.014 956.201C618.576 956.852 614.349 957.827 611.666 958.315C609.065 958.721 606.464 959.453 605.977 959.859C604.92 960.753 592.565 963.354 591.996 962.867C591.02 961.81 594.19 958.884 597.604 957.746C599.718 957.095 601.668 956.12 601.912 955.714C602.237 955.307 603.213 954.982 604.188 954.982C605.164 954.982 606.871 954.251 608.009 953.356C609.147 952.462 610.691 951.731 611.504 951.731C612.398 951.731 614.024 951.243 615.162 950.593C616.381 949.942 619.551 948.479 622.233 947.423C626.867 945.553 628.817 944.821 635.076 942.708C636.458 942.139 638.978 941.245 640.522 940.513C642.067 939.863 644.668 939.05 646.212 938.644C647.757 938.319 650.927 937.425 653.122 936.693C655.398 935.88 658.324 934.905 659.624 934.498C661.006 934.011 663.526 933.279 665.314 932.873C667.103 932.466 670.76 931.41 673.443 930.515C676.125 929.621 679.458 928.971 680.758 928.89C682.14 928.89 684.66 928.321 686.448 927.67C688.236 927.02 691.894 926.126 694.577 925.72C697.259 925.394 701.486 924.5 703.924 923.769C706.363 923.037 710.021 922.468 712.053 922.468C714.085 922.468 718.474 921.737 721.807 920.843C725.14 919.948 729.529 919.217 731.561 919.217C733.593 919.217 739.283 918.485 744.16 917.591C749.119 916.697 755.459 915.965 758.385 915.965C761.311 915.965 767.326 915.315 771.797 914.584C783.502 912.714 854.87 911.495 857.471 913.121Z" fill="url(#paint1_linear_160_262)"/>
<path d="M1244.31 498.612H1086.31C1079.98 498.612 1075.31 497.279 1072.31 494.612C1069.65 491.612 1068.31 486.946 1068.31 480.612V422.112C1068.31 415.779 1069.65 411.279 1072.31 408.612C1075.31 405.612 1079.98 404.112 1086.31 404.112H1220.81C1225.15 404.112 1228.31 402.779 1230.31 400.112C1232.65 397.112 1233.81 393.612 1233.81 389.612C1233.81 383.946 1232.65 379.779 1230.31 377.112C1228.31 374.446 1225.15 372.946 1220.81 372.612L1145.81 362.112C1122.48 358.779 1103.65 351.112 1089.31 339.112C1075.31 327.112 1068.31 307.112 1068.31 279.112V226.612C1068.31 198.279 1077.48 176.612 1095.81 161.612C1114.15 146.279 1139.48 138.612 1171.81 138.612H1311.81C1318.15 138.612 1322.65 140.112 1325.31 143.112C1328.31 145.779 1329.81 150.279 1329.81 156.612V216.112C1329.81 222.446 1328.31 227.112 1325.31 230.112C1322.65 232.779 1318.15 234.112 1311.81 234.112H1195.31C1190.98 234.112 1187.65 235.612 1185.31 238.612C1182.98 241.279 1181.81 244.779 1181.81 249.112C1181.81 253.446 1182.98 257.112 1185.31 260.112C1187.65 263.112 1190.98 264.779 1195.31 265.112L1269.81 275.112C1293.15 278.446 1311.98 286.112 1326.31 298.112C1340.65 310.112 1347.81 330.112 1347.81 358.112V410.612C1347.81 438.946 1338.48 460.779 1319.81 476.112C1301.48 491.112 1276.31 498.612 1244.31 498.612Z" fill="#7662FD"/>
<path d="M1732.31 498.612H1574.81C1533.15 498.612 1502.15 490.279 1481.81 473.612C1461.81 456.946 1451.81 431.279 1451.81 396.612V240.612C1451.81 205.946 1461.81 180.279 1481.81 163.612C1502.15 146.946 1533.15 138.612 1574.81 138.612H1699.81C1706.15 138.612 1710.65 140.112 1713.31 143.112C1716.31 145.779 1717.81 150.279 1717.81 156.612V217.112C1717.81 223.446 1716.31 228.112 1713.31 231.112C1710.65 233.779 1706.15 235.112 1699.81 235.112H1595.81C1585.48 235.112 1577.81 237.279 1572.81 241.612C1567.81 245.612 1565.31 251.779 1565.31 260.112V379.612C1565.31 387.946 1567.15 394.112 1570.81 398.112C1574.81 402.112 1580.65 404.112 1588.31 404.112H1636.81V326.112C1636.81 319.779 1638.15 315.279 1640.81 312.612C1643.81 309.612 1648.48 308.112 1654.81 308.112H1732.31C1738.65 308.112 1743.15 309.612 1745.81 312.612C1748.81 315.279 1750.31 319.779 1750.31 326.112V480.612C1750.31 486.946 1748.81 491.612 1745.81 494.612C1743.15 497.279 1738.65 498.612 1732.31 498.612Z" fill="#7662FD"/>
<path d="M2040.81 498.612H1872.31C1865.98 498.612 1861.31 497.279 1858.31 494.612C1855.65 491.612 1854.31 486.946 1854.31 480.612V156.612C1854.31 150.279 1855.65 145.779 1858.31 143.112C1861.31 140.112 1865.98 138.612 1872.31 138.612H2040.81C2082.48 138.612 2113.31 146.946 2133.31 163.612C2153.65 180.279 2163.81 205.946 2163.81 240.612V396.612C2163.81 431.279 2153.65 456.946 2133.31 473.612C2113.31 490.279 2082.48 498.612 2040.81 498.612ZM1967.81 234.112V404.112H2027.31C2035.31 404.112 2041.15 402.112 2044.81 398.112C2048.81 394.112 2050.81 387.946 2050.81 379.612V258.112C2050.81 249.779 2048.81 243.779 2044.81 240.112C2041.15 236.112 2035.31 234.112 2027.31 234.112H1967.81Z" fill="#7662FD"/>
<path d="M2517.81 498.612H2285.81C2279.48 498.612 2274.81 497.279 2271.81 494.612C2269.15 491.612 2267.81 486.946 2267.81 480.612V156.612C2267.81 150.279 2269.15 145.779 2271.81 143.112C2274.81 140.112 2279.48 138.612 2285.81 138.612H2517.81C2524.15 138.612 2528.65 140.112 2531.31 143.112C2534.31 145.779 2535.81 150.279 2535.81 156.612V215.112C2535.81 221.446 2534.31 226.112 2531.31 229.112C2528.65 231.779 2524.15 233.112 2517.81 233.112H2379.81V271.612H2477.31C2483.65 271.612 2488.15 273.112 2490.81 276.112C2493.81 278.779 2495.31 283.279 2495.31 289.612V343.112C2495.31 349.446 2493.81 354.112 2490.81 357.112C2488.15 359.779 2483.65 361.112 2477.31 361.112H2379.81V404.112H2517.81C2524.15 404.112 2528.65 405.612 2531.31 408.612C2534.31 411.279 2535.81 415.779 2535.81 422.112V480.612C2535.81 486.946 2534.31 491.612 2531.31 494.612C2528.65 497.279 2524.15 498.612 2517.81 498.612Z" fill="#7662FD"/>
<path d="M1506.91 667.732H1476.58C1475.36 667.732 1474.47 667.476 1473.89 666.964C1473.38 666.388 1473.12 665.492 1473.12 664.276V653.044C1473.12 651.828 1473.38 650.964 1473.89 650.452C1474.47 649.876 1475.36 649.588 1476.58 649.588H1502.4C1503.23 649.588 1503.84 649.332 1504.23 648.82C1504.67 648.244 1504.9 647.572 1504.9 646.804C1504.9 645.716 1504.67 644.916 1504.23 644.404C1503.84 643.892 1503.23 643.604 1502.4 643.54L1488 641.524C1483.52 640.884 1479.91 639.412 1477.15 637.108C1474.47 634.804 1473.12 630.964 1473.12 625.588V615.508C1473.12 610.068 1474.88 605.908 1478.4 603.028C1481.92 600.084 1486.79 598.612 1492.99 598.612H1519.87C1521.09 598.612 1521.95 598.9 1522.47 599.476C1523.04 599.988 1523.33 600.852 1523.33 602.068V613.492C1523.33 614.708 1523.04 615.604 1522.47 616.18C1521.95 616.692 1521.09 616.948 1519.87 616.948H1497.51C1496.67 616.948 1496.03 617.236 1495.59 617.812C1495.14 618.324 1494.91 618.996 1494.91 619.828C1494.91 620.66 1495.14 621.364 1495.59 621.94C1496.03 622.516 1496.67 622.836 1497.51 622.9L1511.81 624.82C1516.29 625.46 1519.91 626.932 1522.66 629.236C1525.41 631.54 1526.79 635.38 1526.79 640.756V650.836C1526.79 656.276 1524.99 660.468 1521.41 663.412C1517.89 666.292 1513.06 667.732 1506.91 667.732Z" fill="white"/>
<path d="M1544.97 667.732C1543.75 667.732 1542.86 667.476 1542.28 666.964C1541.77 666.388 1541.51 665.492 1541.51 664.276V652.852C1541.51 651.636 1541.77 650.772 1542.28 650.26C1542.86 649.684 1543.75 649.396 1544.97 649.396H1554.47V617.14H1544.97C1543.75 617.14 1542.86 616.884 1542.28 616.372C1541.77 615.796 1541.51 614.9 1541.51 613.684V602.068C1541.51 600.852 1541.77 599.988 1542.28 599.476C1542.86 598.9 1543.75 598.612 1544.97 598.612H1585.86C1587.08 598.612 1587.94 598.9 1588.46 599.476C1589.03 599.988 1589.32 600.852 1589.32 602.068V613.684C1589.32 614.9 1589.03 615.796 1588.46 616.372C1587.94 616.884 1587.08 617.14 1585.86 617.14H1576.55V649.396H1585.86C1587.08 649.396 1587.94 649.684 1588.46 650.26C1589.03 650.772 1589.32 651.636 1589.32 652.852V664.276C1589.32 665.492 1589.03 666.388 1588.46 666.964C1587.94 667.476 1587.08 667.732 1585.86 667.732H1544.97Z" fill="white"/>
<path d="M1639 667.732H1608.66C1607.44 667.732 1606.55 667.476 1605.97 666.964C1605.46 666.388 1605.2 665.492 1605.2 664.276V653.044C1605.2 651.828 1605.46 650.964 1605.97 650.452C1606.55 649.876 1607.44 649.588 1608.66 649.588H1634.48C1635.32 649.588 1635.92 649.332 1636.31 648.82C1636.76 648.244 1636.98 647.572 1636.98 646.804C1636.98 645.716 1636.76 644.916 1636.31 644.404C1635.92 643.892 1635.32 643.604 1634.48 643.54L1620.08 641.524C1615.6 640.884 1611.99 639.412 1609.24 637.108C1606.55 634.804 1605.2 630.964 1605.2 625.588V615.508C1605.2 610.068 1606.96 605.908 1610.48 603.028C1614 600.084 1618.87 598.612 1625.08 598.612H1651.96C1653.17 598.612 1654.04 598.9 1654.55 599.476C1655.12 599.988 1655.41 600.852 1655.41 602.068V613.492C1655.41 614.708 1655.12 615.604 1654.55 616.18C1654.04 616.692 1653.17 616.948 1651.96 616.948H1629.59C1628.76 616.948 1628.12 617.236 1627.67 617.812C1627.22 618.324 1627 618.996 1627 619.828C1627 620.66 1627.22 621.364 1627.67 621.94C1628.12 622.516 1628.76 622.836 1629.59 622.9L1643.89 624.82C1648.37 625.46 1651.99 626.932 1654.74 629.236C1657.49 631.54 1658.87 635.38 1658.87 640.756V650.836C1658.87 656.276 1657.08 660.468 1653.49 663.412C1649.97 666.292 1645.14 667.732 1639 667.732Z" fill="white"/>
<path d="M1706.83 667.732H1691.28C1690.06 667.732 1689.17 667.476 1688.59 666.964C1688.08 666.388 1687.82 665.492 1687.82 664.276V617.14H1673.71C1672.5 617.14 1671.6 616.884 1671.02 616.372C1670.51 615.796 1670.26 614.9 1670.26 613.684V602.068C1670.26 600.852 1670.51 599.988 1671.02 599.476C1671.6 598.9 1672.5 598.612 1673.71 598.612H1724.4C1725.62 598.612 1726.48 598.9 1726.99 599.476C1727.57 599.988 1727.86 600.852 1727.86 602.068V613.684C1727.86 614.9 1727.57 615.796 1726.99 616.372C1726.48 616.884 1725.62 617.14 1724.4 617.14H1710.29V664.276C1710.29 665.492 1710 666.388 1709.42 666.964C1708.91 667.476 1708.05 667.732 1706.83 667.732Z" fill="white"/>
<path d="M1790.95 667.732H1746.41C1745.19 667.732 1744.3 667.476 1743.72 666.964C1743.21 666.388 1742.95 665.492 1742.95 664.276V602.068C1742.95 600.852 1743.21 599.988 1743.72 599.476C1744.3 598.9 1745.19 598.612 1746.41 598.612H1790.95C1792.17 598.612 1793.03 598.9 1793.54 599.476C1794.12 599.988 1794.41 600.852 1794.41 602.068V613.3C1794.41 614.516 1794.12 615.412 1793.54 615.988C1793.03 616.5 1792.17 616.756 1790.95 616.756H1764.46V624.148H1783.18C1784.39 624.148 1785.26 624.436 1785.77 625.012C1786.34 625.524 1786.63 626.388 1786.63 627.604V637.876C1786.63 639.092 1786.34 639.988 1785.77 640.564C1785.26 641.076 1784.39 641.332 1783.18 641.332H1764.46V649.588H1790.95C1792.17 649.588 1793.03 649.876 1793.54 650.452C1794.12 650.964 1794.41 651.828 1794.41 653.044V664.276C1794.41 665.492 1794.12 666.388 1793.54 666.964C1793.03 667.476 1792.17 667.732 1790.95 667.732Z" fill="white"/>
<path d="M1829.28 667.732H1814.98C1813.76 667.732 1812.87 667.476 1812.29 666.964C1811.78 666.388 1811.52 665.492 1811.52 664.276V602.068C1811.52 600.852 1811.78 599.988 1812.29 599.476C1812.87 598.9 1813.76 598.612 1814.98 598.612H1830.44C1831.46 598.612 1832.29 598.836 1832.93 599.284C1833.64 599.732 1834.28 600.468 1834.85 601.492L1843.49 617.14C1843.81 617.716 1844.07 618.132 1844.26 618.388C1844.52 618.644 1844.84 618.772 1845.22 618.772H1846.08C1846.47 618.772 1846.76 618.644 1846.95 618.388C1847.2 618.132 1847.49 617.716 1847.81 617.14L1856.36 601.492C1856.93 600.468 1857.54 599.732 1858.18 599.284C1858.88 598.836 1859.75 598.612 1860.77 598.612H1876.32C1877.54 598.612 1878.4 598.9 1878.92 599.476C1879.49 599.988 1879.78 600.852 1879.78 602.068V664.276C1879.78 665.492 1879.49 666.388 1878.92 666.964C1878.4 667.476 1877.54 667.732 1876.32 667.732H1861.54C1860.32 667.732 1859.43 667.476 1858.85 666.964C1858.34 666.388 1858.08 665.492 1858.08 664.276V630.484L1852.42 640.948C1851.84 642.036 1851.14 642.836 1850.31 643.348C1849.54 643.796 1848.55 644.02 1847.33 644.02H1843.49C1842.28 644.02 1841.25 643.796 1840.42 643.348C1839.65 642.836 1838.98 642.036 1838.4 640.948L1832.74 630.484V664.276C1832.74 665.492 1832.45 666.388 1831.88 666.964C1831.36 667.476 1830.5 667.732 1829.28 667.732Z" fill="white"/>
<path d="M1923.81 618.772L1919.3 633.364H1934.37L1929.86 618.772C1929.6 618.196 1929.31 617.78 1928.99 617.524C1928.74 617.268 1928.42 617.14 1928.03 617.14H1925.63C1925.25 617.14 1924.9 617.268 1924.58 617.524C1924.32 617.78 1924.07 618.196 1923.81 618.772ZM1918.34 664.276C1918.34 665.492 1918.05 666.388 1917.47 666.964C1916.96 667.476 1916.1 667.732 1914.88 667.732H1900.77C1899.55 667.732 1898.66 667.476 1898.08 666.964C1897.57 666.388 1897.31 665.492 1897.31 664.276V638.932C1897.31 637.012 1897.6 634.804 1898.18 632.308C1898.82 629.812 1899.78 626.9 1901.06 623.572L1909.41 601.78C1909.79 600.692 1910.37 599.892 1911.14 599.38C1911.97 598.868 1913.03 598.612 1914.31 598.612H1940.13C1941.35 598.612 1942.34 598.868 1943.11 599.38C1943.94 599.892 1944.55 600.692 1944.93 601.78L1953.28 623.572C1954.56 626.9 1955.49 629.812 1956.07 632.308C1956.71 634.804 1957.03 637.012 1957.03 638.932V664.276C1957.03 665.492 1956.74 666.388 1956.16 666.964C1955.65 667.476 1954.79 667.732 1953.57 667.732H1939.07C1937.79 667.732 1936.83 667.476 1936.19 666.964C1935.62 666.388 1935.33 665.492 1935.33 664.276V650.836H1918.34V664.276Z" fill="white"/>
<path d="M2037.3 667.732H2004.95C2003.73 667.732 2002.84 667.476 2002.26 666.964C2001.75 666.388 2001.49 665.492 2001.49 664.276V602.068C2001.49 600.852 2001.75 599.988 2002.26 599.476C2002.84 598.9 2003.73 598.612 2004.95 598.612H2037.3C2045.3 598.612 2051.22 600.212 2055.06 603.412C2058.96 606.612 2060.92 611.54 2060.92 618.196V648.148C2060.92 654.804 2058.96 659.732 2055.06 662.932C2051.22 666.132 2045.3 667.732 2037.3 667.732ZM2023.28 616.948V649.588H2034.71C2036.24 649.588 2037.36 649.204 2038.07 648.436C2038.84 647.668 2039.22 646.484 2039.22 644.884V621.556C2039.22 619.956 2038.84 618.804 2038.07 618.1C2037.36 617.332 2036.24 616.948 2034.71 616.948H2023.28Z" fill="white"/>
<path d="M2126.88 667.732H2082.33C2081.12 667.732 2080.22 667.476 2079.65 666.964C2079.13 666.388 2078.88 665.492 2078.88 664.276V602.068C2078.88 600.852 2079.13 599.988 2079.65 599.476C2080.22 598.9 2081.12 598.612 2082.33 598.612H2126.88C2128.09 598.612 2128.96 598.9 2129.47 599.476C2130.05 599.988 2130.33 600.852 2130.33 602.068V613.3C2130.33 614.516 2130.05 615.412 2129.47 615.988C2128.96 616.5 2128.09 616.756 2126.88 616.756H2100.38V624.148H2119.1C2120.32 624.148 2121.18 624.436 2121.69 625.012C2122.27 625.524 2122.56 626.388 2122.56 627.604V637.876C2122.56 639.092 2122.27 639.988 2121.69 640.564C2121.18 641.076 2120.32 641.332 2119.1 641.332H2100.38V649.588H2126.88C2128.09 649.588 2128.96 649.876 2129.47 650.452C2130.05 650.964 2130.33 651.828 2130.33 653.044V664.276C2130.33 665.492 2130.05 666.388 2129.47 666.964C2128.96 667.476 2128.09 667.732 2126.88 667.732Z" fill="white"/>
<path d="M1263.04 782.732H1232.8C1224.8 782.732 1218.84 781.132 1214.94 777.932C1211.1 774.732 1209.18 769.804 1209.18 763.148V733.196C1209.18 726.54 1211.1 721.612 1214.94 718.412C1218.84 715.212 1224.8 713.612 1232.8 713.612H1256.8C1258.01 713.612 1258.88 713.9 1259.39 714.476C1259.96 714.988 1260.25 715.852 1260.25 717.068V728.684C1260.25 729.9 1259.96 730.796 1259.39 731.372C1258.88 731.884 1258.01 732.14 1256.8 732.14H1236.83C1234.84 732.14 1233.37 732.556 1232.41 733.388C1231.45 734.156 1230.97 735.34 1230.97 736.94V759.884C1230.97 761.484 1231.32 762.668 1232.03 763.436C1232.8 764.204 1233.92 764.588 1235.39 764.588H1244.7V749.612C1244.7 748.396 1244.96 747.532 1245.47 747.02C1246.04 746.444 1246.94 746.156 1248.16 746.156H1263.04C1264.25 746.156 1265.12 746.444 1265.63 747.02C1266.2 747.532 1266.49 748.396 1266.49 749.612V779.276C1266.49 780.492 1266.2 781.388 1265.63 781.964C1265.12 782.476 1264.25 782.732 1263.04 782.732Z" fill="white"/>
<path d="M1331.97 782.732H1287.42C1286.21 782.732 1285.31 782.476 1284.73 781.964C1284.22 781.388 1283.97 780.492 1283.97 779.276V717.068C1283.97 715.852 1284.22 714.988 1284.73 714.476C1285.31 713.9 1286.21 713.612 1287.42 713.612H1331.97C1333.18 713.612 1334.05 713.9 1334.56 714.476C1335.13 714.988 1335.42 715.852 1335.42 717.068V728.3C1335.42 729.516 1335.13 730.412 1334.56 730.988C1334.05 731.5 1333.18 731.756 1331.97 731.756H1305.47V739.148H1324.19C1325.41 739.148 1326.27 739.436 1326.78 740.012C1327.36 740.524 1327.65 741.388 1327.65 742.604V752.876C1327.65 754.092 1327.36 754.988 1326.78 755.564C1326.27 756.076 1325.41 756.332 1324.19 756.332H1305.47V764.588H1331.97C1333.18 764.588 1334.05 764.876 1334.56 765.452C1335.13 765.964 1335.42 766.828 1335.42 768.044V779.276C1335.42 780.492 1335.13 781.388 1334.56 781.964C1334.05 782.476 1333.18 782.732 1331.97 782.732Z" fill="white"/>
<path d="M1370.39 782.732H1355.99C1354.78 782.732 1353.88 782.476 1353.31 781.964C1352.79 781.388 1352.54 780.492 1352.54 779.276V717.068C1352.54 715.852 1352.79 714.988 1353.31 714.476C1353.88 713.9 1354.78 713.612 1355.99 713.612H1365.98C1367.19 713.612 1368.22 713.804 1369.05 714.188C1369.95 714.572 1370.81 715.244 1371.64 716.204L1390.27 737.516V717.068C1390.27 715.852 1390.52 714.988 1391.03 714.476C1391.61 713.9 1392.51 713.612 1393.72 713.612H1408.12C1409.34 713.612 1410.2 713.9 1410.71 714.476C1411.29 714.988 1411.58 715.852 1411.58 717.068V779.276C1411.58 780.492 1411.29 781.388 1410.71 781.964C1410.2 782.476 1409.34 782.732 1408.12 782.732H1393.72C1392.51 782.732 1391.61 782.476 1391.03 781.964C1390.52 781.388 1390.27 780.492 1390.27 779.276V767.468L1373.85 747.596V779.276C1373.85 780.492 1373.56 781.388 1372.99 781.964C1372.47 782.476 1371.61 782.732 1370.39 782.732Z" fill="white"/>
<path d="M1452.28 730.892V743.18H1459.48C1461.14 743.18 1462.26 742.764 1462.84 741.932C1463.41 741.036 1463.7 739.948 1463.7 738.668V735.404C1463.7 734.124 1463.41 733.068 1462.84 732.236C1462.26 731.34 1461.14 730.892 1459.48 730.892H1452.28ZM1448.82 782.732H1434.04C1432.82 782.732 1431.92 782.476 1431.35 781.964C1430.84 781.388 1430.58 780.492 1430.58 779.276V717.068C1430.58 715.852 1430.84 714.988 1431.35 714.476C1431.92 713.9 1432.82 713.612 1434.04 713.612H1466C1473.17 713.612 1478.1 715.116 1480.79 718.124C1483.54 721.068 1484.92 724.908 1484.92 729.644V734.06C1484.92 736.748 1484.5 739.052 1483.67 740.972C1482.9 742.828 1481.52 744.172 1479.54 745.004C1483 745.388 1485.78 746.796 1487.89 749.228C1490.07 751.66 1491.16 754.892 1491.16 758.924V779.276C1491.16 780.492 1490.87 781.388 1490.29 781.964C1489.78 782.476 1488.92 782.732 1487.7 782.732H1472.82C1471.6 782.732 1470.71 782.476 1470.13 781.964C1469.62 781.388 1469.36 780.492 1469.36 779.276V764.588C1469.36 763.18 1469.08 762.156 1468.5 761.516C1467.99 760.812 1467.06 760.46 1465.72 760.46H1452.28V779.276C1452.28 780.492 1451.99 781.388 1451.41 781.964C1450.9 782.476 1450.04 782.732 1448.82 782.732Z" fill="white"/>
<path d="M1555.68 782.732H1511.14C1509.92 782.732 1509.03 782.476 1508.45 781.964C1507.94 781.388 1507.68 780.492 1507.68 779.276V717.068C1507.68 715.852 1507.94 714.988 1508.45 714.476C1509.03 713.9 1509.92 713.612 1511.14 713.612H1555.68C1556.9 713.612 1557.76 713.9 1558.27 714.476C1558.85 714.988 1559.14 715.852 1559.14 717.068V728.3C1559.14 729.516 1558.85 730.412 1558.27 730.988C1557.76 731.5 1556.9 731.756 1555.68 731.756H1529.19V739.148H1547.91C1549.12 739.148 1549.99 739.436 1550.5 740.012C1551.07 740.524 1551.36 741.388 1551.36 742.604V752.876C1551.36 754.092 1551.07 754.988 1550.5 755.564C1549.99 756.076 1549.12 756.332 1547.91 756.332H1529.19V764.588H1555.68C1556.9 764.588 1557.76 764.876 1558.27 765.452C1558.85 765.964 1559.14 766.828 1559.14 768.044V779.276C1559.14 780.492 1558.85 781.388 1558.27 781.964C1557.76 782.476 1556.9 782.732 1555.68 782.732Z" fill="white"/>
<path d="M1594.11 782.732H1579.71C1578.5 782.732 1577.6 782.476 1577.02 781.964C1576.51 781.388 1576.26 780.492 1576.26 779.276V717.068C1576.26 715.852 1576.51 714.988 1577.02 714.476C1577.6 713.9 1578.5 713.612 1579.71 713.612H1589.7C1590.91 713.612 1591.94 713.804 1592.77 714.188C1593.66 714.572 1594.53 715.244 1595.36 716.204L1613.98 737.516V717.068C1613.98 715.852 1614.24 714.988 1614.75 714.476C1615.33 713.9 1616.22 713.612 1617.44 713.612H1631.84C1633.06 713.612 1633.92 713.9 1634.43 714.476C1635.01 714.988 1635.3 715.852 1635.3 717.068V779.276C1635.3 780.492 1635.01 781.388 1634.43 781.964C1633.92 782.476 1633.06 782.732 1631.84 782.732H1617.44C1616.22 782.732 1615.33 782.476 1614.75 781.964C1614.24 781.388 1613.98 780.492 1613.98 779.276V767.468L1597.57 747.596V779.276C1597.57 780.492 1597.28 781.388 1596.7 781.964C1596.19 782.476 1595.33 782.732 1594.11 782.732Z" fill="white"/>
<path d="M1700.28 782.732H1676.86C1668.86 782.732 1662.9 781.132 1659 777.932C1655.16 774.732 1653.24 769.804 1653.24 763.148V733.292C1653.24 726.636 1655.16 721.708 1659 718.508C1662.9 715.244 1668.86 713.612 1676.86 713.612H1700.28C1701.5 713.612 1702.36 713.9 1702.87 714.476C1703.45 714.988 1703.74 715.852 1703.74 717.068V728.684C1703.74 729.9 1703.45 730.796 1702.87 731.372C1702.36 731.884 1701.5 732.14 1700.28 732.14H1680.98C1679 732.14 1677.53 732.556 1676.57 733.388C1675.61 734.156 1675.13 735.34 1675.13 736.94V759.788C1675.13 761.388 1675.61 762.572 1676.57 763.34C1677.53 764.044 1679 764.396 1680.98 764.396H1700.28C1701.5 764.396 1702.36 764.684 1702.87 765.26C1703.45 765.772 1703.74 766.636 1703.74 767.852V779.276C1703.74 780.492 1703.45 781.388 1702.87 781.964C1702.36 782.476 1701.5 782.732 1700.28 782.732Z" fill="white"/>
<path d="M1722.26 782.732C1721.04 782.732 1720.15 782.476 1719.57 781.964C1719.06 781.388 1718.8 780.492 1718.8 779.276V767.852C1718.8 766.636 1719.06 765.772 1719.57 765.26C1720.15 764.684 1721.04 764.396 1722.26 764.396H1731.76V732.14H1722.26C1721.04 732.14 1720.15 731.884 1719.57 731.372C1719.06 730.796 1718.8 729.9 1718.8 728.684V717.068C1718.8 715.852 1719.06 714.988 1719.57 714.476C1720.15 713.9 1721.04 713.612 1722.26 713.612H1763.15C1764.37 713.612 1765.23 713.9 1765.75 714.476C1766.32 714.988 1766.61 715.852 1766.61 717.068V728.684C1766.61 729.9 1766.32 730.796 1765.75 731.372C1765.23 731.884 1764.37 732.14 1763.15 732.14H1753.84V764.396H1763.15C1764.37 764.396 1765.23 764.684 1765.75 765.26C1766.32 765.772 1766.61 766.636 1766.61 767.852V779.276C1766.61 780.492 1766.32 781.388 1765.75 781.964C1765.23 782.476 1764.37 782.732 1763.15 782.732H1722.26Z" fill="white"/>
<path d="M1809.28 733.772L1804.77 748.364H1819.84L1815.33 733.772C1815.07 733.196 1814.78 732.78 1814.46 732.524C1814.21 732.268 1813.89 732.14 1813.5 732.14H1811.1C1810.72 732.14 1810.37 732.268 1810.05 732.524C1809.79 732.78 1809.53 733.196 1809.28 733.772ZM1803.81 779.276C1803.81 780.492 1803.52 781.388 1802.94 781.964C1802.43 782.476 1801.57 782.732 1800.35 782.732H1786.24C1785.02 782.732 1784.13 782.476 1783.55 781.964C1783.04 781.388 1782.78 780.492 1782.78 779.276V753.932C1782.78 752.012 1783.07 749.804 1783.65 747.308C1784.29 744.812 1785.25 741.9 1786.53 738.572L1794.88 716.78C1795.26 715.692 1795.84 714.892 1796.61 714.38C1797.44 713.868 1798.49 713.612 1799.77 713.612H1825.6C1826.81 713.612 1827.81 713.868 1828.57 714.38C1829.41 714.892 1830.01 715.692 1830.4 716.78L1838.75 738.572C1840.03 741.9 1840.96 744.812 1841.53 747.308C1842.17 749.804 1842.49 752.012 1842.49 753.932V779.276C1842.49 780.492 1842.21 781.388 1841.63 781.964C1841.12 782.476 1840.25 782.732 1839.04 782.732H1824.54C1823.26 782.732 1822.3 782.476 1821.66 781.964C1821.09 781.388 1820.8 780.492 1820.8 779.276V765.836H1803.81V779.276Z" fill="white"/>
<path d="M1877.87 782.732H1863.56C1862.35 782.732 1861.45 782.476 1860.88 781.964C1860.36 781.388 1860.11 780.492 1860.11 779.276V717.068C1860.11 715.852 1860.36 714.988 1860.88 714.476C1861.45 713.9 1862.35 713.612 1863.56 713.612H1879.02C1880.04 713.612 1880.88 713.836 1881.52 714.284C1882.22 714.732 1882.86 715.468 1883.44 716.492L1892.08 732.14C1892.4 732.716 1892.65 733.132 1892.84 733.388C1893.1 733.644 1893.42 733.772 1893.8 733.772H1894.67C1895.05 733.772 1895.34 733.644 1895.53 733.388C1895.79 733.132 1896.08 732.716 1896.4 732.14L1904.94 716.492C1905.52 715.468 1906.12 714.732 1906.76 714.284C1907.47 713.836 1908.33 713.612 1909.36 713.612H1924.91C1926.12 713.612 1926.99 713.9 1927.5 714.476C1928.08 714.988 1928.36 715.852 1928.36 717.068V779.276C1928.36 780.492 1928.08 781.388 1927.5 781.964C1926.99 782.476 1926.12 782.732 1924.91 782.732H1910.12C1908.91 782.732 1908.01 782.476 1907.44 781.964C1906.92 781.388 1906.67 780.492 1906.67 779.276V745.484L1901 755.948C1900.43 757.036 1899.72 757.836 1898.89 758.348C1898.12 758.796 1897.13 759.02 1895.92 759.02H1892.08C1890.86 759.02 1889.84 758.796 1889 758.348C1888.24 757.836 1887.56 757.036 1886.99 755.948L1881.32 745.484V779.276C1881.32 780.492 1881.04 781.388 1880.46 781.964C1879.95 782.476 1879.08 782.732 1877.87 782.732Z" fill="white"/>
<path d="M1995.34 782.732H1950.79C1949.58 782.732 1948.68 782.476 1948.1 781.964C1947.59 781.388 1947.34 780.492 1947.34 779.276V717.068C1947.34 715.852 1947.59 714.988 1948.1 714.476C1948.68 713.9 1949.58 713.612 1950.79 713.612H1995.34C1996.55 713.612 1997.42 713.9 1997.93 714.476C1998.5 714.988 1998.79 715.852 1998.79 717.068V728.3C1998.79 729.516 1998.5 730.412 1997.93 730.988C1997.42 731.5 1996.55 731.756 1995.34 731.756H1968.84V739.148H1987.56C1988.78 739.148 1989.64 739.436 1990.15 740.012C1990.73 740.524 1991.02 741.388 1991.02 742.604V752.876C1991.02 754.092 1990.73 754.988 1990.15 755.564C1989.64 756.076 1988.78 756.332 1987.56 756.332H1968.84V764.588H1995.34C1996.55 764.588 1997.42 764.876 1997.93 765.452C1998.5 765.964 1998.79 766.828 1998.79 768.044V779.276C1998.79 780.492 1998.5 781.388 1997.93 781.964C1997.42 782.476 1996.55 782.732 1995.34 782.732Z" fill="white"/>
<path d="M2033.77 782.732H2019.37C2018.15 782.732 2017.25 782.476 2016.68 781.964C2016.17 781.388 2015.91 780.492 2015.91 779.276V717.068C2015.91 715.852 2016.17 714.988 2016.68 714.476C2017.25 713.9 2018.15 713.612 2019.37 713.612H2029.35C2030.57 713.612 2031.59 713.804 2032.42 714.188C2033.32 714.572 2034.18 715.244 2035.01 716.204L2053.64 737.516V717.068C2053.64 715.852 2053.89 714.988 2054.41 714.476C2054.98 713.9 2055.88 713.612 2057.09 713.612H2071.49C2072.71 713.612 2073.57 713.9 2074.09 714.476C2074.66 714.988 2074.95 715.852 2074.95 717.068V779.276C2074.95 780.492 2074.66 781.388 2074.09 781.964C2073.57 782.476 2072.71 782.732 2071.49 782.732H2057.09C2055.88 782.732 2054.98 782.476 2054.41 781.964C2053.89 781.388 2053.64 780.492 2053.64 779.276V767.468L2037.22 747.596V779.276C2037.22 780.492 2036.93 781.388 2036.36 781.964C2035.85 782.476 2034.98 782.732 2033.77 782.732Z" fill="white"/>
<path d="M2126.59 782.732H2111.04C2109.82 782.732 2108.93 782.476 2108.35 781.964C2107.84 781.388 2107.58 780.492 2107.58 779.276V732.14H2093.47C2092.25 732.14 2091.36 731.884 2090.78 731.372C2090.27 730.796 2090.01 729.9 2090.01 728.684V717.068C2090.01 715.852 2090.27 714.988 2090.78 714.476C2091.36 713.9 2092.25 713.612 2093.47 713.612H2144.16C2145.37 713.612 2146.24 713.9 2146.75 714.476C2147.33 714.988 2147.61 715.852 2147.61 717.068V728.684C2147.61 729.9 2147.33 730.796 2146.75 731.372C2146.24 731.884 2145.37 732.14 2144.16 732.14H2130.05V779.276C2130.05 780.492 2129.76 781.388 2129.18 781.964C2128.67 782.476 2127.81 782.732 2126.59 782.732Z" fill="white"/>
<path d="M2220.8 764.588C2220.8 767.532 2220.35 770.22 2219.46 772.652C2218.63 775.02 2217.09 777.068 2214.85 778.796C2212.67 780.46 2209.63 781.772 2205.73 782.732C2201.89 783.692 2196.99 784.172 2191.04 784.172C2185.09 784.172 2180.16 783.692 2176.26 782.732C2172.35 781.772 2169.28 780.46 2167.04 778.796C2164.87 777.068 2163.33 775.02 2162.43 772.652C2161.6 770.22 2161.19 767.532 2161.19 764.588V731.852C2161.19 728.908 2161.6 726.252 2162.43 723.884C2163.33 721.452 2164.87 719.372 2167.04 717.644C2169.28 715.916 2172.35 714.572 2176.26 713.612C2180.16 712.652 2185.09 712.172 2191.04 712.172C2196.99 712.172 2201.89 712.652 2205.73 713.612C2209.63 714.572 2212.67 715.916 2214.85 717.644C2217.09 719.372 2218.63 721.452 2219.46 723.884C2220.35 726.252 2220.8 728.908 2220.8 731.852V764.588ZM2182.98 761.132C2182.98 762.412 2183.46 763.5 2184.42 764.396C2185.38 765.228 2187.59 765.644 2191.04 765.644C2194.5 765.644 2196.71 765.228 2197.67 764.396C2198.63 763.5 2199.11 762.412 2199.11 761.132V735.308C2199.11 734.092 2198.63 733.068 2197.67 732.236C2196.71 731.34 2194.5 730.892 2191.04 730.892C2187.59 730.892 2185.38 731.34 2184.42 732.236C2183.46 733.068 2182.98 734.092 2182.98 735.308V761.132Z" fill="white"/>
<path d="M2301.91 782.732H2269.56C2268.35 782.732 2267.45 782.476 2266.87 781.964C2266.36 781.388 2266.11 780.492 2266.11 779.276V717.068C2266.11 715.852 2266.36 714.988 2266.87 714.476C2267.45 713.9 2268.35 713.612 2269.56 713.612H2301.91C2309.91 713.612 2315.83 715.212 2319.67 718.412C2323.58 721.612 2325.53 726.54 2325.53 733.196V763.148C2325.53 769.804 2323.58 774.732 2319.67 777.932C2315.83 781.132 2309.91 782.732 2301.91 782.732ZM2287.9 731.948V764.588H2299.32C2300.86 764.588 2301.98 764.204 2302.68 763.436C2303.45 762.668 2303.83 761.484 2303.83 759.884V736.556C2303.83 734.956 2303.45 733.804 2302.68 733.1C2301.98 732.332 2300.86 731.948 2299.32 731.948H2287.9Z" fill="white"/>
<path d="M2391.49 782.732H2346.95C2345.73 782.732 2344.83 782.476 2344.26 781.964C2343.75 781.388 2343.49 780.492 2343.49 779.276V717.068C2343.49 715.852 2343.75 714.988 2344.26 714.476C2344.83 713.9 2345.73 713.612 2346.95 713.612H2391.49C2392.71 713.612 2393.57 713.9 2394.08 714.476C2394.66 714.988 2394.95 715.852 2394.95 717.068V728.3C2394.95 729.516 2394.66 730.412 2394.08 730.988C2393.57 731.5 2392.71 731.756 2391.49 731.756H2364.99V739.148H2383.71C2384.93 739.148 2385.79 739.436 2386.31 740.012C2386.88 740.524 2387.17 741.388 2387.17 742.604V752.876C2387.17 754.092 2386.88 754.988 2386.31 755.564C2385.79 756.076 2384.93 756.332 2383.71 756.332H2364.99V764.588H2391.49C2392.71 764.588 2393.57 764.876 2394.08 765.452C2394.66 765.964 2394.95 766.828 2394.95 768.044V779.276C2394.95 780.492 2394.66 781.388 2394.08 781.964C2393.57 782.476 2392.71 782.732 2391.49 782.732Z" fill="white"/>
<path d="M1366.64 897.732H1334.29C1333.07 897.732 1332.18 897.476 1331.6 896.964C1331.09 896.388 1330.83 895.492 1330.83 894.276V832.068C1330.83 830.852 1331.09 829.988 1331.6 829.476C1332.18 828.9 1333.07 828.612 1334.29 828.612H1366.64C1374.64 828.612 1380.56 830.212 1384.4 833.412C1388.31 836.612 1390.26 841.54 1390.26 848.196V878.148C1390.26 884.804 1388.31 889.732 1384.4 892.932C1380.56 896.132 1374.64 897.732 1366.64 897.732ZM1352.63 846.948V879.588H1364.05C1365.59 879.588 1366.71 879.204 1367.41 878.436C1368.18 877.668 1368.56 876.484 1368.56 874.884V851.556C1368.56 849.956 1368.18 848.804 1367.41 848.1C1366.71 847.332 1365.59 846.948 1364.05 846.948H1352.63Z" fill="white"/>
<path d="M1410.14 897.732C1408.92 897.732 1408.03 897.476 1407.45 896.964C1406.94 896.388 1406.68 895.492 1406.68 894.276V882.852C1406.68 881.636 1406.94 880.772 1407.45 880.26C1408.03 879.684 1408.92 879.396 1410.14 879.396H1419.64V847.14H1410.14C1408.92 847.14 1408.03 846.884 1407.45 846.372C1406.94 845.796 1406.68 844.9 1406.68 843.684V832.068C1406.68 830.852 1406.94 829.988 1407.45 829.476C1408.03 828.9 1408.92 828.612 1410.14 828.612H1451.04C1452.25 828.612 1453.12 828.9 1453.63 829.476C1454.2 829.988 1454.49 830.852 1454.49 832.068V843.684C1454.49 844.9 1454.2 845.796 1453.63 846.372C1453.12 846.884 1452.25 847.14 1451.04 847.14H1441.72V879.396H1451.04C1452.25 879.396 1453.12 879.684 1453.63 880.26C1454.2 880.772 1454.49 881.636 1454.49 882.852V894.276C1454.49 895.492 1454.2 896.388 1453.63 896.964C1453.12 897.476 1452.25 897.732 1451.04 897.732H1410.14Z" fill="white"/>
<path d="M1497.16 848.772L1492.65 863.364H1507.72L1503.21 848.772C1502.95 848.196 1502.66 847.78 1502.34 847.524C1502.09 847.268 1501.77 847.14 1501.38 847.14H1498.98C1498.6 847.14 1498.25 847.268 1497.93 847.524C1497.67 847.78 1497.42 848.196 1497.16 848.772ZM1491.69 894.276C1491.69 895.492 1491.4 896.388 1490.82 896.964C1490.31 897.476 1489.45 897.732 1488.23 897.732H1474.12C1472.9 897.732 1472.01 897.476 1471.43 896.964C1470.92 896.388 1470.66 895.492 1470.66 894.276V868.932C1470.66 867.012 1470.95 864.804 1471.53 862.308C1472.17 859.812 1473.13 856.9 1474.41 853.572L1482.76 831.78C1483.14 830.692 1483.72 829.892 1484.49 829.38C1485.32 828.868 1486.38 828.612 1487.66 828.612H1513.48C1514.7 828.612 1515.69 828.868 1516.46 829.38C1517.29 829.892 1517.9 830.692 1518.28 831.78L1526.63 853.572C1527.91 856.9 1528.84 859.812 1529.42 862.308C1530.06 864.804 1530.38 867.012 1530.38 868.932V894.276C1530.38 895.492 1530.09 896.388 1529.51 896.964C1529 897.476 1528.14 897.732 1526.92 897.732H1512.42C1511.14 897.732 1510.18 897.476 1509.54 896.964C1508.97 896.388 1508.68 895.492 1508.68 894.276V880.836H1491.69V894.276Z" fill="white"/>
<path d="M1569.69 845.892V858.18H1576.89C1578.55 858.18 1579.67 857.764 1580.25 856.932C1580.82 856.036 1581.11 854.948 1581.11 853.668V850.404C1581.11 849.124 1580.82 848.068 1580.25 847.236C1579.67 846.34 1578.55 845.892 1576.89 845.892H1569.69ZM1566.23 897.732H1551.45C1550.23 897.732 1549.33 897.476 1548.76 896.964C1548.25 896.388 1547.99 895.492 1547.99 894.276V832.068C1547.99 830.852 1548.25 829.988 1548.76 829.476C1549.33 828.9 1550.23 828.612 1551.45 828.612H1583.41C1590.58 828.612 1595.51 830.116 1598.2 833.124C1600.95 836.068 1602.33 839.908 1602.33 844.644V849.06C1602.33 851.748 1601.91 854.052 1601.08 855.972C1600.31 857.828 1598.93 859.172 1596.95 860.004C1600.41 860.388 1603.19 861.796 1605.3 864.228C1607.48 866.66 1608.57 869.892 1608.57 873.924V894.276C1608.57 895.492 1608.28 896.388 1607.7 896.964C1607.19 897.476 1606.33 897.732 1605.11 897.732H1590.23C1589.01 897.732 1588.12 897.476 1587.54 896.964C1587.03 896.388 1586.77 895.492 1586.77 894.276V879.588C1586.77 878.18 1586.49 877.156 1585.91 876.516C1585.4 875.812 1584.47 875.46 1583.13 875.46H1569.69V894.276C1569.69 895.492 1569.4 896.388 1568.82 896.964C1568.31 897.476 1567.45 897.732 1566.23 897.732Z" fill="white"/>
<path d="M1627.01 897.732C1625.8 897.732 1624.9 897.476 1624.33 896.964C1623.81 896.388 1623.56 895.492 1623.56 894.276V882.852C1623.56 881.636 1623.81 880.772 1624.33 880.26C1624.9 879.684 1625.8 879.396 1627.01 879.396H1636.52V847.14H1627.01C1625.8 847.14 1624.9 846.884 1624.33 846.372C1623.81 845.796 1623.56 844.9 1623.56 843.684V832.068C1623.56 830.852 1623.81 829.988 1624.33 829.476C1624.9 828.9 1625.8 828.612 1627.01 828.612H1667.91C1669.13 828.612 1669.99 828.9 1670.5 829.476C1671.08 829.988 1671.37 830.852 1671.37 832.068V843.684C1671.37 844.9 1671.08 845.796 1670.5 846.372C1669.99 846.884 1669.13 847.14 1667.91 847.14H1658.6V879.396H1667.91C1669.13 879.396 1669.99 879.684 1670.5 880.26C1671.08 880.772 1671.37 881.636 1671.37 882.852V894.276C1671.37 895.492 1671.08 896.388 1670.5 896.964C1669.99 897.476 1669.13 897.732 1667.91 897.732H1627.01Z" fill="white"/>
<path d="M1747.54 879.588C1747.54 882.532 1747.09 885.22 1746.19 887.652C1745.36 890.02 1743.83 892.068 1741.59 893.796C1739.41 895.46 1736.37 896.772 1732.47 897.732C1728.63 898.692 1723.73 899.172 1717.78 899.172C1711.83 899.172 1706.9 898.692 1702.99 897.732C1699.09 896.772 1696.02 895.46 1693.78 893.796C1691.6 892.068 1690.07 890.02 1689.17 887.652C1688.34 885.22 1687.92 882.532 1687.92 879.588V846.852C1687.92 843.908 1688.34 841.252 1689.17 838.884C1690.07 836.452 1691.6 834.372 1693.78 832.644C1696.02 830.916 1699.09 829.572 1702.99 828.612C1706.9 827.652 1711.83 827.172 1717.78 827.172C1723.73 827.172 1728.63 827.652 1732.47 828.612C1736.37 829.572 1739.41 830.916 1741.59 832.644C1743.83 834.372 1745.36 836.452 1746.19 838.884C1747.09 841.252 1747.54 843.908 1747.54 846.852V879.588ZM1709.71 876.132C1709.71 877.412 1710.19 878.5 1711.15 879.396C1712.11 880.228 1714.32 880.644 1717.78 880.644C1721.23 880.644 1723.44 880.228 1724.4 879.396C1725.36 878.5 1725.84 877.412 1725.84 876.132V850.308C1725.84 849.092 1725.36 848.068 1724.4 847.236C1723.44 846.34 1721.23 845.892 1717.78 845.892C1714.32 845.892 1712.11 846.34 1711.15 847.236C1710.19 848.068 1709.71 849.092 1709.71 850.308V876.132Z" fill="white"/>
<path d="M1840.84 897.732H1796.3C1795.08 897.732 1794.19 897.476 1793.61 896.964C1793.1 896.388 1792.84 895.492 1792.84 894.276V832.068C1792.84 830.852 1793.1 829.988 1793.61 829.476C1794.19 828.9 1795.08 828.612 1796.3 828.612H1840.84C1842.06 828.612 1842.92 828.9 1843.43 829.476C1844.01 829.988 1844.3 830.852 1844.3 832.068V843.3C1844.3 844.516 1844.01 845.412 1843.43 845.988C1842.92 846.5 1842.06 846.756 1840.84 846.756H1814.35V854.148H1833.07C1834.28 854.148 1835.15 854.436 1835.66 855.012C1836.23 855.524 1836.52 856.388 1836.52 857.604V867.876C1836.52 869.092 1836.23 869.988 1835.66 870.564C1835.15 871.076 1834.28 871.332 1833.07 871.332H1814.35V879.588H1840.84C1842.06 879.588 1842.92 879.876 1843.43 880.452C1844.01 880.964 1844.3 881.828 1844.3 883.044V894.276C1844.3 895.492 1844.01 896.388 1843.43 896.964C1842.92 897.476 1842.06 897.732 1840.84 897.732Z" fill="white"/>
<path d="M1893.48 897.732H1863.14C1861.93 897.732 1861.03 897.476 1860.45 896.964C1859.94 896.388 1859.69 895.492 1859.69 894.276V883.044C1859.69 881.828 1859.94 880.964 1860.45 880.452C1861.03 879.876 1861.93 879.588 1863.14 879.588H1888.97C1889.8 879.588 1890.41 879.332 1890.79 878.82C1891.24 878.244 1891.46 877.572 1891.46 876.804C1891.46 875.716 1891.24 874.916 1890.79 874.404C1890.41 873.892 1889.8 873.604 1888.97 873.54L1874.57 871.524C1870.09 870.884 1866.47 869.412 1863.72 867.108C1861.03 864.804 1859.69 860.964 1859.69 855.588V845.508C1859.69 840.068 1861.45 835.908 1864.97 833.028C1868.49 830.084 1873.35 828.612 1879.56 828.612H1906.44C1907.65 828.612 1908.52 828.9 1909.03 829.476C1909.61 829.988 1909.89 830.852 1909.89 832.068V843.492C1909.89 844.708 1909.61 845.604 1909.03 846.18C1908.52 846.692 1907.65 846.948 1906.44 846.948H1884.07C1883.24 846.948 1882.6 847.236 1882.15 847.812C1881.7 848.324 1881.48 848.996 1881.48 849.828C1881.48 850.66 1881.7 851.364 1882.15 851.94C1882.6 852.516 1883.24 852.836 1884.07 852.9L1898.37 854.82C1902.85 855.46 1906.47 856.932 1909.22 859.236C1911.97 861.54 1913.35 865.38 1913.35 870.756V880.836C1913.35 886.276 1911.56 890.468 1907.97 893.412C1904.45 896.292 1899.62 897.732 1893.48 897.732Z" fill="white"/>
<path d="M1975.6 897.732H1952.17C1944.17 897.732 1938.22 896.132 1934.32 892.932C1930.48 889.732 1928.56 884.804 1928.56 878.148V848.292C1928.56 841.636 1930.48 836.708 1934.32 833.508C1938.22 830.244 1944.17 828.612 1952.17 828.612H1975.6C1976.81 828.612 1977.68 828.9 1978.19 829.476C1978.76 829.988 1979.05 830.852 1979.05 832.068V843.684C1979.05 844.9 1978.76 845.796 1978.19 846.372C1977.68 846.884 1976.81 847.14 1975.6 847.14H1956.3C1954.32 847.14 1952.84 847.556 1951.88 848.388C1950.92 849.156 1950.44 850.34 1950.44 851.94V874.788C1950.44 876.388 1950.92 877.572 1951.88 878.34C1952.84 879.044 1954.32 879.396 1956.3 879.396H1975.6C1976.81 879.396 1977.68 879.684 1978.19 880.26C1978.76 880.772 1979.05 881.636 1979.05 882.852V894.276C1979.05 895.492 1978.76 896.388 1978.19 896.964C1977.68 897.476 1976.81 897.732 1975.6 897.732Z" fill="white"/>
<path d="M2053.74 879.588C2053.74 882.532 2053.3 885.22 2052.4 887.652C2051.57 890.02 2050.03 892.068 2047.79 893.796C2045.62 895.46 2042.58 896.772 2038.67 897.732C2034.83 898.692 2029.94 899.172 2023.98 899.172C2018.03 899.172 2013.1 898.692 2009.2 897.732C2005.3 896.772 2002.22 895.46 1999.98 893.796C1997.81 892.068 1996.27 890.02 1995.38 887.652C1994.54 885.22 1994.13 882.532 1994.13 879.588V846.852C1994.13 843.908 1994.54 841.252 1995.38 838.884C1996.27 836.452 1997.81 834.372 1999.98 832.644C2002.22 830.916 2005.3 829.572 2009.2 828.612C2013.1 827.652 2018.03 827.172 2023.98 827.172C2029.94 827.172 2034.83 827.652 2038.67 828.612C2042.58 829.572 2045.62 830.916 2047.79 832.644C2050.03 834.372 2051.57 836.452 2052.4 838.884C2053.3 841.252 2053.74 843.908 2053.74 846.852V879.588ZM2015.92 876.132C2015.92 877.412 2016.4 878.5 2017.36 879.396C2018.32 880.228 2020.53 880.644 2023.98 880.644C2027.44 880.644 2029.65 880.228 2030.61 879.396C2031.57 878.5 2032.05 877.412 2032.05 876.132V850.308C2032.05 849.092 2031.57 848.068 2030.61 847.236C2029.65 846.34 2027.44 845.892 2023.98 845.892C2020.53 845.892 2018.32 846.34 2017.36 847.236C2016.4 848.068 2015.92 849.092 2015.92 850.308V876.132Z" fill="white"/>
<path d="M2124.05 897.732H2075.18C2073.97 897.732 2073.07 897.476 2072.49 896.964C2071.98 896.388 2071.73 895.492 2071.73 894.276V832.068C2071.73 830.852 2071.98 829.988 2072.49 829.476C2073.07 828.9 2073.97 828.612 2075.18 828.612H2090.06C2091.28 828.612 2092.14 828.9 2092.65 829.476C2093.23 829.988 2093.52 830.852 2093.52 832.068V879.588H2106.67V864.036C2106.67 862.82 2106.93 861.956 2107.44 861.444C2108.01 860.868 2108.91 860.58 2110.13 860.58H2124.05C2125.26 860.58 2126.13 860.868 2126.64 861.444C2127.21 861.956 2127.5 862.82 2127.5 864.036V894.276C2127.5 895.492 2127.21 896.388 2126.64 896.964C2126.13 897.476 2125.26 897.732 2124.05 897.732Z" fill="white"/>
<path d="M2169.29 848.772L2164.78 863.364H2179.85L2175.34 848.772C2175.08 848.196 2174.8 847.78 2174.48 847.524C2174.22 847.268 2173.9 847.14 2173.52 847.14H2171.12C2170.73 847.14 2170.38 847.268 2170.06 847.524C2169.8 847.78 2169.55 848.196 2169.29 848.772ZM2163.82 894.276C2163.82 895.492 2163.53 896.388 2162.96 896.964C2162.44 897.476 2161.58 897.732 2160.36 897.732H2146.25C2145.04 897.732 2144.14 897.476 2143.56 896.964C2143.05 896.388 2142.8 895.492 2142.8 894.276V868.932C2142.8 867.012 2143.08 864.804 2143.66 862.308C2144.3 859.812 2145.26 856.9 2146.54 853.572L2154.89 831.78C2155.28 830.692 2155.85 829.892 2156.62 829.38C2157.45 828.868 2158.51 828.612 2159.79 828.612H2185.61C2186.83 828.612 2187.82 828.868 2188.59 829.38C2189.42 829.892 2190.03 830.692 2190.41 831.78L2198.76 853.572C2200.04 856.9 2200.97 859.812 2201.55 862.308C2202.19 864.804 2202.51 867.012 2202.51 868.932V894.276C2202.51 895.492 2202.22 896.388 2201.64 896.964C2201.13 897.476 2200.27 897.732 2199.05 897.732H2184.56C2183.28 897.732 2182.32 897.476 2181.68 896.964C2181.1 896.388 2180.81 895.492 2180.81 894.276V880.836H2163.82V894.276Z" fill="white"/>
<path d="M2241.82 845.892V858.18H2249.02C2250.68 858.18 2251.8 857.764 2252.38 856.932C2252.95 856.036 2253.24 854.948 2253.24 853.668V850.404C2253.24 849.124 2252.95 848.068 2252.38 847.236C2251.8 846.34 2250.68 845.892 2249.02 845.892H2241.82ZM2238.36 897.732H2223.58C2222.36 897.732 2221.46 897.476 2220.89 896.964C2220.38 896.388 2220.12 895.492 2220.12 894.276V832.068C2220.12 830.852 2220.38 829.988 2220.89 829.476C2221.46 828.9 2222.36 828.612 2223.58 828.612H2255.55C2262.71 828.612 2267.64 830.116 2270.33 833.124C2273.08 836.068 2274.46 839.908 2274.46 844.644V849.06C2274.46 851.748 2274.04 854.052 2273.21 855.972C2272.44 857.828 2271.07 859.172 2269.08 860.004C2272.54 860.388 2275.32 861.796 2277.43 864.228C2279.61 866.66 2280.7 869.892 2280.7 873.924V894.276C2280.7 895.492 2280.41 896.388 2279.83 896.964C2279.32 897.476 2278.46 897.732 2277.24 897.732H2262.36C2261.14 897.732 2260.25 897.476 2259.67 896.964C2259.16 896.388 2258.91 895.492 2258.91 894.276V879.588C2258.91 878.18 2258.62 877.156 2258.04 876.516C2257.53 875.812 2256.6 875.46 2255.26 875.46H2241.82V894.276C2241.82 895.492 2241.53 896.388 2240.95 896.964C2240.44 897.476 2239.58 897.732 2238.36 897.732Z" fill="white"/>
<defs>
<linearGradient id="paint0_linear_160_262" x1="474.69" y1="533.217" x2="474.69" y2="-0.000183105" gradientUnits="userSpaceOnUse">
<stop stop-color="#549FFF"/>
<stop offset="1" stop-color="#9626FB"/>
</linearGradient>
<linearGradient id="paint1_linear_160_262" x1="445.643" y1="1037.79" x2="445.643" y2="230.035" gradientUnits="userSpaceOnUse">
<stop stop-color="#549FFF"/>
<stop offset="1" stop-color="#9626FB"/>
</linearGradient>
</defs>
</svg>
